<svg width="375" height="112" viewBox="0 0 375 112" fill="none" xmlns="http://www.w3.org/2000/svg">
<g filter="url(#filter0_d)">
<rect x="16" y="10" width="343" height="76" rx="12" fill="#080725"/>
<path d="M55.2803 65H57.4746L54.043 55.1357H51.6162L48.1914 65H50.3105L51.0625 62.6074H54.5283L55.2803 65ZM52.7715 57.0225H52.8193L54.084 61.0625H51.5068L52.7715 57.0225ZM63.3262 65V61.1172H67.3389V59.4834H63.3262V56.8379H67.7217V55.1357H61.2617V65H63.3262ZM71.8574 58.9912C72.7461 58.9912 73.3545 59.6338 73.3955 60.5703H70.2852C70.3535 59.6543 70.9824 58.9912 71.8574 58.9912ZM73.4229 62.7578C73.2383 63.3184 72.6777 63.6807 71.9463 63.6807C70.9277 63.6807 70.2646 62.9629 70.2646 61.917V61.7939H75.3164V61.1855C75.3164 58.957 73.9697 57.5146 71.8369 57.5146C69.6699 57.5146 68.3027 59.0322 68.3027 61.3701C68.3027 63.7148 69.6562 65.1572 71.9121 65.1572C73.7236 65.1572 75.0361 64.1934 75.2549 62.7578H73.4229ZM76.2256 59.8252C76.2256 60.9258 76.9434 61.6367 78.3584 61.9375L79.6094 62.1973C80.3271 62.3613 80.5801 62.5801 80.5801 62.9697C80.5801 63.4482 80.1152 63.7559 79.3633 63.7559C78.5703 63.7559 78.1123 63.4141 77.9893 62.7715H76.041C76.1709 64.2139 77.3398 65.1572 79.3633 65.1572C81.25 65.1572 82.5693 64.207 82.5693 62.7646C82.5693 61.6914 81.9404 61.0898 80.4092 60.7686L79.1582 60.502C78.4199 60.3447 78.1465 60.0918 78.1465 59.7158C78.1465 59.2305 78.6045 58.916 79.2949 58.916C80.0332 58.916 80.4775 59.3193 80.5391 59.9141H82.3779C82.3369 58.4785 81.1748 57.5146 79.2949 57.5146C77.4287 57.5146 76.2256 58.4307 76.2256 59.8252ZM84.0869 55.9834V57.6719H83.0547V59.1758H84.0869V63.0244C84.0869 64.4531 84.7568 65.0273 86.4795 65.0273C86.8828 65.0273 87.2246 64.9932 87.4297 64.9453V63.4756C87.3066 63.4961 87.1221 63.5098 86.9443 63.5098C86.3564 63.5098 86.083 63.2432 86.083 62.6826V59.1758H87.4365V57.6719H86.083V55.9834H84.0869ZM88.5645 65H90.5605V57.6719H88.5645V65ZM89.5557 56.6807C90.1367 56.6807 90.5947 56.2158 90.5947 55.6553C90.5947 55.0879 90.1367 54.6299 89.5557 54.6299C88.9746 54.6299 88.5166 55.0879 88.5166 55.6553C88.5166 56.2158 88.9746 56.6807 89.5557 56.6807ZM98.5928 57.6719H96.5078L94.9902 63.2363H94.9492L93.4248 57.6719H91.2852L93.8213 65H96.0771L98.5928 57.6719ZM101.942 63.6738C101.266 63.6738 100.814 63.332 100.814 62.7852C100.814 62.2656 101.238 61.9307 101.983 61.876L103.528 61.7803V62.3135C103.528 63.1064 102.811 63.6738 101.942 63.6738ZM101.286 65.1162C102.202 65.1162 103.111 64.6582 103.521 63.8789H103.562V65H105.49V59.9619C105.49 58.4854 104.267 57.5146 102.387 57.5146C100.445 57.5146 99.2354 58.4922 99.1602 59.9141H100.985C101.081 59.374 101.553 59.0049 102.298 59.0049C103.05 59.0049 103.528 59.4014 103.528 60.085V60.5703L101.683 60.6797C99.8574 60.7891 98.832 61.5615 98.832 62.8945C98.832 64.2139 99.8916 65.1162 101.286 65.1162ZM106.83 65H108.826V55.1357H106.83V65ZM113.481 65H115.478V59.1758H116.886V57.7061H115.43V57.2207C115.43 56.7012 115.717 56.4141 116.373 56.4141C116.571 56.4141 116.77 56.4277 116.913 56.4551V55.1357C116.681 55.0879 116.264 55.0469 115.895 55.0469C114.158 55.0469 113.481 55.7168 113.481 57.1523V57.7061H112.483V59.1758H113.481V65ZM121.097 65.1572C123.312 65.1572 124.727 63.7422 124.727 61.3291C124.727 58.9502 123.291 57.5146 121.097 57.5146C118.902 57.5146 117.467 58.957 117.467 61.3291C117.467 63.7354 118.882 65.1572 121.097 65.1572ZM121.097 63.6328C120.112 63.6328 119.49 62.8057 119.49 61.3359C119.49 59.8799 120.126 59.0391 121.097 59.0391C122.067 59.0391 122.696 59.8799 122.696 61.3359C122.696 62.8057 122.074 63.6328 121.097 63.6328ZM125.759 65H127.755V60.9053C127.755 59.873 128.329 59.2715 129.313 59.2715C129.601 59.2715 129.874 59.3193 130.038 59.3877V57.6309C129.901 57.5898 129.703 57.5557 129.471 57.5557C128.609 57.5557 127.987 58.0615 127.728 58.9912H127.687V57.6719H125.759V65ZM133.805 55.1357V65H137.571C140.531 65 142.274 63.1611 142.274 60.0303C142.274 56.8994 140.531 55.1357 137.571 55.1357H133.805ZM135.869 56.8379H137.325C139.144 56.8379 140.169 57.9727 140.169 60.0371C140.169 62.1699 139.171 63.291 137.325 63.291H135.869V56.8379ZM146.8 65.1572C149.015 65.1572 150.43 63.7422 150.43 61.3291C150.43 58.9502 148.994 57.5146 146.8 57.5146C144.605 57.5146 143.17 58.957 143.17 61.3291C143.17 63.7354 144.585 65.1572 146.8 65.1572ZM146.8 63.6328C145.815 63.6328 145.193 62.8057 145.193 61.3359C145.193 59.8799 145.829 59.0391 146.8 59.0391C147.771 59.0391 148.399 59.8799 148.399 61.3359C148.399 62.8057 147.777 63.6328 146.8 63.6328ZM154.75 58.9912C155.639 58.9912 156.247 59.6338 156.288 60.5703H153.178C153.246 59.6543 153.875 58.9912 154.75 58.9912ZM156.315 62.7578C156.131 63.3184 155.57 63.6807 154.839 63.6807C153.82 63.6807 153.157 62.9629 153.157 61.917V61.7939H158.209V61.1855C158.209 58.957 156.862 57.5146 154.729 57.5146C152.562 57.5146 151.195 59.0322 151.195 61.3701C151.195 63.7148 152.549 65.1572 154.805 65.1572C156.616 65.1572 157.929 64.1934 158.147 62.7578H156.315ZM159.241 65H161.237V60.9053C161.237 59.873 161.812 59.2715 162.796 59.2715C163.083 59.2715 163.356 59.3193 163.521 59.3877V57.6309C163.384 57.5898 163.186 57.5557 162.953 57.5557C162.092 57.5557 161.47 58.0615 161.21 58.9912H161.169V57.6719H159.241V65ZM164.218 59.8252C164.218 60.9258 164.936 61.6367 166.351 61.9375L167.602 62.1973C168.319 62.3613 168.572 62.5801 168.572 62.9697C168.572 63.4482 168.107 63.7559 167.355 63.7559C166.562 63.7559 166.104 63.4141 165.981 62.7715H164.033C164.163 64.2139 165.332 65.1572 167.355 65.1572C169.242 65.1572 170.562 64.207 170.562 62.7646C170.562 61.6914 169.933 61.0898 168.401 60.7686L167.15 60.502C166.412 60.3447 166.139 60.0918 166.139 59.7158C166.139 59.2305 166.597 58.916 167.287 58.916C168.025 58.916 168.47 59.3193 168.531 59.9141H170.37C170.329 58.4785 169.167 57.5146 167.287 57.5146C165.421 57.5146 164.218 58.4307 164.218 59.8252Z" fill="#A5F981"/>
<path d="M56.372 46.7642C51.4379 46.7642 48 43.0312 48 38.3839C48 33.7367 51.4379 30 56.372 30H63.86V34.3534H56.372C53.847 34.3534 52.4378 36.1492 52.4378 38.3839C52.4378 40.6186 53.8361 42.4108 56.372 42.4108H63.86V46.7642H56.372Z" fill="#FAFAFA"/>
<path d="M105.216 43.0783C105.803 43.0783 106.039 42.8425 106.039 42.3128L106.057 33.7947H110.042V42.3527C110.042 45.353 108.306 46.971 105.224 46.971C102.492 46.971 100.583 45.353 100.583 42.3527V38.1481C100.583 37.6765 100.463 37.2339 99.7896 37.2339C99.1556 37.2339 99.065 37.6765 99.065 38.1481V46.7642H95.0439V38.0574C95.0439 34.7924 97.1088 33.3412 99.7533 33.3412C102.191 33.3412 104.423 34.7633 104.423 38.0574V42.3128C104.423 42.8425 104.629 43.0783 105.216 43.0783Z" fill="#FAFAFA"/>
<path fill-rule="evenodd" clip-rule="evenodd" d="M78.5898 46.7642H65.6243V33.7947H78.5898V46.7642ZM75.2279 40.2667C75.2279 38.5 74.0542 37.2665 72.1161 37.2665C70.1453 37.2665 68.9716 38.5036 68.9716 40.2667C68.9716 42.0299 70.1779 43.267 72.1161 43.267C74.0542 43.267 75.2279 42.0335 75.2279 40.2667Z" fill="#FAFAFA"/>
<path d="M86.7697 33.7947H80.3395V46.7642H84.2447V40.1362C84.2447 38.344 85.3315 37.3137 86.8277 37.3137C88.4144 37.3137 89.3853 38.344 89.3853 40.1362V46.7533H93.2905V40.7347C93.2905 37.1069 91.6748 33.7947 86.7697 33.7947Z" fill="#FAFAFA"/>
<path fill-rule="evenodd" clip-rule="evenodd" d="M173.768 33.5299C169.685 33.5299 166.867 36.2653 166.867 40.2631C166.867 44.261 169.685 47 173.768 47C177.851 47 180.651 44.2646 180.651 40.2631C180.651 36.2616 177.861 33.5299 173.768 33.5299ZM173.768 43.2633C173.177 43.2576 172.6 43.0768 172.111 42.7437C171.623 42.4105 171.243 41.94 171.021 41.3913C170.798 40.8426 170.743 40.2403 170.862 39.6602C170.981 39.0802 171.269 38.5483 171.689 38.1316C172.109 37.7149 172.643 37.4321 173.223 37.3186C173.803 37.2052 174.404 37.2663 174.95 37.4942C175.496 37.7221 175.962 38.1066 176.29 38.5994C176.618 39.0921 176.793 39.671 176.793 40.2631C176.807 40.6633 176.738 41.0621 176.59 41.4343C176.443 41.8066 176.22 42.1442 175.936 42.426C175.652 42.7078 175.312 42.9277 174.939 43.0718C174.566 43.2159 174.167 43.2811 173.768 43.2633Z" fill="#FAFAFA"/>
<path fill-rule="evenodd" clip-rule="evenodd" d="M111.342 40.2522C111.342 36.2544 114.146 33.519 118.225 33.519C122.341 33.519 125.159 36.2616 125.072 40.2522V41.3732H115.161C115.574 42.643 116.733 43.2524 118.225 43.2524H125.072V46.7533H118.225C114.164 46.7533 111.342 44.2501 111.342 40.2522ZM121.123 38.685C120.645 37.4987 119.577 36.8711 118.225 36.8711C116.856 36.8711 115.766 37.4878 115.276 38.685H121.123Z" fill="#FAFAFA"/>
<path d="M193.004 33.7947V42.3128C193.004 43.2851 192.037 43.3432 191.859 42.3128L190.508 33.8129H182.02V46.7823H186.045V38.1481C186.045 37.2339 186.983 37.0888 187.132 38.1481L188.425 46.7642H197V33.7947H193.004Z" fill="#FAFAFA"/>
<path d="M135.064 37.7199C134.545 37.2814 133.884 37.0468 133.205 37.0598C131.325 37.0598 130.093 38.3875 130.093 40.2667C130.093 42.146 131.325 43.4701 133.205 43.4701C133.885 43.4895 134.549 43.2577 135.069 42.8188C135.589 42.3799 135.93 41.7647 136.027 41.0903H139.845C139.581 44.5585 136.672 47 133.205 47C129.144 47 126.322 44.2973 126.322 40.2667C126.322 36.2362 129.155 33.5299 133.205 33.5299C136.672 33.5299 139.552 36.0004 139.845 39.4432H136.027C135.925 38.7708 135.583 38.1583 135.064 37.7199Z" fill="#FAFAFA"/>
<path d="M145.044 30H141.135V46.7642H149.007V43.0021H145.044V37.5604H149.007V33.7947H145.044V30Z" fill="#FAFAFA"/>
<path d="M158.288 46.7642C153.354 46.7642 149.92 43.0312 149.92 38.3839C149.92 33.7367 153.354 30 158.288 30H165.78V34.3534H158.288C155.752 34.3534 154.354 36.1492 154.354 38.3839C154.354 40.6186 155.752 42.4108 158.288 42.4108H165.78V46.7642H158.288Z" fill="#FAFAFA"/>
<path d="M247.609 53.1831C250.202 53.1831 252.011 51.689 252.26 49.3306H250.106C249.872 50.583 248.927 51.3521 247.616 51.3521C245.924 51.3521 244.862 49.9604 244.862 47.7046C244.862 45.478 245.939 44.0791 247.609 44.0791C248.898 44.0791 249.894 44.9287 250.099 46.2251H252.252C252.084 43.8594 250.15 42.248 247.609 42.248C244.547 42.248 242.606 44.3062 242.606 47.7119C242.606 51.125 244.533 53.1831 247.609 53.1831ZM253.498 53H255.636V48.5176C255.636 47.4849 256.229 46.7744 257.24 46.7744C258.214 46.7744 258.712 47.3896 258.712 48.4004V53H260.851V47.9463C260.851 46.1299 259.855 45.002 258.112 45.002C256.918 45.002 256.061 45.5586 255.644 46.5474H255.6V42.4312H253.498V53ZM265.744 46.562C266.696 46.562 267.348 47.2505 267.392 48.2539H264.059C264.132 47.2725 264.806 46.562 265.744 46.562ZM267.421 50.5977C267.223 51.1982 266.623 51.5864 265.839 51.5864C264.748 51.5864 264.037 50.8174 264.037 49.6968V49.5649H269.45V48.9131C269.45 46.5254 268.007 44.98 265.722 44.98C263.4 44.98 261.935 46.606 261.935 49.1108C261.935 51.623 263.385 53.1685 265.802 53.1685C267.743 53.1685 269.149 52.1357 269.384 50.5977H267.421ZM277.689 48.0708C277.594 46.291 276.247 44.98 274.123 44.98C271.771 44.98 270.27 46.5474 270.27 49.0669C270.27 51.6304 271.771 53.1685 274.137 53.1685C276.203 53.1685 277.587 51.9746 277.697 50.1216H275.705C275.573 50.9785 275.016 51.4912 274.159 51.4912C273.097 51.4912 272.438 50.6123 272.438 49.0669C272.438 47.5508 273.097 46.6572 274.152 46.6572C275.031 46.6572 275.58 47.2432 275.705 48.0708H277.689ZM280.949 48.2979H280.919V42.4312H278.781V53H280.919V50.4072L281.476 49.8066L283.725 53H286.186L283.043 48.5176L286.039 45.1484H283.615L280.949 48.2979ZM291.415 49.6382V47.7705H286.603V49.6382H291.415ZM295.421 53V42.4312H293.209V53H295.421ZM296.996 53H299.135V48.4956C299.135 47.4775 299.743 46.7744 300.702 46.7744C301.662 46.7744 302.145 47.3604 302.145 48.3857V53H304.284V47.939C304.284 46.1006 303.302 45.002 301.559 45.002C300.351 45.002 299.523 45.5732 299.105 46.5474H299.062V45.1484H296.996V53Z" fill="white"/>
<path fill-rule="evenodd" clip-rule="evenodd" d="M312.333 48C312.333 48.4602 312.706 48.8333 313.167 48.8333H322.821L319.244 52.4107C318.919 52.7362 318.919 53.2638 319.244 53.5892C319.57 53.9147 320.097 53.9147 320.423 53.5892L325.423 48.5892C325.748 48.2638 325.748 47.7362 325.423 47.4107L320.423 42.4107C320.097 42.0853 319.57 42.0853 319.244 42.4107C318.919 42.7362 318.919 43.2638 319.244 43.5892L322.821 47.1667H313.167C312.706 47.1667 312.333 47.5398 312.333 48Z" fill="white"/>
<rect x="229" y="31" width="109" height="34" rx="17" stroke="url(#paint0_linear)" stroke-width="2"/>
</g>
<rect x="8" y="34" width="28" height="28" rx="14" fill="#080725"/>
<path d="M18.5303 52.5303C18.2374 52.8232 17.7626 52.8232 17.4697 52.5303C17.1768 52.2374 17.1768 51.7626 17.4697 51.4697L20.9393 48L17.4697 44.5303C17.1768 44.2374 17.1768 43.7626 17.4697 43.4697C17.7626 43.1768 18.2374 43.1768 18.5303 43.4697L22 46.9393L25.4697 43.4697C25.7626 43.1768 26.2374 43.1768 26.5303 43.4697C26.8232 43.7626 26.8232 44.2374 26.5303 44.5303L23.0607 48L26.5303 51.4697C26.8232 51.7626 26.8232 52.2374 26.5303 52.5303C26.2374 52.8232 25.7626 52.8232 25.4697 52.5303L22 49.0607L18.5303 52.5303Z" fill="white"/>
<defs>
<filter id="filter0_d" x="-2" y="0" width="379" height="112" filterUnits="userSpaceOnUse" color-interpolation-filters="sRGB">
<feFlood flood-opacity="0" result="BackgroundImageFix"/>
<feColorMatrix in="SourceAlpha" type="matrix" values="0 0 0 0 0 0 0 0 0 0 0 0 0 0 0 0 0 0 127 0" result="hardAlpha"/>
<feOffset dy="8"/>
<feGaussianBlur stdDeviation="9"/>
<feComposite in2="hardAlpha" operator="out"/>
<feColorMatrix type="matrix" values="0 0 0 0 0 0 0 0 0 0 0 0 0 0 0 0 0 0 0.12 0"/>
<feBlend mode="normal" in2="BackgroundImageFix" result="effect1_dropShadow"/>
<feBlend mode="normal" in="SourceGraphic" in2="effect1_dropShadow" result="shape"/>
</filter>
<linearGradient id="paint0_linear" x1="245.693" y1="30" x2="330.537" y2="36.0048" gradientUnits="userSpaceOnUse">
<stop stop-color="#FA690D"/>
<stop offset="0.510417" stop-color="#F843A3"/>
<stop offset="1" stop-color="#A203F9"/>
</linearGradient>
</defs>
</svg>
