<svg width="219" height="35" viewBox="0 0 219 35" fill="none" xmlns="http://www.w3.org/2000/svg">
    <g clip-path="url(#clip0_2_794)">
        <path d="M11.1351 15C13.7297 15 15.5946 13.0946 15.5946 10.5608V0.608108H12.3514V10.7027C12.3514 11.5135 11.8243 12.0405 11.1351 12.0405C10.4459 12.0405 9.91892 11.5135 9.91892 10.7027V4.88513C9.91892 2.25 8.03378 0.405405 5.45946 0.405405C2.88514 0.405405 1 2.25 1 4.88513V14.7973H4.24324V4.68243C4.24324 3.87162 4.77027 3.34459 5.45946 3.34459C6.14865 3.34459 6.67568 3.87162 6.67568 4.68243V10.5608C6.67568 13.0946 8.56081 15 11.1351 15Z" fill="white"/>
        <path d="M21.4476 14.7973V10.4189C21.4476 9.66892 21.9949 9.12162 22.7449 9.12162H26.2517C27.1436 9.12162 27.7922 8.47297 27.7922 7.60135C27.7922 6.72973 27.1436 6.08108 26.2517 6.08108H22.5422C21.853 6.08108 21.3463 5.57432 21.3463 4.88513V4.84459C21.3463 4.1554 21.853 3.64865 22.5422 3.64865H26.6571C27.549 3.64865 28.1976 3 28.1976 2.12838C28.1976 1.25676 27.549 0.608108 26.6571 0.608108H18.2044V14.7973H21.4476Z" fill="white"/>
        <path d="M36.8966 14.7973V5.31081C36.8966 4.35811 37.606 3.64865 38.5588 3.64865H41.6601V0.608108H28.8898V3.64865H31.9912C32.9439 3.64865 33.6533 4.35811 33.6533 5.31081V14.7973H36.8966Z" fill="white"/>
        <path d="M49.9725 14.7973V10.4189C49.9725 9.66892 50.5198 9.12162 51.2698 9.12162H54.7765C55.6684 9.12162 56.3171 8.47297 56.3171 7.60135C56.3171 6.72973 55.6684 6.08108 54.7765 6.08108H51.0671C50.3779 6.08108 49.8711 5.57432 49.8711 4.88513V4.84459C49.8711 4.1554 50.3779 3.64865 51.0671 3.64865H55.182C56.0738 3.64865 56.7225 3 56.7225 2.12838C56.7225 1.25676 56.0738 0.608108 55.182 0.608108H46.7293V14.7973H49.9725Z" fill="white"/>
        <path d="M62.0656 5.27027C59.2278 5.27027 57.2818 7.2973 57.2818 9.93243C57.2818 12.7703 59.3291 14.7973 62.7548 14.7973H65.7953V12.2635H62.5521C61.2751 12.2635 60.5859 11.7973 60.2616 11.1486H66.6061V10.0338C66.6061 7.27703 64.6602 5.27027 62.1061 5.27027H62.0656ZM61.9845 7.60135C62.8562 7.60135 63.4845 8.0473 63.7886 8.91892H60.1602C60.444 8.08784 61.0724 7.60135 61.944 7.60135H61.9845Z" fill="white"/>
        <path d="M75.4552 14.7973V8.91892H71.1579C70.935 8.91892 70.7525 8.73649 70.7525 8.51351C70.7525 8.29054 70.935 8.10811 71.1579 8.10811H75.4552V5.47297H70.9147C69.1917 5.47297 67.9147 6.70946 67.9147 8.41216C67.9147 10.1149 69.1917 11.3514 70.9147 11.3514H72.4147C72.6377 11.3514 72.8201 11.5338 72.8201 11.7568C72.8201 11.9797 72.6377 12.1622 72.4147 12.1622H68.0769V14.7973H75.4552Z" fill="white"/>
        <path d="M82.8974 14.7973V9.97297C82.8974 9.02027 83.6069 8.31081 84.5596 8.31081H86.0393V5.47297H84.5596C83.6069 5.47297 82.8974 4.76351 82.8974 3.81081V2.02703H79.8569V3.81081C79.8569 4.76351 79.1474 5.47297 78.1947 5.47297H76.715V8.31081H78.1947C79.1474 8.31081 79.8569 9.02027 79.8569 9.97297V14.7973H82.8974Z" fill="white"/>
        <path d="M89.0422 4.05405C90.157 4.05405 91.0692 3.14189 91.0692 2.02703C91.0692 0.912161 90.157 0 89.0422 0C87.9273 0 87.0152 0.912161 87.0152 2.02703C87.0152 3.14189 87.9273 4.05405 89.0422 4.05405ZM90.6233 14.7973V11.9595V5.47297H87.4611V8.31081V11.9595V14.7973H90.6233Z" fill="white"/>
        <path d="M97.1648 10.6419L95.1581 5.47297H91.8135L94.7527 13.0135C95.2392 14.2703 95.9689 15 97.1243 15C98.2797 15 99.0094 14.2703 99.4959 13.0135L102.435 5.47297H99.1716L97.1648 10.6419Z" fill="white"/>
        <path d="M112.016 14.7973V5.47297H107.455C104.78 5.47297 102.692 7.56081 102.692 10.1351C102.692 12.7095 104.78 14.7973 107.455 14.7973H112.016ZM107.455 11.7973C106.564 11.7973 105.834 11.0473 105.834 10.1351C105.834 9.22297 106.564 8.47297 107.455 8.47297C108.347 8.47297 109.077 9.22297 109.077 10.1351C109.077 11.0473 108.347 11.7973 107.455 11.7973Z" fill="white"/>
        <path d="M117.327 14.7973V11.6554V0.608108H114.165V3.75V11.6554V14.7973H117.327Z" fill="white"/>
        <path d="M3.47266 33V24.5449H1.70312V33H3.47266ZM4.73242 33H6.44336V29.3965C6.44336 28.582 6.92969 28.0195 7.69727 28.0195C8.46484 28.0195 8.85156 28.4883 8.85156 29.3086V33H10.5625V28.9512C10.5625 27.4805 9.77734 26.6016 8.38281 26.6016C7.41602 26.6016 6.75391 27.0586 6.41992 27.8379H6.38477V26.7188H4.73242V33ZM17.3535 26.7188H15.5664L14.2656 31.4883H14.2305L12.9238 26.7188H11.0898L13.2637 33H15.1973L17.3535 26.7188ZM20.5938 27.8496C21.3555 27.8496 21.877 28.4004 21.9121 29.2031H19.2461C19.3047 28.418 19.8438 27.8496 20.5938 27.8496ZM21.9355 31.0781C21.7773 31.5586 21.2969 31.8691 20.6699 31.8691C19.7969 31.8691 19.2285 31.2539 19.2285 30.3574V30.252H23.5586V29.7305C23.5586 27.8203 22.4043 26.584 20.5762 26.584C18.7188 26.584 17.5469 27.8848 17.5469 29.8887C17.5469 31.8984 18.707 33.1348 20.6406 33.1348C22.1934 33.1348 23.3184 32.3086 23.5059 31.0781H21.9355ZM24.3379 28.5645C24.3379 29.5078 24.9531 30.1172 26.166 30.375L27.2383 30.5977C27.8535 30.7383 28.0703 30.9258 28.0703 31.2598C28.0703 31.6699 27.6719 31.9336 27.0273 31.9336C26.3477 31.9336 25.9551 31.6406 25.8496 31.0898H24.1797C24.291 32.3262 25.293 33.1348 27.0273 33.1348C28.6445 33.1348 29.7754 32.3203 29.7754 31.084C29.7754 30.1641 29.2363 29.6484 27.9238 29.373L26.8516 29.1445C26.2188 29.0098 25.9844 28.793 25.9844 28.4707C25.9844 28.0547 26.377 27.7852 26.9688 27.7852C27.6016 27.7852 27.9824 28.1309 28.0352 28.6406H29.6113C29.5762 27.4102 28.5801 26.584 26.9688 26.584C25.3691 26.584 24.3379 27.3691 24.3379 28.5645ZM31.0762 25.2715V26.7188H30.1914V28.0078H31.0762V31.3066C31.0762 32.5312 31.6504 33.0234 33.127 33.0234C33.4727 33.0234 33.7656 32.9941 33.9414 32.9531V31.6934C33.8359 31.7109 33.6777 31.7227 33.5254 31.7227C33.0215 31.7227 32.7871 31.4941 32.7871 31.0137V28.0078H33.9473V26.7188H32.7871V25.2715H31.0762ZM34.8848 33H36.5957V29.209C36.5957 28.5059 37.0352 28.0137 37.6855 28.0137C38.3184 28.0137 38.6992 28.4121 38.6992 29.0859V33H40.3457V29.1855C40.3457 28.4883 40.7734 28.0137 41.4238 28.0137C42.0859 28.0137 42.4492 28.4121 42.4492 29.1387V33H44.1602V28.7109C44.1602 27.4453 43.334 26.6016 42.1035 26.6016C41.1836 26.6016 40.4336 27.0996 40.1523 27.8906H40.1172C39.9062 27.0703 39.2734 26.6016 38.3652 26.6016C37.5098 26.6016 36.8359 27.0996 36.5723 27.8555H36.5371V26.7188H34.8848V33ZM48.0625 27.8496C48.8242 27.8496 49.3457 28.4004 49.3809 29.2031H46.7148C46.7734 28.418 47.3125 27.8496 48.0625 27.8496ZM49.4043 31.0781C49.2461 31.5586 48.7656 31.8691 48.1387 31.8691C47.2656 31.8691 46.6973 31.2539 46.6973 30.3574V30.252H51.0273V29.7305C51.0273 27.8203 49.873 26.584 48.0449 26.584C46.1875 26.584 45.0156 27.8848 45.0156 29.8887C45.0156 31.8984 46.1758 33.1348 48.1094 33.1348C49.6621 33.1348 50.7871 32.3086 50.9746 31.0781H49.4043ZM51.9121 33H53.623V29.3965C53.623 28.582 54.1094 28.0195 54.877 28.0195C55.6445 28.0195 56.0312 28.4883 56.0312 29.3086V33H57.7422V28.9512C57.7422 27.4805 56.957 26.6016 55.5625 26.6016C54.5957 26.6016 53.9336 27.0586 53.5996 27.8379H53.5645V26.7188H51.9121V33ZM59.2832 25.2715V26.7188H58.3984V28.0078H59.2832V31.3066C59.2832 32.5312 59.8574 33.0234 61.334 33.0234C61.6797 33.0234 61.9727 32.9941 62.1484 32.9531V31.6934C62.043 31.7109 61.8848 31.7227 61.7324 31.7227C61.2285 31.7227 60.9941 31.4941 60.9941 31.0137V28.0078H62.1543V26.7188H60.9941V25.2715H59.2832ZM62.9863 28.5645C62.9863 29.5078 63.6016 30.1172 64.8145 30.375L65.8867 30.5977C66.502 30.7383 66.7188 30.9258 66.7188 31.2598C66.7188 31.6699 66.3203 31.9336 65.6758 31.9336C64.9961 31.9336 64.6035 31.6406 64.498 31.0898H62.8281C62.9395 32.3262 63.9414 33.1348 65.6758 33.1348C67.293 33.1348 68.4238 32.3203 68.4238 31.084C68.4238 30.1641 67.8848 29.6484 66.5723 29.373L65.5 29.1445C64.8672 29.0098 64.6328 28.793 64.6328 28.4707C64.6328 28.0547 65.0254 27.7852 65.6172 27.7852C66.25 27.7852 66.6309 28.1309 66.6836 28.6406H68.2598C68.2246 27.4102 67.2285 26.584 65.6172 26.584C64.0176 26.584 62.9863 27.3691 62.9863 28.5645ZM70.5273 34.8516L71.3125 31.5469H69.6836L69.2441 34.8516H70.5273ZM78.1738 33C79.9785 33 81.0977 32.0684 81.0977 30.5801C81.0977 29.4609 80.2539 28.623 79.1055 28.5352V28.4883C80.002 28.3535 80.6934 27.5801 80.6934 26.6543C80.6934 25.3594 79.6973 24.5449 78.1094 24.5449H74.4297V33H78.1738ZM76.1992 25.8633H77.6523C78.4785 25.8633 78.9531 26.25 78.9531 26.9297C78.9531 27.6445 78.4141 28.0605 77.4707 28.0605H76.1992V25.8633ZM76.1992 31.6816V29.2266H77.6816C78.7246 29.2266 79.293 29.6484 79.293 30.4395C79.293 31.248 78.7422 31.6816 77.7227 31.6816H76.1992ZM87.7598 26.7188H86.0488V30.3164C86.0488 31.1484 85.5742 31.6934 84.8125 31.6934C84.0566 31.6934 83.6406 31.248 83.6406 30.4102V26.7188H81.9297V30.7676C81.9297 32.2324 82.832 33.1172 84.1914 33.1172C85.1406 33.1172 85.7617 32.6602 86.0723 31.8691H86.1074V33H87.7598V26.7188ZM88.7676 28.5645C88.7676 29.5078 89.3828 30.1172 90.5957 30.375L91.668 30.5977C92.2832 30.7383 92.5 30.9258 92.5 31.2598C92.5 31.6699 92.1016 31.9336 91.457 31.9336C90.7773 31.9336 90.3848 31.6406 90.2793 31.0898H88.6094C88.7207 32.3262 89.7227 33.1348 91.457 33.1348C93.0742 33.1348 94.2051 32.3203 94.2051 31.084C94.2051 30.1641 93.666 29.6484 92.3535 29.373L91.2812 29.1445C90.6484 29.0098 90.4141 28.793 90.4141 28.4707C90.4141 28.0547 90.8066 27.7852 91.3984 27.7852C92.0312 27.7852 92.4121 28.1309 92.4648 28.6406H94.041C94.0059 27.4102 93.0098 26.584 91.3984 26.584C89.7988 26.584 88.7676 27.3691 88.7676 28.5645ZM95.0781 33H96.7891V26.7188H95.0781V33ZM95.9277 25.8691C96.4258 25.8691 96.8184 25.4707 96.8184 24.9902C96.8184 24.5039 96.4258 24.1113 95.9277 24.1113C95.4297 24.1113 95.0371 24.5039 95.0371 24.9902C95.0371 25.4707 95.4297 25.8691 95.9277 25.8691ZM97.9316 33H99.6426V29.3965C99.6426 28.582 100.129 28.0195 100.896 28.0195C101.664 28.0195 102.051 28.4883 102.051 29.3086V33H103.762V28.9512C103.762 27.4805 102.977 26.6016 101.582 26.6016C100.615 26.6016 99.9531 27.0586 99.6191 27.8379H99.584V26.7188H97.9316V33ZM107.664 27.8496C108.426 27.8496 108.947 28.4004 108.982 29.2031H106.316C106.375 28.418 106.914 27.8496 107.664 27.8496ZM109.006 31.0781C108.848 31.5586 108.367 31.8691 107.74 31.8691C106.867 31.8691 106.299 31.2539 106.299 30.3574V30.252H110.629V29.7305C110.629 27.8203 109.475 26.584 107.646 26.584C105.789 26.584 104.617 27.8848 104.617 29.8887C104.617 31.8984 105.777 33.1348 107.711 33.1348C109.264 33.1348 110.389 32.3086 110.576 31.0781H109.006ZM111.408 28.5645C111.408 29.5078 112.023 30.1172 113.236 30.375L114.309 30.5977C114.924 30.7383 115.141 30.9258 115.141 31.2598C115.141 31.6699 114.742 31.9336 114.098 31.9336C113.418 31.9336 113.025 31.6406 112.92 31.0898H111.25C111.361 32.3262 112.363 33.1348 114.098 33.1348C115.715 33.1348 116.846 32.3203 116.846 31.084C116.846 30.1641 116.307 29.6484 114.994 29.373L113.922 29.1445C113.289 29.0098 113.055 28.793 113.055 28.4707C113.055 28.0547 113.447 27.7852 114.039 27.7852C114.672 27.7852 115.053 28.1309 115.105 28.6406H116.682C116.646 27.4102 115.65 26.584 114.039 26.584C112.439 26.584 111.408 27.3691 111.408 28.5645ZM117.584 28.5645C117.584 29.5078 118.199 30.1172 119.412 30.375L120.484 30.5977C121.1 30.7383 121.316 30.9258 121.316 31.2598C121.316 31.6699 120.918 31.9336 120.273 31.9336C119.594 31.9336 119.201 31.6406 119.096 31.0898H117.426C117.537 32.3262 118.539 33.1348 120.273 33.1348C121.891 33.1348 123.021 32.3203 123.021 31.084C123.021 30.1641 122.482 29.6484 121.17 29.373L120.098 29.1445C119.465 29.0098 119.23 28.793 119.23 28.4707C119.23 28.0547 119.623 27.7852 120.215 27.7852C120.848 27.7852 121.229 28.1309 121.281 28.6406H122.857C122.822 27.4102 121.826 26.584 120.215 26.584C118.615 26.584 117.584 27.3691 117.584 28.5645ZM132.303 33H134.219L132.643 31.3535C133.1 30.7207 133.357 29.8301 133.357 28.7988V28.2539H131.934V28.6992C131.934 29.4258 131.834 29.9355 131.629 30.2988L130.023 28.5645C131.195 27.9258 131.734 27.2344 131.734 26.3672C131.734 25.2305 130.762 24.4336 129.379 24.4336C128.002 24.4336 126.982 25.2656 126.982 26.3965C126.982 27.0176 127.27 27.5449 128.031 28.3301C128.008 28.3418 127.738 28.4883 127.65 28.5352C126.572 29.127 126.086 29.8242 126.086 30.7852C126.086 32.2207 127.24 33.1523 129.033 33.1523C130.059 33.1523 131.025 32.8359 131.652 32.2969L132.303 33ZM128.582 29.3496C128.635 29.3203 128.752 29.2559 128.816 29.2266L130.756 31.3242C130.428 31.6816 129.818 31.9102 129.209 31.9102C128.301 31.9102 127.686 31.4062 127.686 30.6504C127.686 30.1289 127.943 29.7539 128.582 29.3496ZM129.232 27.7676C128.658 27.2109 128.447 26.877 128.447 26.4844C128.447 25.957 128.84 25.5703 129.385 25.5703C129.936 25.5703 130.311 25.9453 130.311 26.4844C130.311 26.9941 130 27.3691 129.232 27.7676ZM144.543 33V24.5449H142.773V27.9785H138.965V24.5449H137.195V33H138.965V29.4375H142.773V33H144.543ZM146.611 35.3262C148.211 35.3262 149.002 34.752 149.535 33.1406L151.697 26.7188H149.893L148.562 31.6289H148.527L147.191 26.7188H145.316L147.502 33.0059C147.508 33.0293 147.443 33.2812 147.443 33.3047C147.326 33.8027 147.016 34.002 146.395 34.002C146.33 34.002 146.02 34.002 145.961 33.9902V35.3086C146.02 35.3203 146.547 35.3262 146.611 35.3262ZM155.998 26.6191C155.09 26.6191 154.393 27.0762 154.053 27.8145H154.018V26.7188H152.33V35.0508H154.041V31.9453H154.076C154.41 32.6543 155.113 33.0996 156.027 33.0996C157.598 33.0996 158.57 31.8809 158.57 29.8594C158.57 27.832 157.592 26.6191 155.998 26.6191ZM155.424 31.7227C154.586 31.7227 154.035 30.9961 154.035 29.8594C154.035 28.7344 154.586 27.9902 155.424 27.9902C156.279 27.9902 156.818 28.7227 156.818 29.8594C156.818 31.002 156.279 31.7227 155.424 31.7227ZM162.273 27.8496C163.035 27.8496 163.557 28.4004 163.592 29.2031H160.926C160.984 28.418 161.523 27.8496 162.273 27.8496ZM163.615 31.0781C163.457 31.5586 162.977 31.8691 162.35 31.8691C161.477 31.8691 160.908 31.2539 160.908 30.3574V30.252H165.238V29.7305C165.238 27.8203 164.084 26.584 162.256 26.584C160.398 26.584 159.227 27.8848 159.227 29.8887C159.227 31.8984 160.387 33.1348 162.32 33.1348C163.873 33.1348 164.998 32.3086 165.186 31.0781H163.615ZM173.02 31.5703C174.162 31.5703 175.111 30.627 175.111 29.4844C175.111 28.3418 174.162 27.3926 173.02 27.3926C171.877 27.3926 170.934 28.3418 170.934 29.4844C170.934 30.627 171.877 31.5703 173.02 31.5703ZM182.945 33V29.6719H186.385V28.2715H182.945V26.0039H186.713V24.5449H181.176V33H182.945ZM190.258 27.8496C191.02 27.8496 191.541 28.4004 191.576 29.2031H188.91C188.969 28.418 189.508 27.8496 190.258 27.8496ZM191.6 31.0781C191.441 31.5586 190.961 31.8691 190.334 31.8691C189.461 31.8691 188.893 31.2539 188.893 30.3574V30.252H193.223V29.7305C193.223 27.8203 192.068 26.584 190.24 26.584C188.383 26.584 187.211 27.8848 187.211 29.8887C187.211 31.8984 188.371 33.1348 190.305 33.1348C191.857 33.1348 192.982 32.3086 193.17 31.0781H191.6ZM197.84 33.0996C199.422 33.0996 200.389 31.8809 200.389 29.8594C200.389 27.832 199.416 26.6191 197.834 26.6191C196.938 26.6191 196.24 27.0645 195.895 27.8086H195.859V24.5449H194.148V33H195.836V31.9219H195.871C196.217 32.6543 196.92 33.0996 197.84 33.0996ZM197.248 27.9902C198.098 27.9902 198.637 28.7168 198.637 29.8594C198.637 31.0078 198.104 31.7227 197.248 31.7227C196.416 31.7227 195.854 30.9961 195.854 29.8594C195.854 28.7344 196.422 27.9902 197.248 27.9902ZM203.6 27.1172H205.24C205.24 26.3027 205.879 25.7344 206.723 25.7344C207.484 25.7344 208.006 26.25 208.006 26.9297C208.006 27.5156 207.766 27.9199 206.693 28.9512L203.699 31.7871V33H209.846V31.5938H206.014V31.5586L207.789 29.8594C209.219 28.4941 209.729 27.8555 209.729 26.8184C209.729 25.4121 208.533 24.3574 206.723 24.3574C204.889 24.3574 203.6 25.4883 203.6 27.1172ZM210.842 27.1172H212.482C212.482 26.3027 213.121 25.7344 213.965 25.7344C214.727 25.7344 215.248 26.25 215.248 26.9297C215.248 27.5156 215.008 27.9199 213.936 28.9512L210.941 31.7871V33H217.088V31.5938H213.256V31.5586L215.031 29.8594C216.461 28.4941 216.971 27.8555 216.971 26.8184C216.971 25.4121 215.775 24.3574 213.965 24.3574C212.131 24.3574 210.842 25.4883 210.842 27.1172Z" fill="#A5F981"/>
    </g>
    <defs>
        <clipPath id="clip0_2_794">
            <rect width="219" height="35" fill="white"/>
        </clipPath>
    </defs>
</svg>
