<svg width="76" height="32" viewBox="0 0 76 32" fill="none" xmlns="http://www.w3.org/2000/svg">
    <path d="M12.6582 17.5859C12.7109 19.1797 14.0527 20.1465 16.0684 20.1465C18.1836 20.1465 19.4785 19.0977 19.4785 17.4453C19.4785 16.1621 18.6992 15.4414 16.9121 15.084L16.0156 14.9023C15.0195 14.7031 14.6094 14.3809 14.6094 13.8594C14.6094 13.2383 15.1953 12.8281 16.0684 12.8281C16.959 12.8281 17.5859 13.2617 17.6445 13.9824H19.3145C19.2852 12.4297 18.043 11.3984 16.0684 11.3984C14.1875 11.3984 12.8398 12.4238 12.8398 13.9707C12.8398 15.2305 13.666 16.0391 15.3535 16.373L16.2441 16.5488C17.3047 16.7656 17.7031 17.082 17.7031 17.6387C17.7031 18.2598 17.0586 18.7168 16.1152 18.7168C15.1543 18.7168 14.4395 18.2949 14.3281 17.5859H12.6582ZM26.123 16.0566C26.0469 14.6328 24.9688 13.584 23.2695 13.584C21.3887 13.584 20.1875 14.8379 20.1875 16.8535C20.1875 18.9043 21.3887 20.1348 23.2812 20.1348C24.9336 20.1348 26.041 19.1797 26.1289 17.6973H24.5352C24.4297 18.3828 23.9844 18.793 23.2988 18.793C22.4492 18.793 21.9219 18.0898 21.9219 16.8535C21.9219 15.6406 22.4492 14.9258 23.293 14.9258C23.9961 14.9258 24.4355 15.3945 24.5352 16.0566H26.123ZM26.9961 20H28.707V16.4141C28.707 15.5879 29.1816 15.0195 29.9902 15.0195C30.7695 15.0195 31.168 15.5117 31.168 16.3203V20H32.8789V15.957C32.8789 14.5039 32.082 13.6016 30.6875 13.6016C29.7324 13.6016 29.0469 14.0469 28.7129 14.8379H28.6777V11.5449H26.9961V20ZM36.793 14.8496C37.5547 14.8496 38.0762 15.4004 38.1113 16.2031H35.4453C35.5039 15.418 36.043 14.8496 36.793 14.8496ZM38.1348 18.0781C37.9766 18.5586 37.4961 18.8691 36.8691 18.8691C35.9961 18.8691 35.4277 18.2539 35.4277 17.3574V17.252H39.7578V16.7305C39.7578 14.8203 38.6035 13.584 36.7754 13.584C34.918 13.584 33.7461 14.8848 33.7461 16.8887C33.7461 18.8984 34.9062 20.1348 36.8398 20.1348C38.3926 20.1348 39.5176 19.3086 39.7051 18.0781H38.1348ZM42.9746 20.0996C43.9004 20.0996 44.627 19.6133 44.9316 18.9219H44.9609V20H46.6484V11.5449H44.9375V14.7969H44.9023C44.5977 14.0996 43.8945 13.6191 42.9863 13.6191C41.4102 13.6191 40.4141 14.8555 40.4141 16.8477C40.4141 18.8574 41.4043 20.0996 42.9746 20.0996ZM43.5547 14.9902C44.4043 14.9902 44.9492 15.7168 44.9492 16.8594C44.9492 18.0078 44.4043 18.7227 43.5547 18.7227C42.6934 18.7227 42.166 18.0137 42.166 16.8594C42.166 15.7109 42.6934 14.9902 43.5547 14.9902ZM53.5918 13.7188H51.8809V17.3164C51.8809 18.1484 51.4062 18.6934 50.6445 18.6934C49.8887 18.6934 49.4727 18.248 49.4727 17.4102V13.7188H47.7617V17.7676C47.7617 19.2324 48.6641 20.1172 50.0234 20.1172C50.9727 20.1172 51.5938 19.6602 51.9043 18.8691H51.9395V20H53.5918V13.7188ZM54.7461 20H56.457V11.5449H54.7461V20ZM60.4297 14.8496C61.1914 14.8496 61.7129 15.4004 61.748 16.2031H59.082C59.1406 15.418 59.6797 14.8496 60.4297 14.8496ZM61.7715 18.0781C61.6133 18.5586 61.1328 18.8691 60.5059 18.8691C59.6328 18.8691 59.0645 18.2539 59.0645 17.3574V17.252H63.3945V16.7305C63.3945 14.8203 62.2402 13.584 60.4121 13.584C58.5547 13.584 57.3828 14.8848 57.3828 16.8887C57.3828 18.8984 58.543 20.1348 60.4766 20.1348C62.0293 20.1348 63.1543 19.3086 63.3418 18.0781H61.7715Z" fill="white"/>
    <rect x="1" y="1" width="74" height="30" rx="15" stroke="url(#paint0_linear_75_738)" stroke-width="2"/>
    <defs>
        <linearGradient id="paint0_linear_75_738" x1="12.1144" y1="3.21646e-05" x2="70.3236" y2="3.17336" gradientUnits="userSpaceOnUse">
            <stop stop-color="#FA690D"/>
            <stop offset="0.510417" stop-color="#F843A3"/>
            <stop offset="1" stop-color="#A203F9"/>
        </linearGradient>
    </defs>
</svg>
