<svg width="33" height="28" viewBox="0 0 33 28" fill="white" xmlns="http://www.w3.org/2000/svg">
    <path fill-rule="evenodd" clip-rule="evenodd" d="M13.1667 7.18965C13.1667 3.3529 17.0137 0.666687 21.1667 0.666687C25.3196 0.666687 29.1667 3.3529 29.1667 7.18965C29.1667 9.95487 28.5968 12.7143 27.6025 14.9897C28.0941 15.1917 28.6723 15.4558 29.2517 15.7895C30.6265 16.5811 32.5 18.0536 32.5 20.4215C32.5 22.8751 31.3323 25.4625 28.6332 26.2915C26.8268 26.8462 24.3168 27.3334 21.1667 27.3334C18.0165 27.3334 15.5065 26.8463 13.7002 26.2915C11.0011 25.4625 9.83333 22.875 9.83333 20.4215C9.83333 18.0506 11.7073 16.5775 13.0834 15.7859C13.662 15.4531 14.2392 15.1897 14.7302 14.9884C13.7363 12.7132 13.1667 9.95431 13.1667 7.18965ZM16.0353 17.3389C15.5531 17.5253 14.9721 17.7759 14.4131 18.0974C13.1657 18.815 12.5 19.6019 12.5 20.4215C12.5 22.1547 13.282 23.3735 14.4831 23.7423C16.0464 24.2225 18.2928 24.6667 21.1667 24.6667C24.0404 24.6667 26.2868 24.2225 27.8503 23.7423C29.0514 23.3734 29.8333 22.1547 29.8333 20.4215C29.8333 19.6053 29.169 18.819 27.9211 18.1004C27.3616 17.7783 26.7801 17.527 26.2973 17.34C25.0383 19.1262 23.3046 20.4762 21.1667 20.4762C19.0283 20.4762 17.2944 19.1256 16.0353 17.3389ZM26.3034 14.502L26.3114 14.5053C26.3058 14.5031 26.3034 14.502 26.3034 14.502ZM16.0239 14.5044L16.0323 14.5009L16.0309 14.5015L16.0239 14.5044ZM21.1667 3.33335C17.8567 3.33335 15.8333 5.38492 15.8333 7.18965C15.8333 10.0199 16.5196 12.7872 17.6014 14.8036C18.7211 16.8905 20.0393 17.8095 21.1667 17.8095C22.2941 17.8095 23.6123 16.8905 24.7319 14.8036C25.8138 12.7872 26.5 10.0199 26.5 7.18965C26.5 5.38492 24.4767 3.33335 21.1667 3.33335Z"/>
    <path d="M5.83333 6.00002C6.56971 6.00002 7.16667 6.59697 7.16667 7.33335V10H9.83333C10.5697 10 11.1667 10.597 11.1667 11.3334C11.1667 12.0697 10.5697 12.6667 9.83333 12.6667H7.16667V15.3334C7.16667 16.0697 6.56971 16.6667 5.83333 16.6667C5.09695 16.6667 4.5 16.0697 4.5 15.3334V12.6667H1.83333C1.09695 12.6667 0.5 12.0697 0.5 11.3334C0.5 10.597 1.09695 10 1.83333 10H4.5V7.33335C4.5 6.59697 5.09695 6.00002 5.83333 6.00002Z"/>
</svg>