<svg width="16" height="16" viewBox="0 0 16 16" fill="black" xmlns="http://www.w3.org/2000/svg">
    <path fill-rule="evenodd" d="M7.99983 2.69995C7.58544 2.69995 7.24951 3.03588 7.24951 3.45027V7.24976H3.45027C3.03588 7.24976 2.69995 7.58569 2.69995 8.00007C2.69995 8.41446 3.03588 8.75039 3.45027 8.75039H7.24951V12.5496C7.24951 12.964 7.58544 13.3 7.99983 13.3C8.41422 13.3 8.75014 12.964 8.75014 12.5496V8.75039H12.5496C12.964 8.75039 13.3 8.41446 13.3 8.00007C13.3 7.58569 12.964 7.24976 12.5496 7.24976H8.75014V3.45027C8.75014 3.03588 8.41422 2.69995 7.99983 2.69995Z" />
</svg>
