<svg width="26" height="26" viewBox="0 0 26 26" fill="none" xmlns="http://www.w3.org/2000/svg">
    <path fill-rule="evenodd" clip-rule="evenodd" d="M9.06689 5C7.56581 5 6.18368 5.45277 5.1542 6.22458C4.12635 6.99516 3.40023 8.13225 3.40023 9.45975C3.40023 11.2715 3.781 13.0801 4.44931 14.5904C4.12786 14.7193 3.76126 14.8826 3.39352 15.0841C2.44459 15.6039 1.06689 16.6115 1.06689 18.281C1.06689 19.9789 1.9201 21.7447 3.83363 22.3044C5.10075 22.675 6.85991 23 9.06689 23C11.2738 23 13.033 22.675 14.3002 22.3044C16.2137 21.7447 17.0669 19.9789 17.0669 18.281C17.0669 16.6134 15.6894 15.6063 14.7415 15.0865C14.3732 14.8845 14.0059 14.7206 13.6841 14.5913C14.3526 13.0809 14.7336 11.2719 14.7336 9.45975C14.7336 8.13225 14.0074 6.99516 12.9796 6.22458C11.9501 5.45277 10.568 5 9.06689 5ZM4.35445 16.8381C4.73368 16.6304 5.12833 16.4669 5.46029 16.344C6.35327 17.5363 7.57394 18.4286 9.06689 18.4286C10.5595 18.4286 11.78 17.5366 12.673 16.3447C13.0053 16.4681 13.4003 16.632 13.7799 16.8401C14.6678 17.327 15.0669 17.8258 15.0669 18.281C15.0669 19.3742 14.5553 20.1459 13.7387 20.3848C12.647 20.7041 11.0767 21 9.06689 21C7.05702 21 5.48676 20.7041 4.3951 20.3848C3.57852 20.146 3.06689 19.3742 3.06689 18.281C3.06689 17.8235 3.46691 17.3243 4.35445 16.8381ZM12.6715 14.2253L12.678 14.2279C12.6735 14.2261 12.6715 14.2253 12.6715 14.2253ZM5.45733 14.2272L5.46399 14.2246C5.46399 14.2246 5.46204 14.2254 5.45733 14.2272ZM5.40023 9.45975C5.40023 8.90676 5.70142 8.31397 6.3539 7.8248C7.00475 7.33686 7.95596 7 9.06689 7C10.1778 7 11.129 7.33686 11.7799 7.8248C12.4324 8.31397 12.7336 8.90676 12.7336 9.45975C12.7336 11.3223 12.259 13.1422 11.5138 14.4652C10.7454 15.8291 9.84362 16.4286 9.06689 16.4286C8.29017 16.4286 7.38841 15.8291 6.62003 14.4652C5.87475 13.1422 5.40023 11.3223 5.40023 9.45975Z" fill="#3B598D"/>
    <path fill-rule="evenodd" clip-rule="evenodd" d="M16.7164 9.01687C16.6615 8.31489 16.4781 7.66442 16.2026 7.07396C16.4869 7.02518 16.7766 7 17.0669 7C19.2488 7 21.4003 8.42244 21.4003 10.5948C21.4003 11.8968 21.1556 13.2006 20.718 14.3195C20.8956 14.401 21.0852 14.4961 21.2758 14.6059C21.979 15.0108 23.0669 15.8328 23.0669 17.2108C23.0669 18.5276 22.4349 19.9924 20.898 20.4644C20.2684 20.6577 19.4776 20.8339 18.5356 20.9281C18.8218 20.2498 18.9858 19.5361 19.0433 18.8453C19.5375 18.7644 19.961 18.66 20.3109 18.5525C20.7242 18.4256 21.0669 17.9873 21.0669 17.2108C21.0669 16.9966 20.8859 16.6892 20.2778 16.3391C20.1012 16.2374 19.9181 16.15 19.7458 16.0761C19.4938 16.4003 19.2061 16.6961 18.8834 16.9375C18.6817 16.2264 18.3318 15.6263 17.9265 15.127C18.1322 14.9217 18.3464 14.6346 18.5558 14.2442C19.0678 13.29 19.4003 11.9616 19.4003 10.5948C19.4003 9.94646 18.6166 9 17.0669 9C16.9454 9 16.8285 9.00583 16.7164 9.01687ZM19.755 13.9399C19.755 13.9399 19.7588 13.9413 19.765 13.9439C19.7578 13.9411 19.755 13.9399 19.755 13.9399Z" fill="#3B598D"/>
    <circle cx="19" cy="7" r="6" fill="#5DC56E" stroke="white" stroke-width="2"/>
</svg>
