<svg width="24" height="24" viewBox="0 0 24 24" fill="#3B598D" xmlns="http://www.w3.org/2000/svg">
    <path fill-rule="evenodd" clip-rule="evenodd"
          d="M9.06689 3C7.56581 3 6.18368 3.45277 5.1542 4.22458C4.12635 4.99516 3.40023 6.13225 3.40023 7.45975C3.40023 9.27151 3.781 11.0801 4.44931 12.5904C4.12786 12.7193 3.76126 12.8826 3.39352 13.0841C2.44459 13.6039 1.06689 14.6115 1.06689 16.281C1.06689 17.9789 1.9201 19.7447 3.83363 20.3044C5.10075 20.675 6.85991 21 9.06689 21C11.2738 21 13.033 20.675 14.3002 20.3044C16.2137 19.7447 17.0669 17.9789 17.0669 16.281C17.0669 14.6134 15.6894 13.6063 14.7415 13.0865C14.3732 12.8845 14.0059 12.7206 13.6841 12.5913C14.3526 11.0809 14.7336 9.2719 14.7336 7.45975C14.7336 6.13225 14.0074 4.99516 12.9796 4.22458C11.9501 3.45277 10.568 3 9.06689 3ZM4.35445 14.8381C4.73368 14.6304 5.12833 14.4669 5.46029 14.344C6.35327 15.5363 7.57394 16.4286 9.06689 16.4286C10.5595 16.4286 11.78 15.5366 12.673 14.3447C13.0053 14.4681 13.4003 14.632 13.7799 14.8401C14.6678 15.327 15.0669 15.8258 15.0669 16.281C15.0669 17.3742 14.5553 18.1459 13.7387 18.3848C12.647 18.7041 11.0767 19 9.06689 19C7.05702 19 5.48676 18.7041 4.3951 18.3848C3.57852 18.146 3.06689 17.3742 3.06689 16.281C3.06689 15.8235 3.46691 15.3243 4.35445 14.8381ZM12.6715 12.2253L12.678 12.2279C12.6735 12.2261 12.6715 12.2253 12.6715 12.2253ZM5.45733 12.2272L5.46399 12.2246C5.46399 12.2246 5.46204 12.2254 5.45733 12.2272ZM5.40023 7.45975C5.40023 6.90676 5.70142 6.31397 6.3539 5.8248C7.00475 5.33686 7.95596 5 9.06689 5C10.1778 5 11.129 5.33686 11.7799 5.8248C12.4324 6.31397 12.7336 6.90676 12.7336 7.45975C12.7336 9.32226 12.259 11.1422 11.5138 12.4652C10.7454 13.8291 9.84362 14.4286 9.06689 14.4286C8.29017 14.4286 7.38841 13.8291 6.62003 12.4652C5.87475 11.1422 5.40023 9.32226 5.40023 7.45975Z"
    />
    <path fill-rule="evenodd" clip-rule="evenodd"
          d="M16.7164 7.01687C16.6615 6.31489 16.4781 5.66442 16.2026 5.07396C16.4869 5.02518 16.7766 5 17.0669 5C19.2488 5 21.4003 6.42244 21.4003 8.59482C21.4003 9.89676 21.1556 11.2006 20.718 12.3195C20.8956 12.401 21.0852 12.4961 21.2758 12.6059C21.979 13.0108 23.0669 13.8328 23.0669 15.2108C23.0669 16.5276 22.4349 17.9924 20.898 18.4644C20.2684 18.6577 19.4776 18.8339 18.5356 18.9281C18.8218 18.2498 18.9858 17.5361 19.0433 16.8453C19.5375 16.7644 19.961 16.66 20.3109 16.5525C20.7242 16.4256 21.0669 15.9873 21.0669 15.2108C21.0669 14.9966 20.8859 14.6892 20.2778 14.3391C20.1012 14.2374 19.9181 14.15 19.7458 14.0761C19.4938 14.4003 19.2061 14.6961 18.8834 14.9375C18.6817 14.2264 18.3318 13.6263 17.9265 13.127C18.1322 12.9217 18.3464 12.6346 18.5558 12.2442C19.0678 11.29 19.4003 9.96158 19.4003 8.59482C19.4003 7.94646 18.6166 7 17.0669 7C16.9454 7 16.8285 7.00583 16.7164 7.01687ZM19.755 11.9399C19.755 11.9399 19.7588 11.9413 19.765 11.9439C19.7578 11.9411 19.755 11.9399 19.755 11.9399Z"
    />
</svg>
