<svg width="16" height="16" viewBox="0 0 16 16" fill="none" xmlns="http://www.w3.org/2000/svg">
<path d="M2.93989 2L2 2.93989L13.0599 13.9998L13.9998 13.0599L2.93989 2Z" fill="white"/>
<path d="M5.70996 2.8845L6.87916 4.05369C7.22689 4.01803 7.58586 4.00003 7.95648 4.00003C10.5238 4.00003 12.6136 4.86475 14.1916 6.46771C14.4499 6.7301 14.872 6.73342 15.1343 6.47513C15.3967 6.21684 15.4001 5.79474 15.1418 5.53235C13.2921 3.65329 10.8498 2.6667 7.95648 2.6667C7.16741 2.6667 6.41884 2.74 5.70996 2.8845Z" fill="white"/>
<path d="M0.858119 5.53246C1.16913 5.21636 1.49455 4.92542 1.83457 4.66012L2.78573 5.61128C2.4432 5.86756 2.11781 6.15327 1.80855 6.46759C1.55032 6.73005 1.12822 6.73347 0.865769 6.47524C0.603315 6.21701 0.59989 5.79492 0.858119 5.53246Z" fill="white"/>
<path d="M2.86168 7.52888C3.17377 7.21646 3.50067 6.92925 3.84718 6.67273L4.80245 7.628C4.45251 7.86994 4.12302 8.15282 3.80498 8.47119C3.54477 8.73168 3.12266 8.7319 2.86218 8.47168C2.60169 8.21147 2.60147 7.78936 2.86168 7.52888Z" fill="white"/>
<path d="M9.73977 6.9143L8.1594 5.33394C10.2972 5.37526 11.8468 6.23596 13.1383 7.52888C13.3985 7.78936 13.3983 8.21147 13.1378 8.47168C12.8773 8.7319 12.4552 8.73168 12.195 8.47119C11.4724 7.74779 10.6884 7.20742 9.73977 6.9143Z" fill="white"/>
<path d="M9.32494 12.1505L7.84954 10.6751C7.18399 10.7498 6.66667 11.3145 6.66667 12C6.66667 12.7364 7.26362 13.3334 8 13.3334C8.68551 13.3334 9.25019 12.816 9.32494 12.1505Z" fill="white"/>
<path d="M5.78666 8.61221L6.77537 9.60092C6.40112 9.76724 6.07569 9.99872 5.84398 10.2594C5.59936 10.5346 5.17798 10.5594 4.90279 10.3148C4.6276 10.0701 4.60282 9.64876 4.84743 9.37357C5.10575 9.08297 5.42584 8.82442 5.78666 8.61221Z" fill="white"/>
</svg>
