<svg width="24" height="24" viewBox="0 0 24 24" fill="black" xmlns="http://www.w3.org/2000/svg">
    <path fill-rule="evenodd" clip-rule="evenodd" d="M10 5C9.44772 5 9 5.44772 9 6H15C15 5.44772 14.5523 5 14 5H10ZM17 6C17 4.34315 15.6569 3 14 3H10C8.34315 3 7 4.34315 7 6H4C3.44772 6 3 6.44772 3 7C3 7.55228 3.44772 8 4 8H20C20.5523 8 21 7.55228 21 7C21 6.44772 20.5523 6 20 6H17ZM6 9C6.55228 9 7 9.44772 7 10V18C7 18.5523 7.44772 19 8 19H16C16.5523 19 17 18.5523 17 18V10C17 9.44772 17.4477 9 18 9C18.5523 9 19 9.44772 19 10V18C19 19.6569 17.6569 21 16 21H8C6.34315 21 5 19.6569 5 18V10C5 9.44772 5.44772 9 6 9ZM10 10C10.5523 10 11 10.4477 11 11V16C11 16.5523 10.5523 17 10 17C9.44772 17 9 16.5523 9 16V11C9 10.4477 9.44772 10 10 10ZM14 10C14.5523 10 15 10.4477 15 11V16C15 16.5523 14.5523 17 14 17C13.4477 17 13 16.5523 13 16V11C13 10.4477 13.4477 10 14 10Z"/>
</svg>
