<svg width="65" height="64" viewBox="0 0 65 64" fill="white" xmlns="http://www.w3.org/2000/svg">
    <path fill-rule="evenodd" clip-rule="evenodd" d="M16.5 5.33334C17.9728 5.33334 19.1667 6.52725 19.1667 8.00001V10.6667H24.5V8.00001C24.5 6.52725 25.6939 5.33334 27.1667 5.33334C28.6395 5.33334 29.8334 6.52725 29.8334 8.00001V10.6667H35.1667V8.00001C35.1667 6.52725 36.3606 5.33334 37.8334 5.33334C39.3061 5.33334 40.5 6.52725 40.5 8.00001V10.6667H45.8334V8.00001C45.8334 6.52725 47.0273 5.33334 48.5 5.33334C49.9728 5.33334 51.1667 6.52725 51.1667 8.00001V10.6667C55.585 10.6667 59.1667 14.2484 59.1667 18.6667V50.6667C59.1667 55.085 55.585 58.6667 51.1667 58.6667H13.8334C9.4151 58.6667 5.83337 55.085 5.83337 50.6667V18.6667C5.83337 14.2484 9.4151 10.6667 13.8334 10.6667V8.00001C13.8334 6.52725 15.0273 5.33334 16.5 5.33334ZM13.8334 16C12.3606 16 11.1667 17.1939 11.1667 18.6667V24H53.8334V18.6667C53.8334 17.1939 52.6395 16 51.1667 16C51.1667 17.4728 49.9728 18.6667 48.5 18.6667C47.0273 18.6667 45.8334 17.4728 45.8334 16H40.5C40.5 17.4728 39.3061 18.6667 37.8334 18.6667C36.3606 18.6667 35.1667 17.4728 35.1667 16H29.8334C29.8334 17.4728 28.6395 18.6667 27.1667 18.6667C25.6939 18.6667 24.5 17.4728 24.5 16H19.1667C19.1667 17.4728 17.9728 18.6667 16.5 18.6667C15.0273 18.6667 13.8334 17.4728 13.8334 16ZM53.8334 29.3333H11.1667V50.6667C11.1667 52.1394 12.3606 53.3333 13.8334 53.3333H51.1667C52.6395 53.3333 53.8334 52.1394 53.8334 50.6667V29.3333Z"/>
</svg>