<svg width="24" height="24" viewBox="0 0 24 24" fill="#3B598D" xmlns="http://www.w3.org/2000/svg">
    <path fill-rule="evenodd" clip-rule="evenodd"
          d="M6 2C6.55228 2 7 2.44772 7 3V4H9V3C9 2.44772 9.44772 2 10 2C10.5523 2 11 2.44772 11 3V4H13V3C13 2.44772 13.4477 2 14 2C14.5523 2 15 2.44772 15 3V4H17V3C17 2.44772 17.4477 2 18 2C18.5523 2 19 2.44772 19 3V4C20.6569 4 22 5.34315 22 7V19C22 20.6569 20.6569 22 19 22H5C3.34315 22 2 20.6569 2 19V7C2 5.34315 3.34315 4 5 4V3C5 2.44772 5.44772 2 6 2ZM5 6C4.44772 6 4 6.44772 4 7V9H20V7C20 6.44772 19.5523 6 19 6C19 6.55228 18.5523 7 18 7C17.4477 7 17 6.55228 17 6H15C15 6.55228 14.5523 7 14 7C13.4477 7 13 6.55228 13 6H11C11 6.55228 10.5523 7 10 7C9.44772 7 9 6.55228 9 6H7C7 6.55228 6.55228 7 6 7C5.44772 7 5 6.55228 5 6ZM20 11H4V19C4 19.5523 4.44772 20 5 20H19C19.5523 20 20 19.5523 20 19V11Z"
/>
</svg>
