<svg width="24" height="24" viewBox="0 0 24 24" fill="black" xmlns="http://www.w3.org/2000/svg">
    <path d="M4.26526 2.99878L2.9978 4.26623L19.7335 21.0019L21.001 19.7345L4.26526 2.99878Z"/>
    <path d="M14 9.90504V8.34242C14 7.80436 13.843 7.51235 13.6645 7.3462C13.4755 7.17025 13.1165 7.00006 12.4612 7.00006H11.095L9.09503 5.00006H12.4612C13.4468 5.00006 14.3571 5.25845 15.0273 5.88237C15.6039 6.41917 15.9016 7.13207 15.9792 7.91322L18.0684 6.539C18.526 6.23219 19.1133 6.00006 19.7164 6.00006C20.2841 6.00006 20.8473 6.15872 21.2881 6.5247C21.7437 6.90302 22 7.45006 22 8.05469V15.9454C22 16.4815 21.7985 16.9723 21.4353 17.3404L20 15.905V8.05629C19.9722 8.03935 19.8886 8.00006 19.7164 8.00006C19.6051 8.00006 19.3984 8.05466 19.1801 8.20153L19.1715 8.20734L16 10.2934V11.905L14 9.90504Z"/>
    <path d="M2.46968 6.56648C2.15859 7.07838 2 7.68399 2 8.34242V15.6651C2 16.636 2.33001 17.513 3.03145 18.135C3.71639 18.7423 4.63532 19.0001 5.62041 19.0001H12.3796C13.1227 19.0001 13.8281 18.8534 14.4239 18.5207L12.8669 16.9637C12.7236 16.9869 12.5618 17.0001 12.3796 17.0001H5.62041C4.96468 17.0001 4.5734 16.8292 4.35835 16.6385C4.15979 16.4625 4 16.172 4 15.6651V8.34242C4 8.25967 4.00468 8.18243 4.0135 8.11031L2.46968 6.56648Z"/>
    <path d="M7 12.0001C7 11.7327 7.05246 11.4776 7.14766 11.2445L9.7556 13.8524C9.52248 13.9476 9.26737 14.0001 9 14.0001C7.89543 14.0001 7 13.1046 7 12.0001Z"/>
</svg>
