<svg width="24" height="24" viewBox="0 0 24 24" fill="black" xmlns="http://www.w3.org/2000/svg">
    <path d="M9 14C10.1046 14 11 13.1046 11 12C11 10.8954 10.1046 10 9 10C7.89543 10 7 10.8954 7 12C7 13.1046 7.89543 14 9 14Z"
          />
    <path fill-rule="evenodd" clip-rule="evenodd"
          d="M5.62041 5C4.66236 5 3.75181 5.26253 3.06566 5.86015C2.36222 6.47283 2 7.34727 2 8.34236V15.665C2 16.6359 2.33001 17.513 3.03145 18.1349C3.71639 18.7423 4.63532 19 5.62041 19H12.3796C13.3647 19 14.2836 18.7423 14.9685 18.1349C15.5679 17.6034 15.8961 16.8857 15.9789 16.0823L18.0677 17.4606C18.5254 17.7676 19.113 18 19.7164 18C20.2841 18 20.8473 17.8413 21.2881 17.4754C21.7437 17.097 22 16.55 22 15.9454V8.05463C22 7.45 21.7437 6.90296 21.2881 6.52464C20.8473 6.15866 20.2841 6 19.7164 6C19.1133 6 18.526 6.23213 18.0684 6.53894L15.9792 7.91316C15.9016 7.13201 15.6039 6.41911 15.0273 5.88231C14.3571 5.25839 13.4468 5 12.4612 5H5.62041ZM13.6645 7.34614C13.843 7.51229 14 7.8043 14 8.34236V15.665C14 16.172 13.8402 16.4624 13.6417 16.6385C13.4266 16.8292 13.0353 17 12.3796 17H5.62041C4.96468 17 4.5734 16.8292 4.35835 16.6385C4.15979 16.4624 4 16.172 4 15.665V8.34236C4 7.85224 4.16431 7.5555 4.37923 7.3683C4.61145 7.16604 5.01111 7 5.62041 7H12.4612C13.1165 7 13.4755 7.17019 13.6645 7.34614ZM19.1801 15.7985L16 13.7V10.2933L19.1715 8.20728L19.1801 8.20147C19.3984 8.0546 19.6051 8 19.7164 8C19.8886 8 19.9722 8.03929 20 8.05623V15.9438C19.9722 15.9607 19.8886 16 19.7164 16C19.6051 16 19.3984 15.9454 19.1801 15.7985Z"
          />
</svg>
