<svg width="24" height="24" viewBox="0 0 24 24" fill="#212121" xmlns="http://www.w3.org/2000/svg">
    <path fill-rule="evenodd" clip-rule="evenodd"
          d="M9 4C7.34315 4 6 5.34315 6 7H4C2.89543 7 2 7.89543 2 9V20C2 21.1046 2.89543 22 4 22H20C21.1046 22 22 21.1046 22 20V9C22 7.89543 21.1046 7 20 7H18C18 5.34315 16.6569 4 15 4H9ZM8 7C8 6.44772 8.44772 6 9 6H15C15.5523 6 16 6.44772 16 7V9H20V20H4V9H8V7Z"
          />
    <path fill-rule="evenodd" clip-rule="evenodd"
          d="M12 11C10.3431 11 9 12.3431 9 14C9 15.6569 10.3431 17 12 17C13.6569 17 15 15.6569 15 14C15 12.3431 13.6569 11 12 11ZM7 14C7 11.2386 9.23858 9 12 9C14.7614 9 17 11.2386 17 14C17 16.7614 14.7614 19 12 19C9.23858 19 7 16.7614 7 14Z"
          />
</svg>
