<svg width="23" height="23" viewBox="0 0 23 23" fill="#4D7DD0" xmlns="http://www.w3.org/2000/svg">
    <path fill-rule="evenodd" clip-rule="evenodd"
          d="M5.65685 5.65685C2.53266 8.78105 2.53266 13.8464 5.65685 16.9706C8.78105 20.0948 13.8464 20.0948 16.9706 16.9706C20.0948 13.8464 20.0948 8.78105 16.9706 5.65685C13.8464 2.53266 8.78105 2.53266 5.65685 5.65685ZM6.32107 11.3137C6.32107 10.8995 6.65685 10.5637 7.07107 10.5637H10.5637L10.5637 7.07107C10.5637 6.65685 10.8995 6.32107 11.3137 6.32106C11.7279 6.32107 12.0637 6.65685 12.0637 7.07106L12.0637 10.5637L15.5563 10.5637C15.9706 10.5637 16.3063 10.8995 16.3063 11.3137C16.3063 11.7279 15.9706 12.0637 15.5563 12.0637L12.0637 12.0637L12.0637 15.5563C12.0637 15.9706 11.7279 16.3063 11.3137 16.3063C10.8995 16.3063 10.5637 15.9706 10.5637 15.5563L10.5637 12.0637H7.07107C6.65685 12.0637 6.32107 11.7279 6.32107 11.3137Z"
          />
</svg>
