<svg width="16" height="16" viewBox="0 0 16 16" fill="none" xmlns="http://www.w3.org/2000/svg">
<path fill-rule="evenodd" clip-rule="evenodd" d="M5.51516 5.52527C5.51516 4.1306 6.64576 3 8.04043 3C9.4351 3 10.5657 4.1306 10.5657 5.52527V6.33924C11.4025 6.33924 12.0809 7.0176 12.0809 7.8544V10.4747C12.0809 11.8694 10.9503 13 9.55559 13H6.52527C5.1306 13 4 11.8694 4 10.4747L4 7.8544C4 7.0176 4.67836 6.33924 5.51516 6.33924V5.52527ZM6.52527 6.33924H9.55559V5.52527C9.55559 4.68847 8.87723 4.01011 8.04043 4.01011C7.20363 4.01011 6.52527 4.68847 6.52527 5.52527V6.33924Z" fill="white"/>
</svg>
