<svg width="24" height="24" viewBox="0 0 24 24" fill="black" xmlns="http://www.w3.org/2000/svg">
    <path fill-rule="evenodd" clip-rule="evenodd"
          d="M7 6C7 3.23858 9.23858 1 12 1C14.7614 1 17 3.23858 17 6V9C18.6569 9 20 10.3431 20 12V18C20 20.7614 17.7614 23 15 23H9C6.23858 23 4 20.7614 4 18V12C4 10.3431 5.34315 9 7 9V6ZM9 9H15V6C15 4.34315 13.6569 3 12 3C10.3431 3 9 4.34315 9 6V9ZM7 11C6.44772 11 6 11.4477 6 12V18C6 19.6569 7.34315 21 9 21H15C16.6569 21 18 19.6569 18 18V12C18 11.4477 17.5523 11 17 11H7ZM10 16C10 14.8954 10.8954 14 12 14C13.1046 14 14 14.8954 14 16C14 17.1046 13.1046 18 12 18C10.8954 18 10 17.1046 10 16Z"
          />
</svg>
