<svg width="16" height="16" viewBox="0 0 16 16" fill="none" xmlns="http://www.w3.org/2000/svg">
<path fill-rule="evenodd" clip-rule="evenodd" d="M8 0C3.58172 0 0 3.58172 0 8C0 12.4183 3.58172 16 8 16C12.4183 16 16 12.4183 16 8C16 3.58172 12.4183 0 8 0ZM4.46967 4.46967C4.76256 4.17678 5.23744 4.17678 5.53033 4.46967L8 6.93934L10.4697 4.46967C10.7626 4.17678 11.2374 4.17678 11.5303 4.46967C11.8232 4.76256 11.8232 5.23744 11.5303 5.53033L9.06066 8L11.5303 10.4697C11.8232 10.7626 11.8232 11.2374 11.5303 11.5303C11.2374 11.8232 10.7626 11.8232 10.4697 11.5303L8 9.06066L5.53033 11.5303C5.23744 11.8232 4.76256 11.8232 4.46967 11.5303C4.17678 11.2374 4.17678 10.7626 4.46967 10.4697L6.93934 8L4.46967 5.53033C4.17678 5.23744 4.17678 4.76256 4.46967 4.46967Z" fill="black" fill-opacity="0.32"/>
</svg>
