<svg width="41" height="40" viewBox="0 0 41 40" fill="none" xmlns="http://www.w3.org/2000/svg">
<path fill-rule="evenodd" clip-rule="evenodd" d="M15.6115 5C13.1097 5 10.8062 5.75462 9.09038 7.04097C7.3773 8.32527 6.16709 10.2204 6.16709 12.4329C6.16709 15.4525 6.80171 18.4668 7.91555 20.9839C7.3798 21.1988 6.76882 21.471 6.15592 21.8068C4.57435 22.6732 2.2782 24.3524 2.2782 27.135C2.2782 29.9648 3.7002 32.9078 6.88942 33.8406C9.00129 34.4583 11.9332 35 15.6115 35C19.2897 35 22.2217 34.4583 24.3336 33.8406C27.5229 32.9078 28.9449 29.9649 28.9449 27.135C28.9449 24.3557 26.6491 22.6772 25.0693 21.8108C24.4554 21.4741 23.8433 21.2011 23.3068 20.9856C24.4211 18.4681 25.056 15.4532 25.056 12.4329C25.056 10.2204 23.8458 8.32527 22.1327 7.04097C20.4169 5.75462 18.1133 5 15.6115 5ZM7.75745 24.7302C8.38951 24.3839 9.04726 24.1116 9.60052 23.9066C11.0888 25.8938 13.1233 27.381 15.6115 27.381C18.0993 27.381 20.1334 25.8944 21.6217 23.9078C22.1756 24.1135 22.8339 24.3866 23.4665 24.7335C24.9464 25.5451 25.6115 26.3763 25.6115 27.135C25.6115 28.9571 24.7589 30.2432 23.3979 30.6413C21.5784 31.1735 18.9612 31.6667 15.6115 31.6667C12.2617 31.6667 9.64464 31.1735 7.82521 30.6413C6.46425 30.2433 5.61153 28.957 5.61153 27.135C5.61153 26.3725 6.27823 25.5406 7.75745 24.7302ZM21.6193 20.3755L21.6301 20.3798C21.6225 20.3769 21.6193 20.3755 21.6193 20.3755ZM9.59559 20.3786L9.60669 20.3743C9.60669 20.3743 9.60344 20.3757 9.59559 20.3786ZM9.50042 12.4329C9.50042 11.5113 10.0024 10.5233 11.0899 9.70801C12.1746 8.89477 13.76 8.33333 15.6115 8.33333C17.4631 8.33333 19.0484 8.89477 20.1332 9.70801C21.2207 10.5233 21.7226 11.5113 21.7226 12.4329C21.7226 15.5371 20.9318 18.5704 19.6896 20.7753C18.409 23.0486 16.9061 24.0476 15.6115 24.0476C14.317 24.0476 12.8141 23.0486 11.5334 20.7753C10.2913 18.5704 9.50042 15.5371 9.50042 12.4329Z" fill="black" fill-opacity="0.32"/>
<path fill-rule="evenodd" clip-rule="evenodd" d="M28.3607 11.6948C28.2693 10.5248 27.9635 9.4407 27.5044 8.4566C27.9782 8.3753 28.4611 8.33333 28.9449 8.33333C32.5813 8.33333 36.1671 10.7041 36.1671 14.3247C36.1671 16.4946 35.7593 18.6676 35.0301 20.5326C35.3261 20.6683 35.6421 20.8269 35.9597 21.0098C37.1317 21.6846 38.9449 23.0547 38.9449 25.3513C38.9449 27.5459 37.8915 29.9873 35.3301 30.7739C34.2807 31.0962 32.9627 31.3898 31.3928 31.5469C31.8697 30.4164 32.1431 29.2268 32.2389 28.0755C33.0626 27.9406 33.7683 27.7666 34.3515 27.5875C35.0403 27.3759 35.6116 26.6455 35.6116 25.3513C35.6116 24.9944 35.3099 24.482 34.2964 23.8984C34.0021 23.729 33.6969 23.5833 33.4097 23.4601C32.9897 24.0004 32.5102 24.4935 31.9724 24.8959C31.6361 23.7107 31.053 22.7104 30.3775 21.8783C30.7204 21.5362 31.0774 21.0576 31.4264 20.407C32.2797 18.8167 32.8338 16.6026 32.8338 14.3247C32.8338 13.2441 31.5276 11.6667 28.9449 11.6667C28.7423 11.6667 28.5476 11.6764 28.3607 11.6948ZM33.425 19.8998C33.425 19.8998 33.4314 19.9021 33.4416 19.9064C33.4297 19.9019 33.425 19.8998 33.425 19.8998Z" fill="black" fill-opacity="0.32"/>
<path fill-rule="evenodd" clip-rule="evenodd" d="M15.6115 5C13.1097 5 10.8062 5.75462 9.09038 7.04097C7.3773 8.32527 6.16709 10.2204 6.16709 12.4329C6.16709 15.4525 6.80171 18.4668 7.91555 20.9839C7.3798 21.1988 6.76882 21.471 6.15592 21.8068C4.57435 22.6732 2.2782 24.3524 2.2782 27.135C2.2782 29.9648 3.7002 32.9078 6.88942 33.8406C9.00129 34.4583 11.9332 35 15.6115 35C19.2897 35 22.2217 34.4583 24.3336 33.8406C27.5229 32.9078 28.9449 29.9649 28.9449 27.135C28.9449 24.3557 26.6491 22.6772 25.0693 21.8108C24.4554 21.4741 23.8433 21.2011 23.3068 20.9856C24.4211 18.4681 25.056 15.4532 25.056 12.4329C25.056 10.2204 23.8458 8.32527 22.1327 7.04097C20.4169 5.75462 18.1133 5 15.6115 5ZM7.75745 24.7302C8.38951 24.3839 9.04726 24.1116 9.60052 23.9066C11.0888 25.8938 13.1233 27.381 15.6115 27.381C18.0993 27.381 20.1334 25.8944 21.6217 23.9078C22.1756 24.1135 22.8339 24.3866 23.4665 24.7335C24.9464 25.5451 25.6115 26.3763 25.6115 27.135C25.6115 28.9571 24.7589 30.2432 23.3979 30.6413C21.5784 31.1735 18.9612 31.6667 15.6115 31.6667C12.2617 31.6667 9.64464 31.1735 7.82521 30.6413C6.46425 30.2433 5.61153 28.957 5.61153 27.135C5.61153 26.3725 6.27823 25.5406 7.75745 24.7302ZM21.6193 20.3755L21.6301 20.3798C21.6225 20.3769 21.6193 20.3755 21.6193 20.3755ZM9.59559 20.3786L9.60669 20.3743C9.60669 20.3743 9.60344 20.3757 9.59559 20.3786ZM9.50042 12.4329C9.50042 11.5113 10.0024 10.5233 11.0899 9.70801C12.1746 8.89477 13.76 8.33333 15.6115 8.33333C17.4631 8.33333 19.0484 8.89477 20.1332 9.70801C21.2207 10.5233 21.7226 11.5113 21.7226 12.4329C21.7226 15.5371 20.9318 18.5704 19.6896 20.7753C18.409 23.0486 16.9061 24.0476 15.6115 24.0476C14.317 24.0476 12.8141 23.0486 11.5334 20.7753C10.2913 18.5704 9.50042 15.5371 9.50042 12.4329Z" stroke="#F0F0F0" stroke-width="0.5"/>
<path fill-rule="evenodd" clip-rule="evenodd" d="M28.3607 11.6948C28.2693 10.5248 27.9635 9.4407 27.5044 8.4566C27.9782 8.3753 28.4611 8.33333 28.9449 8.33333C32.5813 8.33333 36.1671 10.7041 36.1671 14.3247C36.1671 16.4946 35.7593 18.6676 35.0301 20.5326C35.3261 20.6683 35.6421 20.8269 35.9597 21.0098C37.1317 21.6846 38.9449 23.0547 38.9449 25.3513C38.9449 27.5459 37.8915 29.9873 35.3301 30.7739C34.2807 31.0962 32.9627 31.3898 31.3928 31.5469C31.8697 30.4164 32.1431 29.2268 32.2389 28.0755C33.0626 27.9406 33.7683 27.7666 34.3515 27.5875C35.0403 27.3759 35.6116 26.6455 35.6116 25.3513C35.6116 24.9944 35.3099 24.482 34.2964 23.8984C34.0021 23.729 33.6969 23.5833 33.4097 23.4601C32.9897 24.0004 32.5102 24.4935 31.9724 24.8959C31.6361 23.7107 31.053 22.7104 30.3775 21.8783C30.7204 21.5362 31.0774 21.0576 31.4264 20.407C32.2797 18.8167 32.8338 16.6026 32.8338 14.3247C32.8338 13.2441 31.5276 11.6667 28.9449 11.6667C28.7423 11.6667 28.5476 11.6764 28.3607 11.6948ZM33.425 19.8998C33.425 19.8998 33.4314 19.9021 33.4416 19.9064C33.4297 19.9019 33.425 19.8998 33.425 19.8998Z" stroke="#F0F0F0" stroke-width="0.5"/>
</svg>
