<svg width="24" height="24" viewBox="0 0 24 24" fill="white" xmlns="http://www.w3.org/2000/svg">
    <path fill-rule="evenodd" clip-rule="evenodd"
          d="M12.0656 5.11091C13.9498 3.2267 17.0047 3.2267 18.8889 5.11091C20.7731 6.99511 20.7731 10.05 18.8889 11.9342L18.5025 12.3206C18.112 12.7111 17.4788 12.7111 17.0883 12.3206C16.6978 11.93 16.6978 11.2969 17.0883 10.9064L17.4747 10.52C18.5778 9.41684 18.5778 7.62827 17.4747 6.52512C16.3715 5.42197 14.5829 5.42197 13.4798 6.52512L10.5784 9.42652C9.79733 10.2076 9.79733 11.4739 10.5784 12.255L11.548 13.2245C11.9385 13.6151 11.9385 14.2482 11.548 14.6388C11.1574 15.0293 10.5243 15.0293 10.1338 14.6388L9.16416 13.6692C7.60207 12.1071 7.60207 9.57441 9.16416 8.01231L12.0656 5.11091ZM12.4519 9.36096C12.8425 8.97044 13.4756 8.97044 13.8661 9.36096L14.8357 10.3305C16.3978 11.8926 16.3978 14.4253 14.8357 15.9874L11.9343 18.8888C10.0501 20.773 6.99523 20.773 5.11103 18.8888C3.22682 17.0046 3.22683 13.9497 5.11103 12.0655L5.49739 11.6791C5.88792 11.2886 6.52108 11.2886 6.91161 11.6791C7.30213 12.0697 7.30213 12.7028 6.9116 13.0934L6.52524 13.4797C5.42209 14.5829 5.42209 16.3714 6.52524 17.4746C7.6284 18.5777 9.41696 18.5777 10.5201 17.4746L13.4215 14.5732C14.2026 13.7921 14.2026 12.5258 13.4215 11.7448L12.4519 10.7752C12.0614 10.3846 12.0614 9.75148 12.4519 9.36096Z"
          />
</svg>
