<svg width="16" height="16" viewBox="0 0 16 16" fill="none" xmlns="http://www.w3.org/2000/svg">
<path fill-rule="evenodd" clip-rule="evenodd" d="M4.36365 6.18182C3.35949 6.18182 2.54547 6.99585 2.54547 8C2.54547 9.00415 3.35949 9.81818 4.36365 9.81818H5.81819C6.42069 9.81818 6.9091 10.3066 6.9091 10.9091C6.9091 11.5116 6.42069 12 5.81819 12H4.36365C2.15451 12 0.363647 10.2091 0.363647 8C0.363647 5.79086 2.15451 4 4.36365 4H5.81819C6.42069 4 6.9091 4.48842 6.9091 5.09091C6.9091 5.6934 6.42069 6.18182 5.81819 6.18182H4.36365ZM11.6364 6.18182C12.6405 6.18182 13.4546 6.99585 13.4546 8C13.4546 9.00415 12.6405 9.81818 11.6364 9.81818H10.1818C9.57934 9.81818 9.09092 10.3066 9.09092 10.9091C9.09092 11.5116 9.57934 12 10.1818 12H11.6364C13.8455 12 15.6364 10.2091 15.6364 8C15.6364 5.79086 13.8455 4 11.6364 4H10.1818C9.57934 4 9.09092 4.48842 9.09092 5.09091C9.09092 5.6934 9.57934 6.18182 10.1818 6.18182H11.6364Z" fill="#4D7DD0"/>
</svg>
