<svg width="16" height="16" viewBox="0 0 16 16" fill="black" xmlns="http://www.w3.org/2000/svg">
    <path d="M7.49998 0.75H12C13.7949 0.75 15.25 2.20507 15.25 4V8.5C15.25 9.75386 14.5399 10.8419 13.5 11.3839V4C13.5 3.17157 12.8284 2.5 12 2.5H4.61609C5.1581 1.46005 6.24612 0.75 7.49998 0.75Z"/>
    <path fill-rule="evenodd" clip-rule="evenodd" d="M8.5 4.25H4C2.20507 4.25 0.75 5.70507 0.75 7.5V12C0.75 13.7949 2.20507 15.25 4 15.25H8.5C10.2949 15.25 11.75 13.7949 11.75 12V7.5C11.75 5.70507 10.2949 4.25 8.5 4.25ZM2.5 7.5C2.5 6.67157 3.17157 6 4 6H8.5C9.32843 6 10 6.67157 10 7.5V12C10 12.8284 9.32843 13.5 8.5 13.5H4C3.17157 13.5 2.5 12.8284 2.5 12V7.5Z" />
</svg>
