<svg width="16" height="16" viewBox="0 0 16 16" fill="none" xmlns="http://www.w3.org/2000/svg">
<g clip-path="url(#clip0)">
<path fill-rule="evenodd" clip-rule="evenodd" d="M4 6.18182C2.99585 6.18182 2.18182 6.99585 2.18182 8C2.18182 9.00415 2.99585 9.81818 4 9.81818H5.45455C6.05704 9.81818 6.54545 10.3066 6.54545 10.9091C6.54545 11.5116 6.05704 12 5.45455 12H4C1.79086 12 0 10.2091 0 8C0 5.79086 1.79086 4 4 4H5.45455C6.05704 4 6.54545 4.48842 6.54545 5.09091C6.54545 5.6934 6.05704 6.18182 5.45455 6.18182H4ZM11.2727 6.18182C12.2769 6.18182 13.0909 6.99585 13.0909 8C13.0909 9.00415 12.2769 9.81818 11.2727 9.81818H9.81818C9.21569 9.81818 8.72727 10.3066 8.72727 10.9091C8.72727 11.5116 9.21569 12 9.81818 12H11.2727C13.4819 12 15.2727 10.2091 15.2727 8C15.2727 5.79086 13.4819 4 11.2727 4H9.81818C9.21569 4 8.72727 4.48842 8.72727 5.09091C8.72727 5.6934 9.21569 6.18182 9.81818 6.18182H11.2727Z" fill="#3B598D"/>
</g>
<defs>
<clipPath id="clip0">
<rect width="16" height="16" rx="8" fill="white"/>
</clipPath>
</defs>
</svg>
