<svg width="16" height="10" viewBox="0 0 16 10" fill="none" xmlns="http://www.w3.org/2000/svg">
<path fill-rule="evenodd" clip-rule="evenodd" d="M16 4.88058C15.983 4.16206 15.7846 3.4583 15.4219 2.83C14.7678 1.68894 13.6624 0.899756 12.3008 0.593525C11.7676 0.47652 10.2239 0.454942 9.65604 0.496439C8.93815 0.549555 8.36174 1.29061 8.75609 2.04081C9.44645 3.34119 11.431 1.91301 12.9756 3.23996C13.407 3.61091 13.7823 4.23577 13.7858 5.08721C13.7412 6.30419 12.7508 7.29356 11.4879 7.38259C11.1868 7.40258 10.4412 7.38841 10.1272 7.38259C9.46539 7.37429 9.10382 7.46558 8.8225 7.85976C8.52223 8.27971 8.62838 8.84892 8.91658 9.17259C9.26176 9.56094 9.73891 9.52196 10.361 9.52196C12.1644 9.52196 13.1567 9.45556 14.5175 8.30456C15.0887 7.82076 15.6038 6.99173 15.8119 6.27805C15.9444 5.82288 16.0073 5.35152 15.9982 4.8789" fill="url(#paint0_linear)"/>
<path fill-rule="evenodd" clip-rule="evenodd" d="M0.581266 2.82992C1.23268 1.68894 2.3379 0.899756 3.70033 0.593525C4.23269 0.47652 5.77626 0.454942 6.34395 0.496439C7.06182 0.549555 7.63816 1.29061 7.24386 2.04081C6.55355 3.34119 4.56915 1.91301 3.02472 3.23996C2.59328 3.61091 2.218 4.23577 2.21456 5.08721C2.25917 6.30419 3.24952 7.29356 4.51223 7.38259C4.81334 7.40258 5.21277 7.39089 5.87368 7.38259C6.53458 7.37429 6.89611 7.46558 7.17737 7.85976C7.47763 8.27971 7.37232 8.84892 7.08333 9.17259C6.73818 9.56094 6.26199 9.52196 5.63898 9.52196C3.83571 9.52196 2.84348 9.45556 1.48283 8.30456C0.911717 7.82076 0.396624 6.99173 0.188667 6.27806C0.0564787 5.82335 -0.00686558 5.35267 0.000588963 4.88058C0.0182628 4.16183 0.217557 3.45802 0.581266 2.82992Z" fill="url(#paint1_linear)"/>
<defs>
<linearGradient id="paint0_linear" x1="8.62791" y1="0.476989" x2="8.62791" y2="9.52304" gradientUnits="userSpaceOnUse">
<stop stop-color="#53BCFF"/>
<stop offset="1" stop-color="#1CA2F7"/>
</linearGradient>
<linearGradient id="paint1_linear" x1="0" y1="0.476989" x2="0" y2="9.52304" gradientUnits="userSpaceOnUse">
<stop stop-color="#53BCFF"/>
<stop offset="1" stop-color="#1CA2F7"/>
</linearGradient>
</defs>
</svg>
