<svg width="16" height="16" viewBox="0 0 16 16" fill="none" xmlns="http://www.w3.org/2000/svg">
<g clip-path="url(#clip0)">
<path fill-rule="evenodd" clip-rule="evenodd" d="M12 6.18182C13.0042 6.18182 13.8182 6.99585 13.8182 8C13.8182 9.00415 13.0042 9.81818 12 9.81818H10.5455C9.94296 9.81818 9.45455 10.3066 9.45455 10.9091C9.45455 11.5116 9.94296 12 10.5455 12H12C14.2091 12 16 10.2091 16 8C16 5.79086 14.2091 4 12 4H10.5455C9.94296 4 9.45455 4.48842 9.45455 5.09091C9.45455 5.6934 9.94296 6.18182 10.5455 6.18182H12Z" fill="white"/>
<path fill-rule="evenodd" clip-rule="evenodd" d="M4.70455 6.18182C3.70039 6.18182 2.88636 6.99585 2.88636 8C2.88636 9.00415 3.70039 9.81818 4.70455 9.81818H6.15909C6.76158 9.81818 7.25 10.3066 7.25 10.9091C7.25 11.5116 6.76158 12 6.15909 12H4.70455C2.49541 12 0.704545 10.2091 0.704545 8C0.704545 5.79086 2.49541 4 4.70455 4H6.15909C6.76158 4 7.25 4.48842 7.25 5.09091C7.25 5.6934 6.76158 6.18182 6.15909 6.18182H4.70455Z" fill="#3B598D"/>
</g>
<defs>
<clipPath id="clip0">
<rect width="16" height="16" rx="8" transform="matrix(-1 0 0 1 16 0)" fill="white"/>
</clipPath>
</defs>
</svg>
