<svg width="36" height="36" viewBox="0 0 36 36" fill="none" xmlns="http://www.w3.org/2000/svg">
    <path d="M4.5 27C4.5 25.7574 5.50736 24.75 6.75 24.75H29.25C30.4926 24.75 31.5 25.7574 31.5 27V27C31.5 28.2426 30.4926 29.25 29.25 29.25H6.75C5.50736 29.25 4.5 28.2426 4.5 27V27Z" fill="#EDB901"/>
    <path d="M6.75 9.46588V20.2499C6.75 21.4925 7.75736 22.4999 9 22.4999H27C28.2426 22.4999 29.25 21.4925 29.25 20.2499V9.46588C29.25 8.46361 28.0382 7.96167 27.3295 8.67038L23.625 12.3749L18.9833 4.02005C18.5547 3.24852 17.4451 3.24853 17.0165 4.02006L12.375 12.3749L8.6705 8.67038C7.96178 7.96167 6.75 8.46361 6.75 9.46588Z" fill="#EDB901"/>
</svg>
