<svg width="24" height="24" viewBox="0 0 24 24" fill="black" xmlns="http://www.w3.org/2000/svg">
    <path fill-rule="evenodd" clip-rule="evenodd" d="M13.3112 3.3011C12.7397 2.27239 11.2602 2.2724 10.6887 3.30112L8.01967 8.10546L6.06066 6.14646C5.11571 5.20151 3.5 5.87076 3.5 7.20712V15.5C3.5 16.6046 4.39543 17.5 5.5 17.5H18.5C19.6046 17.5 20.5 16.6046 20.5 15.5V7.20712C20.5 5.87076 18.8843 5.20151 17.9393 6.14646L15.9803 8.10548L13.3112 3.3011ZM8.48033 11.3946L12 5.05913L15.5197 11.3945L18.5 8.41422V15.5H5.5V8.41422L8.48033 11.3946Z" />
    <path fill-rule="evenodd" d="M3 19C2.44772 19 2 19.4477 2 20C2 20.5523 2.44772 21 3 21H21C21.5523 21 22 20.5523 22 20C22 19.4477 21.5523 19 21 19H3Z" />
</svg>
