<svg width="24" height="24" viewBox="0 0 24 24" fill="black" xmlns="http://www.w3.org/2000/svg">
    <path d="M10.6887 3.30109C11.2602 2.27237 12.7397 2.27236 13.3112 3.30107L15.9803 8.10545L17.9393 6.14643C18.8843 5.20148 20.5 5.87073 20.5 7.20709V15.5C20.5 16.6045 19.6046 17.5 18.5 17.5H5.5C4.39543 17.5 3.5 16.6045 3.5 15.5V7.20708C3.5 5.87073 5.11571 5.20148 6.06066 6.14642L8.01967 8.10543L10.6887 3.30109Z"/>
    <path d="M3 19C2.44772 19 2 19.4477 2 20C2 20.5523 2.44772 21 3 21H21C21.5523 21 22 20.5523 22 20C22 19.4477 21.5523 19 21 19H3Z"/>
</svg>
