<svg width="23" height="18" viewBox="0 0 23 18" fill="white" xmlns="http://www.w3.org/2000/svg">
    <path fill-rule="evenodd" clip-rule="evenodd" d="M8.06689 0C6.56581 0 5.18368 0.452769 4.1542 1.22458C3.12635 1.99516 2.40023 3.13225 2.40023 4.45975C2.40023 6.27151 2.781 8.08007 3.44931 9.59037C3.12786 9.71929 2.76126 9.88262 2.39352 10.0841C1.44459 10.6039 0.0668945 11.6115 0.0668945 13.281C0.0668945 14.9789 0.920098 16.7447 2.83363 17.3044C4.10075 17.675 5.85991 18 8.06689 18C10.2738 18 12.033 17.675 13.3002 17.3044C15.2137 16.7447 16.0669 14.9789 16.0669 13.281C16.0669 11.6134 14.6894 10.6063 13.7415 10.0865C13.3732 9.88446 13.0059 9.72064 12.6841 9.59134C13.3526 8.08085 13.7336 6.2719 13.7336 4.45975C13.7336 3.13225 13.0074 1.99516 11.9796 1.22458C10.9501 0.452769 9.56798 0 8.06689 0ZM3.35445 11.8381C3.73368 11.6304 4.12833 11.4669 4.46029 11.344C5.35327 12.5363 6.57394 13.4286 8.06689 13.4286C9.55955 13.4286 10.78 12.5366 11.673 11.3447C12.0053 11.4681 12.4003 11.632 12.7799 11.8401C13.6678 12.327 14.0669 12.8258 14.0669 13.281C14.0669 14.3742 13.5553 15.1459 12.7387 15.3848C11.647 15.7041 10.0767 16 8.06689 16C6.05702 16 4.48676 15.7041 3.3951 15.3848C2.57852 15.146 2.06689 14.3742 2.06689 13.281C2.06689 12.8235 2.46691 12.3243 3.35445 11.8381ZM11.6715 9.22532L11.678 9.22785C11.6735 9.22614 11.6715 9.22532 11.6715 9.22532ZM4.45733 9.22717L4.46399 9.22458C4.46399 9.22458 4.46204 9.22541 4.45733 9.22717ZM4.40023 4.45975C4.40023 3.90676 4.70142 3.31397 5.3539 2.8248C6.00475 2.33686 6.95596 2 8.06689 2C9.17783 2 10.129 2.33686 10.7799 2.8248C11.4324 3.31397 11.7336 3.90676 11.7336 4.45975C11.7336 6.32226 11.259 8.14221 10.5138 9.46517C9.74537 10.8291 8.84362 11.4286 8.06689 11.4286C7.29017 11.4286 6.38841 10.8291 5.62003 9.46517C4.87475 8.14221 4.40023 6.32226 4.40023 4.45975Z" />
    <path fill-rule="evenodd" clip-rule="evenodd" d="M15.7164 4.01687C15.6615 3.31489 15.4781 2.66442 15.2026 2.07396C15.4869 2.02518 15.7766 2 16.0669 2C18.2488 2 20.4003 3.42244 20.4003 5.59482C20.4003 6.89676 20.1556 8.20056 19.718 9.31954C19.8956 9.40101 20.0852 9.49611 20.2758 9.60586C20.979 10.0108 22.0669 10.8328 22.0669 12.2108C22.0669 13.5276 21.4349 14.9924 19.898 15.4644C19.2684 15.6577 18.4776 15.8339 17.5356 15.9281C17.8218 15.2498 17.9858 14.5361 18.0433 13.8453C18.5375 13.7644 18.961 13.66 19.3109 13.5525C19.7242 13.4256 20.0669 12.9873 20.0669 12.2108C20.0669 11.9966 19.8859 11.6892 19.2778 11.3391C19.1012 11.2374 18.9181 11.15 18.7458 11.0761C18.4938 11.4003 18.2061 11.6961 17.8834 11.9375C17.6817 11.2264 17.3318 10.6263 16.9265 10.127C17.1322 9.92171 17.3464 9.63457 17.5558 9.24422C18.0678 8.29 18.4003 6.96158 18.4003 5.59482C18.4003 4.94646 17.6166 4 16.0669 4C15.9454 4 15.8285 4.00583 15.7164 4.01687ZM18.755 8.93988C18.755 8.93988 18.7588 8.94128 18.765 8.94387C18.7578 8.94114 18.755 8.93988 18.755 8.93988Z"/>
</svg>