<svg width="34" height="34" viewBox="0 0 34 34" fill="none" xmlns="http://www.w3.org/2000/svg">
    <path d="M12.1097 17.5749C12.1097 18.6369 12.8862 19.5017 13.8285 19.5017C14.7858 19.5017 15.5472 18.6369 15.5472 17.5748C15.5623 16.5204 14.7934 15.6481 13.8285 15.6481C12.8711 15.6481 12.1097 16.5129 12.1097 17.5749Z" fill="#5A68EA"/>
    <path d="M18.4646 17.5749C18.4646 18.6369 19.241 19.5017 20.1833 19.5017C21.1483 19.5017 21.9021 18.6369 21.9021 17.5748C21.9172 16.5204 21.1483 15.6481 20.1833 15.6481C19.226 15.6481 18.4646 16.5129 18.4646 17.5749Z" fill="#5A68EA"/>
    <path fill-rule="evenodd" clip-rule="evenodd" d="M17 34C26.3888 34 34 26.3888 34 17C34 7.61116 26.3888 0 17 0C7.61116 0 0 7.61116 0 17C0 26.3888 7.61116 34 17 34ZM23.6277 10.7704C23.6384 10.7748 23.6472 10.7829 23.6525 10.7932C25.8123 13.9686 26.879 17.5506 26.4801 21.6743C26.4793 21.683 26.4767 21.6914 26.4724 21.699C26.4681 21.7066 26.4623 21.7132 26.4552 21.7183C25.0097 22.7889 23.392 23.6049 21.6719 24.1312C21.6598 24.135 21.6468 24.1348 21.6347 24.1307C21.6227 24.1266 21.6122 24.1188 21.6048 24.1085C21.241 23.6038 20.9148 23.0731 20.6286 22.5207C20.6247 22.5131 20.6224 22.5047 20.6219 22.4961C20.6215 22.4876 20.6228 22.479 20.6259 22.471C20.629 22.463 20.6337 22.4557 20.6398 22.4496C20.6458 22.4436 20.6531 22.4389 20.6611 22.4358C21.1778 22.2416 21.6771 22.004 22.1537 21.7258C22.1624 21.7206 22.1696 21.7134 22.1748 21.7048C22.18 21.6962 22.183 21.6864 22.1835 21.6763C22.184 21.6663 22.1821 21.6563 22.1778 21.6472C22.1735 21.638 22.1671 21.6301 22.159 21.6241C22.058 21.549 21.9577 21.4701 21.862 21.3912C21.8533 21.3842 21.8429 21.3797 21.8318 21.3783C21.8207 21.377 21.8095 21.3788 21.7994 21.3836C18.7066 22.8121 15.318 22.8121 12.1881 21.3836C12.178 21.3791 12.1669 21.3775 12.156 21.379C12.1451 21.3805 12.1348 21.385 12.1263 21.392C12.0306 21.4709 11.9303 21.549 11.83 21.6241C11.822 21.6302 11.8156 21.6382 11.8114 21.6473C11.8072 21.6564 11.8053 21.6665 11.8059 21.6765C11.8065 21.6866 11.8096 21.6963 11.8148 21.7049C11.8201 21.7135 11.8274 21.7207 11.836 21.7258C12.3138 22.0017 12.8126 22.2394 13.3279 22.4366C13.3359 22.4395 13.3433 22.4441 13.3494 22.4501C13.3555 22.456 13.3603 22.4632 13.3634 22.4712C13.3665 22.4791 13.3679 22.4877 13.3675 22.4962C13.3671 22.5047 13.3649 22.5131 13.3611 22.5207C13.0796 23.0762 12.7529 23.6076 12.3841 24.1093C12.3765 24.1194 12.366 24.1269 12.354 24.1309C12.342 24.1348 12.3291 24.135 12.317 24.1313C10.6 23.6032 8.98514 22.7873 7.54141 21.7183C7.53448 21.7129 7.52871 21.7061 7.52443 21.6985C7.52016 21.6908 7.51747 21.6823 7.51653 21.6736C7.18334 18.1067 7.86254 14.4951 10.3419 10.7924C10.348 10.7826 10.357 10.7749 10.3676 10.7704C11.6074 10.201 12.916 9.7953 14.2605 9.56349C14.2727 9.56157 14.2852 9.56337 14.2963 9.56865C14.3075 9.57393 14.3168 9.58245 14.3231 9.59309C14.5053 9.91555 14.6697 10.2478 14.8153 10.5884C16.2645 10.3684 17.7385 10.3684 19.1876 10.5884C19.3323 10.2487 19.4941 9.91649 19.6723 9.59309C19.6783 9.58221 19.6875 9.57349 19.6988 9.56818C19.71 9.56286 19.7226 9.56122 19.7348 9.56349C21.0792 9.79579 22.3877 10.2015 23.6277 10.7704Z" fill="#5A68EA"/>
</svg>
