<svg width="24" height="24" viewBox="0 0 24 24" fill="none" xmlns="http://www.w3.org/2000/svg">
    <path d="M8.54803 12.4058C8.54803 13.1555 9.09611 13.7659 9.76129 13.7659C10.437 13.7659 10.9745 13.1555 10.9745 12.4058C10.9852 11.6615 10.4424 11.0457 9.76129 11.0457C9.08548 11.0457 8.54803 11.6562 8.54803 12.4058Z" fill="white"/>
    <path d="M13.0338 12.4058C13.0338 13.1555 13.5819 13.7659 14.2471 13.7659C14.9282 13.7659 15.4603 13.1555 15.4603 12.4058C15.471 11.6615 14.9282 11.0457 14.2471 11.0457C13.5713 11.0457 13.0338 11.6562 13.0338 12.4058Z" fill="white"/>
    <path fill-rule="evenodd" clip-rule="evenodd" d="M12 24C18.6274 24 24 18.6274 24 12C24 5.37258 18.6274 0 12 0C5.37258 0 0 5.37258 0 12C0 18.6274 5.37258 24 12 24ZM16.6784 7.60263C16.6859 7.60573 16.6922 7.61143 16.6959 7.6187C18.2204 9.86019 18.9734 12.3887 18.6918 15.2995C18.6913 15.3056 18.6894 15.3116 18.6864 15.3169C18.6834 15.3223 18.6792 15.3269 18.6743 15.3306C17.6539 16.0863 16.512 16.6623 15.2978 17.0338C15.2893 17.0364 15.2801 17.0363 15.2716 17.0334C15.2631 17.0305 15.2557 17.025 15.2505 17.0177C14.9937 16.6615 14.7634 16.2869 14.5614 15.897C14.5586 15.8916 14.557 15.8857 14.5567 15.8796C14.5563 15.8736 14.5573 15.8675 14.5594 15.8619C14.5616 15.8562 14.565 15.8511 14.5692 15.8468C14.5735 15.8425 14.5787 15.8392 14.5843 15.837C14.949 15.6999 15.3015 15.5323 15.6379 15.3358C15.644 15.3322 15.6491 15.3271 15.6528 15.321C15.6565 15.3149 15.6586 15.308 15.6589 15.3009C15.6593 15.2938 15.6579 15.2868 15.6549 15.2803C15.6519 15.2739 15.6473 15.2683 15.6417 15.2641C15.5704 15.2111 15.4996 15.1554 15.432 15.0997C15.4259 15.0947 15.4185 15.0915 15.4107 15.0906C15.4029 15.0897 15.3949 15.0909 15.3878 15.0943C13.2046 16.1026 10.8127 16.1026 8.60336 15.0943C8.59626 15.0911 8.58842 15.09 8.58071 15.0911C8.573 15.0921 8.56574 15.0953 8.55974 15.1002C8.49217 15.1559 8.42136 15.2111 8.3506 15.2641C8.34494 15.2684 8.34043 15.274 8.33746 15.2804C8.33449 15.2869 8.33316 15.294 8.33358 15.3011C8.334 15.3082 8.33616 15.3151 8.33987 15.3211C8.34358 15.3272 8.34872 15.3322 8.35485 15.3358C8.69208 15.5306 9.04421 15.6984 9.40794 15.8376C9.41361 15.8396 9.41877 15.8429 9.42309 15.8471C9.4274 15.8513 9.43078 15.8564 9.43299 15.862C9.4352 15.8676 9.4362 15.8737 9.43591 15.8797C9.43563 15.8857 9.43407 15.8916 9.43134 15.897C9.23268 16.2891 9.00202 16.6642 8.74171 17.0184C8.73635 17.0255 8.72893 17.0308 8.72046 17.0336C8.712 17.0363 8.70288 17.0364 8.69435 17.0339C7.48233 16.6611 6.34245 16.0851 5.32335 15.3306C5.31846 15.3267 5.31438 15.322 5.31136 15.3166C5.30835 15.3111 5.30645 15.3052 5.30579 15.299C5.07059 12.7812 5.55003 10.2318 7.30019 7.61817C7.30447 7.61125 7.31079 7.60583 7.31828 7.60265C8.19345 7.20072 9.11718 6.91433 10.0662 6.7507C10.0748 6.74935 10.0837 6.75061 10.0915 6.75434C10.0994 6.75807 10.106 6.76408 10.1104 6.7716C10.2391 6.99921 10.3551 7.23375 10.4579 7.47415C11.4808 7.31887 12.5213 7.31887 13.5442 7.47415C13.6464 7.23436 13.7605 6.99988 13.8863 6.7716C13.8905 6.76391 13.8971 6.75776 13.905 6.75401C13.9129 6.75026 13.9218 6.7491 13.9305 6.7507C14.8794 6.91468 15.8031 7.20104 16.6784 7.60263Z" fill="white"/>
</svg>
