<svg width="60" height="77" viewBox="0 0 60 77" fill="none" xmlns="http://www.w3.org/2000/svg">
    <path d="M47.53 41.906C50.0799 44.5526 51.641 47.9963 51.9509 51.6583C52.2607 55.3204 51.3005 58.9774 49.2315 62.0148C47.1625 65.0522 44.111 67.2848 40.5898 68.3372C37.0686 69.3897 33.2924 69.1979 29.896 67.794C29.666 66.294 30.17 64.854 30.376 64.35C30.836 63.23 32.352 61.316 34.882 58.662C35.558 57.952 35.514 57.406 35.272 55.788L35.246 55.606C35.082 54.498 34.806 53.842 31.076 53.25C29.18 52.95 28.682 53.706 27.992 54.756L27.76 55.1C27.104 56.06 26.618 56.28 25.884 56.612C25.554 56.762 25.144 56.952 24.594 57.262C23.29 58.008 23.29 58.85 23.29 60.694V60.904C23.29 61.686 23.366 62.374 23.486 62.972C21.9513 61.0458 20.8818 58.7915 20.3608 56.3844C19.8399 53.9773 19.8814 51.4824 20.4824 49.0941C21.0833 46.7057 22.2273 44.4882 23.8254 42.6143C25.4235 40.7403 27.4325 39.2605 29.696 38.29C30.802 39.036 32.32 40.094 32.85 40.82C33.12 41.19 33.504 43.084 34.75 43.24C35.074 43.28 35.512 43.252 35.976 43.222C37.22 43.142 38.92 43.032 39.464 44.51C39.81 45.446 39.87 47.99 38.752 49.31C38.572 49.52 38.538 49.91 38.66 50.348C38.82 50.922 39.142 51.272 39.244 51.344C39.436 51.232 39.82 50.786 40.082 50.484C40.708 49.754 41.492 48.844 42.504 48.564C42.872 48.462 43.276 48.378 43.67 48.294C44.768 48.064 46.01 47.802 46.3 47.186C46.512 46.734 46.51 46.112 46.51 45.456C46.51 44.622 46.51 43.68 46.918 42.766C47.0598 42.4398 47.2683 42.1469 47.53 41.906V41.906ZM36 73C47.046 73 56 64.046 56 53C56 41.954 47.046 33 36 33C24.954 33 16 41.954 16 53C16 64.046 24.954 73 36 73Z" fill="#3B598D"/>
    <path fill-rule="evenodd" clip-rule="evenodd" d="M20.3435 15.7604C20.2339 15.4319 19.7702 15.4292 19.6568 15.7564L18.9091 17.9153H16.795C16.4556 17.9153 16.3022 18.3399 16.5633 18.5568L18.2449 19.9539L17.7238 22.0355C17.6425 22.3601 18.0068 22.6122 18.2819 22.4217L19.9983 21.2334L21.7184 22.4219C21.9938 22.6122 22.3579 22.3596 22.2761 22.035L21.7517 19.9539L23.4365 18.557C23.6979 18.3403 23.5446 17.9153 23.205 17.9153H21.0617L20.3435 15.7604Z" fill="#FFBA28"/>
    <path d="M19.0121 28.9658L19.0121 28.9658C20 26.1137 24.0419 26.1372 24.9965 29.0008L26.8391 34.5288H32.2561C35.2158 34.5288 36.5517 38.2328 34.2732 40.1219L33.004 38.5911L34.2732 40.1219L29.853 43.7868L31.2229 49.2231L29.2835 49.7118L31.2229 49.2231C31.9358 52.0519 28.7621 54.2539 26.3618 52.5953C26.3618 52.5953 26.3618 52.5953 26.3618 52.5953L21.9957 49.5784L17.6406 52.5937C15.2428 54.2537 12.0676 52.057 12.7759 49.2278L14.1382 43.7869L9.7244 40.1199C7.44898 38.2295 8.78579 34.5288 11.7439 34.5288H17.0852L19.0121 28.9658Z" fill="#FFBA28" stroke="#F0F0F0" stroke-width="4"/>
    <path fill-rule="evenodd" clip-rule="evenodd" d="M8.41216 25.1125C8.28074 24.7183 7.72423 24.715 7.58822 25.1077L6.69089 27.6983H4.15398C3.74669 27.6983 3.56264 28.2079 3.87592 28.4681L5.89392 30.1447L5.26852 32.6426C5.17099 33.0322 5.60816 33.3346 5.93829 33.106L7.99799 31.6801L10.062 33.1063C10.3925 33.3346 10.8295 33.0315 10.7313 32.642L10.102 30.1447L12.1238 28.4684C12.4375 28.2083 12.2535 27.6983 11.846 27.6983H9.2741L8.41216 25.1125Z" fill="#FFBA28"/>
    <path fill-rule="evenodd" clip-rule="evenodd" d="M33.2748 24.4084C33.1872 24.1455 32.8162 24.1434 32.7255 24.4052L32.1273 26.1322H30.436C30.1645 26.1322 30.0418 26.4719 30.2506 26.6455L31.5959 27.7631L31.179 29.4284C31.114 29.6881 31.4054 29.8898 31.6255 29.7374L32.9987 28.7867L34.3747 29.7375C34.595 29.8898 34.8863 29.6877 34.8209 29.428L34.4013 27.7631L35.7492 26.6456C35.9583 26.4722 35.8357 26.1322 35.564 26.1322H33.8494L33.2748 24.4084Z" fill="#FFBA28"/>
    <path fill-rule="evenodd" clip-rule="evenodd" d="M8.54954 2.81668C8.37432 2.291 7.63231 2.28667 7.45095 2.81026L6.25452 6.26444H2.87197C2.32892 6.26444 2.08352 6.94381 2.50123 7.29084L5.1919 9.52624L4.35803 12.8568C4.22799 13.3762 4.81088 13.7795 5.25106 13.4747L7.99732 11.5734L10.7494 13.475C11.19 13.7795 11.7726 13.3753 11.6418 12.856L10.8027 9.52623L13.4983 7.29121C13.9166 6.94441 13.6714 6.26444 13.128 6.26444H9.6988L8.54954 2.81668Z" fill="#FFBA28"/>
</svg>
