<svg width="24" height="24" viewBox="0 0 24 24" fill="none" xmlns="http://www.w3.org/2000/svg">
    <path d="M8.5 11C9.32843 11 10 10.3284 10 9.5C10 8.67157 9.32843 8 8.5 8C7.67157 8 7 8.67157 7 9.5C7 10.3284 7.67157 11 8.5 11Z"
          fill="#212121"/>
    <path d="M17 9.5C17 10.3284 16.3284 11 15.5 11C14.6716 11 14 10.3284 14 9.5C14 8.67157 14.6716 8 15.5 8C16.3284 8 17 8.67157 17 9.5Z"
          fill="#212121"/>
    <path d="M7.83119 13.7618C7.52566 13.3017 6.90501 13.1764 6.44494 13.4819C5.98487 13.7875 5.85958 14.4081 6.16512 14.8682C7.41721 16.7536 9.56283 18 12 18C14.4367 18 16.582 16.7541 17.8342 14.8693C18.1398 14.4092 18.0146 13.7886 17.5546 13.483C17.0946 13.1773 16.4739 13.3025 16.1683 13.7625C15.271 15.1132 13.7388 16 12 16C10.2608 16 8.72843 15.1128 7.83119 13.7618Z"
          fill="#212121"/>
    <path fill-rule="evenodd" clip-rule="evenodd"
          d="M12 1C5.92487 1 1 5.92487 1 12C1 18.0751 5.92487 23 12 23C18.0751 23 23 18.0751 23 12C23 5.92487 18.0751 1 12 1ZM3 12C3 7.02944 7.02944 3 12 3C16.9706 3 21 7.02944 21 12C21 16.9706 16.9706 21 12 21C7.02944 21 3 16.9706 3 12Z"
          fill="#212121"/>
</svg>
