<svg width="16" height="16" viewBox="0 0 16 16" fill="black" xmlns="http://www.w3.org/2000/svg">
    <path fill-rule="evenodd" clip-rule="evenodd"
          d="M3.00001 13L5.6455 12.412C6.36981 12.7992 7.17868 13.0012 8 13C10.7615 13 13 10.7615 13 8C13 5.2385 10.7615 3 8 3C5.2385 3 3.00001 5.2385 3.00001 8C2.99877 8.82132 3.20077 9.63019 3.58801 10.3545L3.00001 13ZM5.75 8.75C6.16421 8.75 6.5 8.41421 6.5 8C6.5 7.58579 6.16421 7.25 5.75 7.25C5.33579 7.25 5 7.58579 5 8C5 8.41421 5.33579 8.75 5.75 8.75ZM8.75 8C8.75 8.41421 8.41421 8.75 8 8.75C7.58579 8.75 7.25 8.41421 7.25 8C7.25 7.58579 7.58579 7.25 8 7.25C8.41421 7.25 8.75 7.58579 8.75 8ZM10.25 8.75C10.6642 8.75 11 8.41421 11 8C11 7.58579 10.6642 7.25 10.25 7.25C9.83579 7.25 9.5 7.58579 9.5 8C9.5 8.41421 9.83579 8.75 10.25 8.75Z"
          />
</svg>
