<svg width="16" height="16" viewBox="0 0 16 16" fill="black" xmlns="http://www.w3.org/2000/svg">
    <path d="M10.6071 9.58024L11.0761 8.75741L11.0894 8.72879C11.0897 8.72811 11.09 8.72744 11.0904 8.72677C11.0989 8.73146 11.1074 8.7362 11.1159 8.74097C11.6454 9.03739 12.348 9.5782 12.348 10.443C12.348 11.3648 11.8972 12.308 10.8931 12.6078C10.195 12.8162 9.22252 13 8.00017 13C6.77778 13 5.80533 12.8162 5.10728 12.6078C4.10317 12.308 3.65234 11.3648 3.65234 10.443C3.65234 9.57704 4.35511 9.03602 4.88508 8.73963C4.89332 8.73503 4.90156 8.73046 4.90979 8.72592C4.91015 8.7267 4.91051 8.72748 4.91087 8.72825L4.92413 8.75687L5.39313 9.57983L5.41316 9.60842C5.97145 10.4055 6.84015 11.1413 8.00027 11.1413C9.16019 11.1413 10.0288 10.4057 10.5871 9.60883L10.6071 9.58024Z"
          />
    <path d="M8.00027 3C7.18326 3 6.43618 3.25175 5.88412 3.67426C5.33247 4.09645 4.95679 4.70802 4.95679 5.4091C4.95679 6.47897 5.18921 7.54507 5.59136 8.41292L6.02745 9.17814C6.51575 9.87525 7.18604 10.3913 8.00027 10.3913C8.81435 10.3913 9.48456 9.87543 9.97283 9.17849L10.4089 8.41343C10.4089 8.41342 10.409 8.41344 10.4089 8.41343C10.8112 7.54549 11.0436 6.47916 11.0436 5.4091C11.0436 4.70802 10.668 4.09645 10.1163 3.67426C9.56427 3.25176 8.81723 3.00002 8.00027 3Z"
          />
</svg>
