<svg width="41" height="40"  viewBox="0 0 41 40" fill="red" xmlns="http://www.w3.org/2000/svg">
    <path fill-rule="evenodd" clip-rule="evenodd"
          d="M10.4999 3.33334C11.4204 3.33334 12.1666 4.07954 12.1666 5.00001V6.66668H15.4999V5.00001C15.4999 4.07954 16.2461 3.33334 17.1666 3.33334C18.0871 3.33334 18.8333 4.07954 18.8333 5.00001V6.66668H22.1666V5.00001C22.1666 4.07954 22.9128 3.33334 23.8333 3.33334C24.7537 3.33334 25.4999 4.07954 25.4999 5.00001V6.66668H28.8333V5.00001C28.8333 4.07954 29.5794 3.33334 30.4999 3.33334C31.4204 3.33334 32.1666 4.07954 32.1666 5.00001V6.66668C34.928 6.66668 37.1666 8.90525 37.1666 11.6667V31.6667C37.1666 34.4281 34.928 36.6667 32.1666 36.6667H8.83325C6.07183 36.6667 3.83325 34.4281 3.83325 31.6667V11.6667C3.83325 8.90525 6.07183 6.66668 8.83325 6.66668V5.00001C8.83325 4.07954 9.57944 3.33334 10.4999 3.33334ZM8.83325 10C7.91278 10 7.16659 10.7462 7.16659 11.6667V15H33.8333V11.6667C33.8333 10.7462 33.0871 10 32.1666 10C32.1666 10.9205 31.4204 11.6667 30.4999 11.6667C29.5794 11.6667 28.8333 10.9205 28.8333 10H25.4999C25.4999 10.9205 24.7537 11.6667 23.8333 11.6667C22.9128 11.6667 22.1666 10.9205 22.1666 10H18.8333C18.8333 10.9205 18.0871 11.6667 17.1666 11.6667C16.2461 11.6667 15.4999 10.9205 15.4999 10H12.1666C12.1666 10.9205 11.4204 11.6667 10.4999 11.6667C9.57944 11.6667 8.83325 10.9205 8.83325 10ZM33.8333 18.3333H7.16659V31.6667C7.16659 32.5872 7.91278 33.3333 8.83325 33.3333H32.1666C33.0871 33.3333 33.8333 32.5872 33.8333 31.6667V18.3333Z"
          />
</svg>
