<svg width="20" height="20" viewBox="0 0 20 20" fill="none" xmlns="http://www.w3.org/2000/svg">
<g clip-path="url(#clip0)">
<path d="M16.9266 9.71492C17.1257 9.76743 17.3174 9.82558 17.5018 9.88884L17.5024 9.88923C19.0118 10.4082 20 11.2727 20 12.2515C20 13.5588 18.2383 14.6618 15.8274 15.011C15.31 15.0858 14.7627 15.126 14.1965 15.126C13.9977 15.126 13.801 15.1211 13.6072 15.1111C13.6054 14.9532 13.5781 14.7985 13.5271 14.6475L12.9296 11.0751L12.6629 9.47893C13.1514 9.41252 13.6656 9.3775 14.1965 9.3775C15.1833 9.3775 16.113 9.4993 16.9266 9.71492Z" fill="url(#paint0_linear)"/>
<path d="M13.6047 15.1074L13.6073 15.126V15.1074H13.6047Z" fill="#FAFAFA"/>
<path d="M8.3929 12.2662C8.40822 13.7482 10.6871 14.9646 13.6049 15.1111L13.6073 15.1259C13.6073 16.7131 11.0088 18 7.80364 18C6.67529 18 5.622 17.8404 4.73127 17.5646C3.09117 17.0568 2.00014 16.1545 2.00014 15.1259C2.00014 14.7503 2.14578 14.3919 2.40992 14.0629C2.41075 14.0621 2.41134 14.0611 2.41196 14.0603L2.41277 14.0596C3.26781 12.9998 5.35908 12.2515 7.80364 12.2515C8.0023 12.2515 8.19913 12.2564 8.3929 12.2662Z" fill="url(#paint1_linear)"/>
<path d="M8.3929 12.2661C8.4082 13.748 10.6871 14.9644 13.6049 15.1109H13.6073C13.6055 14.9531 13.5782 14.7984 13.5272 14.6474C13.0992 13.3814 11.001 12.3961 8.3929 12.2661Z" fill="#3C87F0"/>
<path d="M12.0845 6.01794L8.84391 3.636L11.223 -0.000114918L12.0845 6.01794Z" fill="url(#paint2_linear)"/>
<path d="M8.39288 12.2514V12.2661C8.19911 12.2563 8.00229 12.2514 7.80346 12.2514C5.35903 12.2514 3.26773 12.9998 2.41264 14.0595L6.90653 6.74889L8.39288 12.2514Z" fill="url(#paint3_linear)"/>
<path d="M8.39313 12.2514V12.2661C11.0013 12.3961 13.0995 13.3814 13.5274 14.6474L12.93 11.075L12.6632 9.4788C10.2023 9.81192 8.39313 10.9269 8.39313 12.2514Z" fill="#41B4FF"/>
<path d="M6.90616 6.74901L8.39254 12.2515C8.39254 10.927 10.2016 9.81198 12.6626 9.47892L12.0836 6.01833V6.01794L8.84302 3.63595L6.90616 6.74901Z" fill="#3C87F0"/>
<path d="M12.0845 6.01825L12.6635 9.47882C13.152 9.41253 13.6661 9.37735 14.1971 9.37735C15.1839 9.37735 16.1136 9.49929 16.9271 9.71491C17.1263 9.7673 17.318 9.82541 17.5024 9.88882L16.9133 9.46777L12.0845 6.01825Z" fill="#A000FF"/>
<path d="M6.90598 6.74902L8.84283 3.63596L5.40221 0.891187C5.38197 0.902252 6.90598 6.74902 6.90598 6.74902Z" fill="#FF6E00"/>
</g>
<defs>
<linearGradient id="paint0_linear" x1="20" y1="12.2517" x2="12.6629" y2="12.2517" gradientUnits="userSpaceOnUse">
<stop stop-color="#FF6E00"/>
<stop offset="0.993695" stop-color="#A000FF"/>
<stop offset="1" stop-color="#A000FF"/>
</linearGradient>
<linearGradient id="paint1_linear" x1="13.6073" y1="15.1258" x2="2.00015" y2="15.1258" gradientUnits="userSpaceOnUse">
<stop stop-color="#82FF64"/>
<stop offset="0.994382" stop-color="#41B4FF"/>
<stop offset="1" stop-color="#41B4FF"/>
</linearGradient>
<linearGradient id="paint2_linear" x1="12.0845" y1="3.00891" x2="8.84391" y2="3.00891" gradientUnits="userSpaceOnUse">
<stop stop-color="#3C87F0"/>
<stop offset="0.993695" stop-color="#0A0528"/>
<stop offset="1" stop-color="#0A0528"/>
</linearGradient>
<linearGradient id="paint3_linear" x1="8.39289" y1="10.4042" x2="2.41264" y2="10.4042" gradientUnits="userSpaceOnUse">
<stop stop-color="#3C87F0"/>
<stop offset="0.993695" stop-color="#0A0528"/>
<stop offset="1" stop-color="#0A0528"/>
</linearGradient>
<clipPath id="clip0">
<rect width="20" height="20" fill="white"/>
</clipPath>
</defs>
</svg>
