<svg width="24" height="24" viewBox="0 0 24 24" fill="none" xmlns="http://www.w3.org/2000/svg">
<path fill-rule="evenodd" clip-rule="evenodd" d="M7.23809 9.61904C5.92313 9.61904 4.85714 10.685 4.85714 12C4.85714 13.315 5.92313 14.3809 7.23809 14.3809H9.14286C9.93184 14.3809 10.5714 15.0205 10.5714 15.8095C10.5714 16.5985 9.93184 17.2381 9.14286 17.2381H7.23809C4.34518 17.2381 2 14.8929 2 12C2 9.10708 4.34518 6.7619 7.23809 6.7619H9.14286C9.93184 6.7619 10.5714 7.40149 10.5714 8.19047C10.5714 8.97945 9.93184 9.61904 9.14286 9.61904H7.23809ZM16.7619 9.61904C18.0769 9.61904 19.1429 10.685 19.1429 12C19.1429 13.315 18.0769 14.3809 16.7619 14.3809H14.8571C14.0682 14.3809 13.4286 15.0205 13.4286 15.8095C13.4286 16.5985 14.0682 17.2381 14.8571 17.2381H16.7619C19.6548 17.2381 22 14.8929 22 12C22 9.10708 19.6548 6.7619 16.7619 6.7619H14.8571C14.0682 6.7619 13.4286 7.40149 13.4286 8.19047C13.4286 8.97945 14.0682 9.61904 14.8571 9.61904H16.7619Z" fill="white"/>
</svg>
