<svg width="24" height="24" viewBox="0 0 24 24" fill="none" xmlns="http://www.w3.org/2000/svg">
    <path fill-rule="evenodd" clip-rule="evenodd" d="M9.5 6.89222C9.5 4.01466 12.3853 2 15.5 2C18.6147 2 21.5 4.01466 21.5 6.89222C21.5 8.96613 21.0726 11.0357 20.3269 12.7423C20.6956 12.8937 21.1292 13.0918 21.5638 13.3421C22.5949 13.9358 24 15.0402 24 16.8161C24 18.6563 23.1242 20.5969 21.0999 21.2186C19.7451 21.6347 17.8626 22 15.5 22C13.1373 22 11.2549 21.6347 9.90013 21.2186C7.87582 20.5969 7 18.6562 7 16.8161C7 15.0379 8.40544 13.9331 9.43755 13.3394C9.87148 13.0898 10.3044 12.8923 10.6726 12.7413C9.92723 11.0349 9.5 8.96572 9.5 6.89222ZM11.6515 14.5042C11.2898 14.6439 10.854 14.8319 10.4348 15.0731C9.49925 15.6112 9 16.2014 9 16.8161C9 18.116 9.5865 19.0301 10.4873 19.3067C11.6598 19.6668 13.3446 20 15.5 20C17.6553 20 19.3401 19.6668 20.5127 19.3067C21.4135 19.03 22 18.116 22 16.8161C22 16.204 21.5018 15.6142 20.5658 15.0753C20.1462 14.8337 19.7101 14.6452 19.348 14.505C18.4037 15.8446 17.1035 16.8571 15.5 16.8571C13.8962 16.8571 12.5958 15.8442 11.6515 14.5042ZM19.3525 12.3765L19.3586 12.379C19.3543 12.3773 19.3525 12.3765 19.3525 12.3765ZM11.6429 12.3783L11.6493 12.3757L11.6482 12.3761L11.6429 12.3783ZM15.5 4C13.0175 4 11.5 5.53868 11.5 6.89222C11.5 9.0149 12.0147 11.0904 12.8261 12.6027C13.6658 14.1679 14.6544 14.8571 15.5 14.8571C16.3456 14.8571 17.3342 14.1679 18.1739 12.6027C18.9853 11.0904 19.5 9.0149 19.5 6.89222C19.5 5.53868 17.9825 4 15.5 4Z" fill="#3B598D"/>
    <path d="M4 6C4.55228 6 5 6.44772 5 7V9H7C7.55228 9 8 9.44772 8 10C8 10.5523 7.55228 11 7 11H5V13C5 13.5523 4.55228 14 4 14C3.44772 14 3 13.5523 3 13V11H1C0.447715 11 0 10.5523 0 10C0 9.44772 0.447715 9 1 9H3V7C3 6.44772 3.44772 6 4 6Z" fill="#3B598D"/>
</svg>
