<svg width="24" height="24" viewBox="0 0 24 24" fill="none" xmlns="http://www.w3.org/2000/svg">
    <path d="M7.90771 9.38379H10.1572C10.207 8.4458 10.8379 7.83984 11.7925 7.83984C12.7388 7.83984 13.3696 8.4126 13.3696 9.20117C13.3696 9.98975 13.0459 10.3965 11.9751 11.0356C10.8296 11.708 10.373 12.4551 10.481 13.7583L10.4976 14.2397H12.6973V13.7998C12.6973 12.9863 13.0044 12.5796 14.1084 11.9404C15.2788 11.2515 15.8848 10.3799 15.8848 9.12646C15.8848 7.23389 14.3159 5.91406 11.9419 5.91406C9.39355 5.91406 7.94922 7.3418 7.90771 9.38379ZM11.6265 18.2075C12.3818 18.2075 12.9878 17.6348 12.9878 16.9043C12.9878 16.1738 12.3818 15.6011 11.6265 15.6011C10.8794 15.6011 10.2734 16.1738 10.2734 16.9043C10.2734 17.6348 10.8794 18.2075 11.6265 18.2075Z" fill="#3B598D"/>
    <path fill-rule="evenodd" clip-rule="evenodd" d="M12 21C16.9706 21 21 16.9706 21 12C21 7.02944 16.9706 3 12 3C7.02944 3 3 7.02944 3 12C3 16.9706 7.02944 21 12 21ZM23 12C23 18.0751 18.0751 23 12 23C5.92487 23 1 18.0751 1 12C1 5.92487 5.92487 1 12 1C18.0751 1 23 5.92487 23 12Z" fill="#3B598D"/>
</svg>
