<svg width="24" height="24" viewBox="0 0 24 24" fill="#F54949" xmlns="http://www.w3.org/2000/svg">
    <path fill-rule="evenodd" clip-rule="evenodd"
          d="M10.2929 11.2929C9.90237 11.6834 9.90237 12.3166 10.2929 12.7071L15.2929 17.7071C15.6834 18.0976 16.3166 18.0976 16.7071 17.7071C17.0976 17.3166 17.0976 16.6834 16.7071 16.2929L13.4142 13H22C22.5523 13 23 12.5523 23 12C23 11.4477 22.5523 11 22 11H13.4142L16.7071 7.70711C17.0976 7.31658 17.0976 6.68342 16.7071 6.29289C16.3166 5.90237 15.6834 5.90237 15.2929 6.29289L10.2929 11.2929ZM11 5C11 5.55228 10.5523 6 10 6H7C5.89543 6 5 6.89543 5 8V16C5 17.1046 5.89543 18 7 18H10C10.5523 18 11 18.4477 11 19C11 19.5523 10.5523 20 10 20H7C4.79086 20 3 18.2091 3 16V8C3 5.79086 4.79086 4 7 4H10C10.5523 4 11 4.44772 11 5Z"
          />
</svg>
