<svg width="16" height="16" viewBox="0 0 16 16" fill="white" xmlns="http://www.w3.org/2000/svg">
<path d="M4.50032 1.99953C3.67366 1.99953 3.00061 2.67232 3 3.49946C3 4.32661 3.67306 4.99953 4.50032 4.99953C5.32729 4.99953 6 4.32661 6 3.49946C6 2.6724 5.32725 1.99953 4.50032 1.99953Z"/>
<path d="M5.77953 5.99953H3.22047C3.09874 5.99953 3 6.09051 3 6.20282V13.7963C3 13.9085 3.09874 13.9995 3.22047 13.9995H5.77948C5.90126 13.9995 6 13.9085 6 13.7963V6.20282C6.00005 6.09046 5.90131 5.99953 5.77953 5.99953Z"/>
<path d="M11.8994 5.99953C11.0098 5.99953 10.228 6.25951 9.7509 6.68346V6.28898C9.7509 6.17791 9.6571 6.08794 9.54142 6.08794H7.20948C7.0938 6.08794 7 6.17791 7 6.28898V13.7985C7 13.9096 7.0938 13.9995 7.20948 13.9995H9.63815C9.75384 13.9995 9.84764 13.9095 9.84764 13.7985V10.0832C9.84764 9.01718 10.0519 8.35645 11.0715 8.35645C12.0761 8.35762 12.1512 9.06614 12.1512 10.1469V13.7985C12.1512 13.9096 12.245 13.9995 12.3608 13.9995H14.7906C14.9062 13.9995 15 13.9095 15 13.7985V9.67922C15 7.966 14.6475 5.99953 11.8994 5.99953Z"/>
</svg>
