<svg width="12" height="16" viewBox="0 0 12 16" fill="none" xmlns="http://www.w3.org/2000/svg">
<path fill-rule="evenodd" clip-rule="evenodd" d="M2.25 3.63636C2.25 1.62806 3.92893 0 6 0C8.07107 0 9.75 1.62806 9.75 3.63636V5.81818C10.9926 5.81818 12 6.79501 12 8V12.3636C12 14.3719 10.3211 16 8.25 16H3.75C1.67893 16 0 14.3719 0 12.3636V8C0 6.79501 1.00736 5.81818 2.25 5.81818V3.63636ZM3.75 5.81818H8.25V3.63636C8.25 2.43138 7.24264 1.45455 6 1.45455C4.75736 1.45455 3.75 2.43138 3.75 3.63636V5.81818Z" fill="black" fill-opacity="0.32"/>
</svg>
