<svg width="16" height="16" viewBox="0 0 16 16" fill="#4D7DD0" xmlns="http://www.w3.org/2000/svg">
    <path fill-rule="evenodd" clip-rule="evenodd"
          d="M5.72716 5.77285C5.72716 4.51766 6.7447 3.50012 7.99989 3.50012C9.25508 3.50012 10.2726 4.51766 10.2726 5.77285V6.50542C11.0257 6.50542 11.6363 7.11594 11.6363 7.86906V10.2273C11.6363 11.4825 10.6187 12.5001 9.36352 12.5001H6.63625C5.38106 12.5001 4.36353 11.4825 4.36353 10.2273L4.36353 7.86906C4.36353 7.11594 4.97405 6.50542 5.72716 6.50542V5.77285ZM6.63625 6.50542H9.36352V5.77285C9.36352 5.01973 8.753 4.40921 7.99989 4.40921C7.24677 4.40921 6.63625 5.01973 6.63625 5.77285V6.50542Z"
          />
</svg>
