<svg width="16" height="16" viewBox="0 0 16 16" fill="none" xmlns="http://www.w3.org/2000/svg">
<path fill-rule="evenodd" clip-rule="evenodd" d="M11.8333 2.66667C10.4526 2.66667 9.33333 3.75204 9.33333 5.09091V6.54545H8H6.5H5.5C4.67157 6.54545 4 7.19667 4 7.99999V10.9091C4 12.248 5.11929 13.3333 6.5 13.3333H9.5C10.8807 13.3333 12 12.248 12 10.9091V7.99999C12 7.19667 11.3284 6.54545 10.5 6.54545H10.3334H10.3333V5.09091C10.3333 4.28759 11.0049 3.63637 11.8333 3.63637C12.6618 3.63637 13.3333 4.28759 13.3333 5.09091H14.3333C14.3333 3.75204 13.214 2.66667 11.8333 2.66667Z" fill="#4D7DD0"/>
</svg>
