<svg width="58" height="77" viewBox="0 0 58 77" fill="none" xmlns="http://www.w3.org/2000/svg">
<path fill-rule="evenodd" clip-rule="evenodd" d="M37.6565 15.7606C37.766 15.4321 38.2298 15.4294 38.3431 15.7566L39.0909 17.9155H41.205C41.5444 17.9155 41.6978 18.3401 41.4367 18.557L39.755 19.9541L40.2762 22.0357C40.3575 22.3603 39.9932 22.6124 39.7181 22.4219L38.0017 21.2336L36.2816 22.4221C36.0062 22.6124 35.6421 22.3598 35.7239 22.0352L36.2483 19.9541L34.5635 18.5572C34.3021 18.3405 34.4554 17.9155 34.795 17.9155H36.9382L37.6565 15.7606Z" fill="#FFBA28"/>
<path fill-rule="evenodd" clip-rule="evenodd" d="M49.5879 25.1125C49.7193 24.7182 50.2758 24.715 50.4118 25.1076L51.3091 27.6983H53.8461C54.2533 27.6983 54.4374 28.2078 54.1241 28.4681L52.1061 30.1446L52.7315 32.6426C52.829 33.0321 52.3919 33.3346 52.0617 33.106L50.002 31.68L47.938 33.1062C47.6075 33.3346 47.1706 33.0314 47.2687 32.6419L47.898 30.1446L45.8763 28.4684C45.5626 28.2083 45.7465 27.6983 46.154 27.6983H48.7259L49.5879 25.1125Z" fill="#FFBA28"/>
<path fill-rule="evenodd" clip-rule="evenodd" d="M24.7252 24.4083C24.8128 24.1455 25.1838 24.1433 25.2745 24.4051L25.8727 26.1322H27.564C27.8355 26.1322 27.9582 26.4719 27.7493 26.6454L26.404 27.7631L26.8209 29.4284C26.8859 29.6881 26.5945 29.8897 26.3744 29.7373L25.0013 28.7867L23.6252 29.7375C23.4049 29.8897 23.1136 29.6876 23.1791 29.4279L23.5986 27.7631L22.2508 26.6456C22.0416 26.4722 22.1643 26.1322 22.4359 26.1322H24.1505L24.7252 24.4083Z" fill="#FFBA28"/>
<path fill-rule="evenodd" clip-rule="evenodd" d="M49.4506 2.81662C49.6258 2.29094 50.3678 2.28661 50.5492 2.8102L51.7456 6.26438H55.1282C55.6712 6.26438 55.9166 6.94375 55.4989 7.29078L52.8082 9.52618L53.6421 12.8568C53.7721 13.3761 53.1892 13.7794 52.7491 13.4747L50.0028 11.5733L47.2507 13.475C46.8101 13.7794 46.2275 13.3752 46.3584 12.8559L47.1974 9.52617L44.5018 7.29115C44.0835 6.94435 44.3287 6.26438 44.8721 6.26438H48.3013L49.4506 2.81662Z" fill="#FFBA28"/>
<path fill-rule="evenodd" clip-rule="evenodd" d="M35.9798 29.7934C36.3302 28.742 37.8142 28.7334 38.1769 29.7805L40.5698 36.6889H47.3349C48.421 36.6889 48.9118 38.0477 48.0764 38.7417L42.6951 43.2125L44.3628 49.8737C44.6229 50.9124 43.4571 51.719 42.5767 51.1095L37.0842 47.3068L31.5801 51.1101C30.6988 51.719 29.5336 50.9106 29.7953 49.8719L31.4735 43.2125L26.0822 38.7425C25.2457 38.0489 25.7361 36.6889 26.8228 36.6889H33.6813L35.9798 29.7934Z" fill="#FFBA28"/>
<path fill-rule="evenodd" clip-rule="evenodd" d="M21.7336 37H6.5C3.18629 37 0.5 39.6863 0.5 43V65C0.5 68.3137 3.18629 71 6.5 71H38.5C41.8137 71 44.5 68.3137 44.5 65V55.1703C43.2236 55.5024 41.8003 55.3506 40.5 54.5279V64.1716L31.6163 55.2878C29.0089 55.6474 26.4546 53.8782 25.8758 51.3098L22.5 54.3241L7.59935 41H22.729C21.7881 39.8049 21.499 38.3534 21.7336 37ZM26.6514 55.9798L37.6716 67H7.65655L18.5229 56.1337L19.8381 57.3098L19.8425 57.3137C21.3581 58.6609 23.6419 58.6609 25.1575 57.3137L26.6514 55.9798ZM15.5364 53.4633L4.5 64.4997V43.5945L15.5364 53.4633Z" fill="#3B598D" stroke="#F0F0F0" stroke-width="0.5"/>
</svg>
