<svg width="24" height="24" viewBox="0 0 24 24" fill="white" xmlns="http://www.w3.org/2000/svg">
<path fill-rule="evenodd" clip-rule="evenodd" d="M16 4.93425C16 3.73621 14.6648 3.02162 13.6679 3.68618L8.69722 7H3C1.34772 7 0 8.34771 0 10V14C0 15.6523 1.34772 17 3 17V19.5C3 20.3284 3.67157 21 4.5 21H7.5C8.32843 21 9 20.3284 9 19.5V17.2018L13.668 20.3138C14.6648 20.9784 16 20.2638 16 19.0657V4.93425ZM9.68066 8.74807L14 5.86851V18.1315L9.57989 15.1847C9.3992 15.0643 9.18689 15 8.96972 15H8.1C7.49249 15 7 15.4925 7 16.1V19H5V16.1C5 15.4925 4.50751 15 3.9 15H3C2.45228 15 2 14.5477 2 14V10C2 9.45228 2.45228 9 3 9H8.84861C9.14475 9 9.43426 8.91234 9.68066 8.74807ZM21.7808 6.37519C21.4357 5.94397 20.8064 5.87412 20.3752 6.21918C19.944 6.56424 19.8742 7.19354 20.2192 7.62476C21.3063 8.98329 22 10.8775 22 13C22 15.1224 21.3063 17.0167 20.2192 18.3752C19.8742 18.8064 19.944 19.4357 20.3752 19.7808C20.8064 20.1258 21.4357 20.056 21.7808 19.6248C23.168 17.8911 24 15.5498 24 13C24 10.4502 23.168 8.1088 21.7808 6.37519ZM18.7808 9.37519C18.4357 8.94397 17.8064 8.87412 17.3752 9.21918C16.944 9.56424 16.8742 10.1935 17.2192 10.6248C17.6877 11.2103 18 12.0456 18 13C18 13.9544 17.6877 14.7897 17.2192 15.3752C16.8742 15.8064 16.944 16.4357 17.3752 16.7808C17.8064 17.1258 18.4357 17.056 18.7808 16.6248C19.5494 15.6642 20 14.3817 20 13C20 11.6182 19.5494 10.3358 18.7808 9.37519Z"/>
</svg>
