<svg width="24" height="24" viewBox="0 0 24 24" fill="white" xmlns="http://www.w3.org/2000/svg">
<path fill-rule="evenodd" clip-rule="evenodd" d="M17.6679 3.68618C18.6648 3.02162 20 3.73621 20 4.93425V19.0657C20 20.2638 18.6648 20.9784 17.668 20.3138L13 17.2018V19.5C13 20.3284 12.3284 21 11.5 21H8.5C7.67157 21 7 20.3284 7 19.5V17C5.34772 17 4 15.6523 4 14V10C4 8.34771 5.34772 7 7 7H12.6972L17.6679 3.68618ZM18 5.86851L13.6807 8.74807C13.4343 8.91234 13.1447 9 12.8486 9H7C6.45228 9 6 9.45228 6 10V14C6 14.5477 6.45228 15 7 15H7.9C8.50751 15 9 15.4925 9 16.1V19H11V16.1C11 15.4925 11.4925 15 12.1 15H12.9697C13.1869 15 13.3992 15.0643 13.5799 15.1847L18 18.1315V5.86851Z"/>
</svg>
