<svg width="24" height="24" viewBox="0 0 24 24" fill="black" xmlns="http://www.w3.org/2000/svg">
    <path d="M9.00143 4.90641L11 6.90497V5C11 4.44772 11.4477 4 12 4C12.5523 4 13 4.44772 13 5V8.90497L15 10.905V5C15 3.34315 13.6569 2 12 2C10.3745 2 9.05088 3.29286 9.00143 4.90641Z"
    />
    <path d="M16.7275 12.6324L18.2503 14.1552C18.7298 13.2071 19 12.1351 19 11V10C19 9.44771 18.5523 9 18 9C17.4477 9 17 9.44771 17 10V11C17 11.5716 16.9041 12.1208 16.7275 12.6324Z"
    />
    <path d="M5.24617 9.34291C5.09286 9.51864 5 9.74848 5 10V11C5 14.5265 7.60771 17.4439 11 17.9291V21C11 21.5523 11.4477 22 12 22C12.5523 22 13 21.5523 13 21V17.9291C13.2361 17.8953 13.4684 17.8498 13.6963 17.7931L11.9023 15.9991C9.21847 15.9476 7.05236 13.7815 7.00094 11.0977L5.24617 9.34291Z"
    />
    <path d="M4.26526 2.99872L2.9978 4.26617L19.7335 21.0019L21.001 19.7344L4.26526 2.99872Z"/>
</svg>
