<svg width="24" height="24" viewBox="0 0 24 24" fill="#80000000" xmlns="http://www.w3.org/2000/svg">
    <path fill-rule="evenodd" clip-rule="evenodd"
          d="M12 2C10.3431 2 9 3.34315 9 5V11C9 12.6569 10.3431 14 12 14C13.6569 14 15 12.6569 15 11V5C15 3.34315 13.6569 2 12 2ZM13 11V5C13 4.44772 12.5523 4 12 4C11.4477 4 11 4.44772 11 5V11C11 11.5523 11.4477 12 12 12C12.5523 12 13 11.5523 13 11Z"
          />
    <path d="M6 9C6.55228 9 7 9.44771 7 10V11C7 13.7614 9.23858 16 12 16C14.7614 16 17 13.7614 17 11V10C17 9.44771 17.4477 9 18 9C18.5523 9 19 9.44771 19 10V11C19 14.5265 16.3923 17.4439 13 17.9291V21C13 21.5523 12.5523 22 12 22C11.4477 22 11 21.5523 11 21V17.9291C7.60771 17.4439 5 14.5265 5 11V10C5 9.44771 5.44772 9 6 9Z"
          />
</svg>
