<svg width="16" height="16" viewBox="0 0 16 16" fill="none" xmlns="http://www.w3.org/2000/svg">
<path d="M3 9.00022V4.20733C3 3.76188 3.53857 3.53879 3.85355 3.85378L5.5 5.50022L7.56289 1.78697C7.75339 1.44406 8.24654 1.44406 8.43704 1.78696L10.5 5.50022L12.1464 3.85377C12.4614 3.53879 13 3.76188 13 4.20733V9.00022C13 9.55251 12.5523 10.0002 12 10.0002H4C3.44772 10.0002 3 9.55251 3 9.00022Z" fill="#4D7DD0"/>
<path d="M3 11.0002C2.44772 11.0002 2 11.4479 2 12.0002C2 12.5525 2.44772 13.0002 3 13.0002H13C13.5523 13.0002 14 12.5525 14 12.0002C14 11.4479 13.5523 11.0002 13 11.0002H3Z" fill="#4D7DD0"/>
</svg>
