<svg width="44" height="44" viewBox="0 0 44 44" fill="none" xmlns="http://www.w3.org/2000/svg">
<path d="M11.0876 8.75C9.63533 8.75 8.30707 9.18828 7.32492 9.92461C6.34399 10.66 5.67098 11.7291 5.67098 12.9598C5.67098 14.8368 6.0876 16.7066 6.80772 18.2274C6.44122 18.3653 5.98776 18.555 5.53439 18.8033C4.59313 19.319 3.33765 20.263 3.33765 21.781C3.33765 23.4033 4.14815 25.0448 5.92456 25.5644C7.10864 25.9108 8.73611 26.2184 10.7695 26.2477C11.404 25.5657 12.1367 25.0502 12.7589 24.6799C12.2402 24.7244 11.6828 24.75 11.0876 24.75C9.05313 24.75 7.45926 24.4505 6.34567 24.1248C5.39197 23.8458 4.83765 22.9498 4.83765 21.781C4.83765 21.172 5.35987 20.6093 6.25508 20.1189C6.66838 19.8924 7.09625 19.7183 7.4441 19.5912C7.48837 19.575 7.53111 19.5597 7.57222 19.5451C8.4461 20.7753 9.64271 21.6786 11.0876 21.6786C11.8687 21.6786 12.5771 21.4147 13.2013 20.9779C13.0812 20.412 12.984 19.8359 12.911 19.2537C12.3249 19.8707 11.6936 20.1786 11.0876 20.1786C10.2165 20.1786 9.29303 19.5422 8.52662 18.2661L8.51589 18.2482C8.48465 18.1958 8.45367 18.1424 8.42297 18.0879C7.65441 16.7236 7.17098 14.8606 7.17098 12.9598C7.17098 12.3099 7.52529 11.6491 8.22469 11.1248C8.92287 10.6013 9.92794 10.25 11.0876 10.25C12.2474 10.25 13.2524 10.6013 13.9506 11.1248C14.3157 11.3985 14.5867 11.7093 14.7624 12.0364C15.0487 11.7471 15.3568 11.4799 15.6811 11.2368C15.7614 11.1766 15.843 11.1175 15.9258 11.0598C15.6457 10.6277 15.2772 10.2446 14.8504 9.92461C13.8682 9.18828 12.54 8.75 11.0876 8.75Z" fill="#3B598D"/>
<path d="M38.0756 25.5644C36.891 25.9109 35.2627 26.2186 33.2282 26.2477C32.5922 25.565 31.8581 25.0494 31.2359 24.6795C31.7562 24.7242 32.3153 24.75 32.9125 24.75C34.9469 24.75 36.5408 24.4505 37.6545 24.1247C38.6082 23.8458 39.1625 22.9498 39.1625 21.781C39.1625 21.1742 38.6411 20.612 37.7457 20.1209C37.3324 19.8943 36.9045 19.7197 36.5564 19.5922C36.5119 19.5759 36.4688 19.5604 36.4275 19.5457C35.5536 20.7755 34.3572 21.6786 32.9125 21.6786C32.1314 21.6786 31.4229 21.4146 30.7987 20.9778C30.9189 20.4119 31.016 19.8358 31.089 19.2536C31.6752 19.8706 32.3065 20.1786 32.9125 20.1786C33.7836 20.1786 34.7071 19.5422 35.4735 18.2661L35.4844 18.2479C35.5156 18.1956 35.5465 18.1423 35.5772 18.0879C36.3457 16.7236 36.8291 14.8606 36.8291 12.9598C36.8291 12.3099 36.4748 11.6491 35.7754 11.1248C35.0773 10.6013 34.0722 10.25 32.9125 10.25C31.7528 10.25 30.7477 10.6013 30.0495 11.1248C29.6844 11.3985 29.4134 11.7094 29.2377 12.0365C28.9514 11.7471 28.6432 11.4799 28.3189 11.2368C28.2386 11.1766 28.1571 11.1176 28.0743 11.0599C28.3544 10.6277 28.7229 10.2446 29.1497 9.92461C30.1319 9.18828 31.4602 8.75 32.9125 8.75C34.3648 8.75 35.6931 9.18828 36.6752 9.92461C37.6561 10.66 38.3291 11.7291 38.3291 12.9598C38.3291 14.8371 37.9124 16.7072 37.192 18.2282C37.5588 18.3666 38.013 18.5567 38.4669 18.8057C39.4073 19.3214 40.6625 20.265 40.6625 21.781C40.6625 23.4033 39.852 25.0448 38.0756 25.5644Z" fill="#3B598D"/>
<path fill-rule="evenodd" clip-rule="evenodd" d="M22 10.75C19.8947 10.75 17.9831 11.3857 16.5808 12.437C15.1798 13.4873 14.25 14.9888 14.25 16.6896C14.25 19.6103 14.9357 22.5126 16.1006 24.8004C16.0337 24.8241 15.9637 24.8492 15.8912 24.8757C15.3231 25.0833 14.5848 25.3815 13.8503 25.7839C12.4499 26.5511 10.75 27.8717 10.75 29.9215C10.75 32.2416 11.9017 34.5175 14.3607 35.2367C16.1955 35.7734 18.7634 36.25 22 36.25C25.2365 36.25 27.8044 35.7734 29.6393 35.2367C32.0983 34.5175 33.25 32.2416 33.25 29.9215C33.25 27.8748 31.5507 26.5547 30.1513 25.7873C29.4172 25.3847 28.6791 25.0859 28.111 24.8778C28.0375 24.8509 27.9667 24.8254 27.8989 24.8013C29.0641 22.5134 29.75 19.6107 29.75 16.6896C29.75 14.9888 28.8202 13.4873 27.4192 12.437C26.0169 11.3857 24.1053 10.75 22 10.75ZM17.8233 24.8193L17.8342 24.8376C19.0153 26.8054 20.5003 27.8929 22 27.8929C23.4997 27.8929 24.9847 26.8054 26.1658 24.8376C26.1693 24.8314 26.173 24.8253 26.1767 24.8193C26.2263 24.7364 26.2753 24.6519 26.3237 24.5659C27.5115 22.4575 28.25 19.5983 28.25 16.6896C28.25 15.5697 27.6389 14.4764 26.5194 13.6371C25.4011 12.7988 23.8127 12.25 22 12.25C20.1873 12.25 18.5989 12.7988 17.4806 13.6371C16.3611 14.4764 15.75 15.5697 15.75 16.6896C15.75 19.5983 16.4885 22.4575 17.6763 24.5659C17.7247 24.6519 17.7737 24.7364 17.8233 24.8193ZM16.406 26.2846C16.578 26.2217 16.7349 26.1672 16.873 26.1201C18.1576 28.0293 19.9154 29.3929 22 29.3929C24.0844 29.3929 25.842 28.0296 27.1266 26.1208C27.2651 26.1682 27.4224 26.223 27.5949 26.2862C28.1262 26.4809 28.7873 26.75 29.4301 27.1025C30.7845 27.8453 31.75 28.7841 31.75 29.9215C31.75 31.7881 30.8545 33.3184 29.2182 33.797C27.5149 34.2952 25.0886 34.75 22 34.75C18.9113 34.75 16.485 34.2953 14.7818 33.7971C13.1455 33.3185 12.25 31.7881 12.25 29.9215C12.25 28.7807 13.2167 27.8414 14.571 27.0994C15.2138 26.7472 15.8749 26.4786 16.406 26.2846Z" fill="#3B598D"/>
</svg>
