<svg width="24" height="24" viewBox="0 0 24 24" fill="black" xmlns="http://www.w3.org/2000/svg">
    <path fill-rule="evenodd" clip-rule="evenodd"
          d="M15 5C15 3.23858 16.2386 1 19 1C21.7614 1 23 3.23858 23 5V8.27273C23 8.82501 22.5523 9.27273 22 9.27273C21.4477 9.27273 21 8.82501 21 8.27273V5C21 4.34315 20.6569 3 19 3C17.3431 3 17 4.34315 17 5V9C18.6569 9 20 10.3431 20 12V18C20 20.7614 17.7614 23 15 23H9C6.23858 23 4 20.7614 4 18V12C4 10.3431 5.34315 9 7 9H15V5ZM7 11C6.44772 11 6 11.4477 6 12V18C6 19.6569 7.34315 21 9 21H15C16.6569 21 18 19.6569 18 18V12C18 11.4477 17.5523 11 17 11H7Z"
          />
    <path d="M10 16C10 14.8954 10.8954 14 12 14C13.1046 14 14 14.8954 14 16C14 17.1046 13.1046 18 12 18C10.8954 18 10 17.1046 10 16Z"
          />
</svg>
