<svg width="20" height="20" viewBox="0 0 20 20" fill="white" xmlns="http://www.w3.org/2000/svg">
    <path fill-rule="evenodd" clip-rule="evenodd" d="M12.1983 0.576555C12.9671 -0.192185 14.2135 -0.192185 14.9822 0.576555L19.4234 5.01781C20.1922 5.78655 20.1922 7.03292 19.4234 7.80166L7.6031 19.622C7.36108 19.864 7.03283 20 6.69055 20H1.29054C0.577793 20 1.19209e-07 19.4222 1.19209e-07 18.7095L0 13.3095C4.17233e-07 12.9672 0.135964 12.6389 0.377991 12.3969L12.1983 0.576555ZM13.5903 2.01306L12.099 3.50429L16.4957 7.90097L17.9869 6.40973L13.5903 2.01306ZM15.0815 9.31518L10.6848 4.9185L2 13.6033V18H6.39668L15.0815 9.31518ZM11.3919 8.60807C11.7825 8.9986 11.7825 9.63176 11.3919 10.0223L6.54952 14.8647C6.15899 15.2552 5.52583 15.2552 5.1353 14.8647C4.74478 14.4742 4.74478 13.841 5.1353 13.4505L9.97771 8.60807C10.3682 8.21755 11.0014 8.21755 11.3919 8.60807Z"/>
</svg>