<svg width="40" height="40" viewBox="0 0 40 40" fill="black" xmlns="http://www.w3.org/2000/svg">
    <path fill-rule="evenodd" clip-rule="evenodd" d="M15.1115 5C12.6097 5 10.3061 5.75462 8.59035 7.04097C6.87727 8.32527 5.66706 10.2204 5.66706 12.4329C5.66706 15.4525 6.30168 18.4668 7.41552 20.9839C6.87977 21.1988 6.26879 21.471 5.65588 21.8068C4.07432 22.6732 1.77817 24.3524 1.77817 27.135C1.77817 29.9648 3.20017 32.9078 6.38939 33.8406C8.50126 34.4583 11.4332 35 15.1115 35C18.7897 35 21.7217 34.4583 23.8336 33.8406C27.0229 32.9078 28.4448 29.9649 28.4448 27.135C28.4448 24.3557 26.1491 22.6772 24.5693 21.8108C23.9553 21.4741 23.3432 21.2011 22.8068 20.9856C23.9211 18.4681 24.5559 15.4532 24.5559 12.4329C24.5559 10.2204 23.3457 8.32527 21.6327 7.04097C19.9169 5.75462 17.6133 5 15.1115 5ZM7.25742 24.7302C7.88948 24.3839 8.54723 24.1116 9.10049 23.9066C10.5888 25.8938 12.6233 27.381 15.1115 27.381C17.5993 27.381 19.6334 25.8944 21.1216 23.9078C21.6755 24.1135 22.3339 24.3866 22.9665 24.7335C24.4464 25.5451 25.1115 26.3763 25.1115 27.135C25.1115 28.9571 24.2589 30.2432 22.8978 30.6413C21.0783 31.1735 18.4612 31.6667 15.1115 31.6667C11.7617 31.6667 9.14461 31.1735 7.32518 30.6413C5.96422 30.2433 5.1115 28.957 5.1115 27.135C5.1115 26.3725 5.7782 25.5406 7.25742 24.7302ZM21.1193 20.3755L21.1301 20.3798C21.1225 20.3769 21.1193 20.3755 21.1193 20.3755ZM9.09556 20.3786L9.10666 20.3743C9.10666 20.3743 9.10341 20.3757 9.09556 20.3786ZM9.00039 12.4329C9.00039 11.5113 9.50238 10.5233 10.5898 9.70801C11.6746 8.89477 13.2599 8.33333 15.1115 8.33333C16.9631 8.33333 18.5484 8.89477 19.6332 9.70801C20.7206 10.5233 21.2226 11.5113 21.2226 12.4329C21.2226 15.5371 20.4317 18.5704 19.1896 20.7753C17.909 23.0486 16.4061 24.0476 15.1115 24.0476C13.817 24.0476 12.314 23.0486 11.0334 20.7753C9.79126 18.5704 9.00039 15.5371 9.00039 12.4329Z" fill="black" fill-opacity="0.54"/>
    <path fill-rule="evenodd" clip-rule="evenodd" d="M27.8607 11.6948C27.7692 10.5248 27.4635 9.4407 27.0044 8.4566C27.4781 8.3753 27.9611 8.33333 28.4449 8.33333C32.0813 8.33333 35.6671 10.7041 35.6671 14.3247C35.6671 16.4946 35.2593 18.6676 34.5301 20.5326C34.826 20.6683 35.142 20.8269 35.4597 21.0098C36.6317 21.6846 38.4449 23.0547 38.4449 25.3513C38.4449 27.5459 37.3914 29.9873 34.8301 30.7739C33.7807 31.0962 32.4627 31.3898 30.8927 31.5469C31.3696 30.4164 31.6431 29.2268 31.7389 28.0755C32.5626 27.9406 33.2683 27.7666 33.8515 27.5875C34.5403 27.3759 35.1116 26.6455 35.1116 25.3513C35.1116 24.9944 34.8099 24.482 33.7963 23.8984C33.502 23.729 33.1968 23.5833 32.9097 23.4601C32.4897 24.0004 32.0102 24.4935 31.4724 24.8959C31.1361 23.7107 30.553 22.7104 29.8775 21.8783C30.2204 21.5362 30.5774 21.0576 30.9264 20.407C31.7797 18.8167 32.3338 16.6026 32.3338 14.3247C32.3338 13.2441 31.0276 11.6667 28.4449 11.6667C28.2423 11.6667 28.0475 11.6764 27.8607 11.6948ZM32.9249 19.8998C32.9249 19.8998 32.9313 19.9021 32.9416 19.9064C32.9297 19.9019 32.9249 19.8998 32.9249 19.8998Z" fill="black" fill-opacity="0.54"/>
</svg>
