<svg width="20" height="20" viewBox="0 0 20 20" fill="black" xmlns="http://www.w3.org/2000/svg">
    <path fill-rule="evenodd" clip-rule="evenodd" d="M7.55575 2.5C6.30484 2.5 5.15307 2.87731 4.29517 3.52048C3.43863 4.16264 2.83353 5.11021 2.83353 6.21646C2.83353 7.72626 3.15084 9.23339 3.70776 10.492C3.43989 10.5994 3.13439 10.7355 2.82794 10.9034C2.03716 11.3366 0.889084 12.1762 0.889084 13.5675C0.889084 14.9824 1.60009 16.4539 3.19469 16.9203C4.25063 17.2292 5.7166 17.5 7.55575 17.5C9.39485 17.5 10.8608 17.2292 11.9168 16.9203C13.5114 16.4539 14.2224 14.9824 14.2224 13.5675C14.2224 12.1779 13.0745 11.3386 12.2846 10.9054C11.9777 10.7371 11.6716 10.6005 11.4034 10.4928C11.9605 9.23404 12.278 7.72658 12.278 6.21646C12.278 5.11021 11.6729 4.16264 10.8163 3.52048C9.95843 2.87731 8.80666 2.5 7.55575 2.5ZM3.62871 12.3651C3.94474 12.192 4.27362 12.0558 4.55025 11.9533C5.29439 12.9469 6.31163 13.6905 7.55575 13.6905C8.79963 13.6905 9.8167 12.9472 10.5608 11.9539C10.8378 12.0568 11.167 12.1933 11.4832 12.3667C12.2232 12.7725 12.5558 13.1882 12.5558 13.5675C12.5558 14.4785 12.1294 15.1216 11.4489 15.3207C10.5392 15.5868 9.23058 15.8333 7.55575 15.8333C5.88086 15.8333 4.57231 15.5868 3.66259 15.3207C2.98211 15.1216 2.55575 14.4785 2.55575 13.5675C2.55575 13.1862 2.8891 12.7703 3.62871 12.3651ZM10.5596 10.1878L10.565 10.1899C10.5612 10.1884 10.5596 10.1878 10.5596 10.1878ZM4.54778 10.1893L4.55333 10.1871C4.55333 10.1871 4.5517 10.1878 4.54778 10.1893ZM4.5002 6.21646C4.5002 5.75563 4.75119 5.26164 5.29492 4.854C5.83729 4.44738 6.62997 4.16667 7.55575 4.16667C8.48153 4.16667 9.27421 4.44738 9.81658 4.854C10.3603 5.26164 10.6113 5.75563 10.6113 6.21646C10.6113 7.76855 10.2159 9.28518 9.5948 10.3876C8.95448 11.5243 8.20303 12.0238 7.55575 12.0238C6.90848 12.0238 6.15702 11.5243 5.5167 10.3876C4.89563 9.28518 4.5002 7.76855 4.5002 6.21646Z" />
    <path fill-rule="evenodd" clip-rule="evenodd" d="M13.9303 5.84739C13.8846 5.26241 13.7317 4.72035 13.5022 4.2283C13.7391 4.18765 13.9805 4.16667 14.2224 4.16667C16.0406 4.16667 17.8336 5.35203 17.8336 7.16235C17.8336 8.2473 17.6296 9.3338 17.265 10.2663C17.413 10.3342 17.571 10.4134 17.7298 10.5049C18.3159 10.8423 19.2224 11.5273 19.2224 12.6756C19.2224 13.773 18.6957 14.9936 17.415 15.387C16.8904 15.5481 16.2313 15.6949 15.4464 15.7734C15.6848 15.2082 15.8215 14.6134 15.8695 14.0377C16.2813 13.9703 16.6341 13.8833 16.9257 13.7937C17.2702 13.688 17.5558 13.3228 17.5558 12.6756C17.5558 12.4972 17.4049 12.241 16.8982 11.9492C16.751 11.8645 16.5984 11.7916 16.4548 11.7301C16.2448 12.0002 16.0051 12.2468 15.7362 12.448C15.5681 11.8553 15.2765 11.3552 14.9388 10.9392C15.1102 10.7681 15.2887 10.5288 15.4632 10.2035C15.8898 9.40833 16.1669 8.30132 16.1669 7.16235C16.1669 6.62205 15.5138 5.83333 14.2224 5.83333C14.1211 5.83333 14.0238 5.83819 13.9303 5.84739ZM16.4625 9.9499C16.4625 9.9499 16.4657 9.95107 16.4708 9.95322C16.4648 9.95095 16.4625 9.9499 16.4625 9.9499Z" />
</svg>
