<svg width="16" height="16" viewBox="0 0 16 16" fill="none" xmlns="http://www.w3.org/2000/svg">
<path d="M7.99988 3C7.75117 3 7.54956 3.20161 7.54956 3.45032V7.54981H3.45032C3.20161 7.54981 3 7.75142 3 8.00012C3 8.24883 3.20161 8.45044 3.45032 8.45044H7.54956V12.5497C7.54956 12.7984 7.75117 13 7.99988 13C8.24858 13 8.45019 12.7984 8.45019 12.5497V8.45044H12.5497C12.7984 8.45044 13 8.24883 13 8.00012C13 7.75142 12.7984 7.54981 12.5497 7.54981H8.45019V3.45032C8.45019 3.20161 8.24858 3 7.99988 3Z" fill="white" stroke="white" stroke-width="0.6" stroke-linecap="round" stroke-linejoin="round"/>
</svg>
