<svg width="16" height="16" viewBox="0 0 16 16" fill="black" xmlns="http://www.w3.org/2000/svg">
    <path d="M12.3824 3.25383H3.61765C2.72568 3.25383 2 3.97951 2 4.87148V10.5903C2 11.4823 2.72568 12.2079 3.61765 12.2079H12.3824C13.2743 12.2079 14 11.4823 14 10.5903V4.87148C14 3.97951 13.2743 3.25383 12.3824 3.25383ZM10.3621 5.15737C11.2017 5.15737 11.8848 5.84096 11.8848 6.68119C11.8848 7.52143 11.2017 8.20502 10.3621 8.20502C9.52247 8.20502 8.83941 7.52143 8.83941 6.68119C8.83941 5.84093 9.5225 5.15737 10.3621 5.15737ZM5.70826 9.56914H4.18044C3.93679 9.56914 3.73926 9.37161 3.73926 9.12797C3.73926 8.88432 3.93679 8.68679 4.18044 8.68679H5.70826C5.95191 8.68679 6.14944 8.88432 6.14944 9.12797C6.14944 9.37161 5.95191 9.56914 5.70826 9.56914ZM5.70826 7.80443H4.18044C3.93679 7.80443 3.73926 7.6069 3.73926 7.36326C3.73926 7.11961 3.93679 6.92208 4.18044 6.92208H5.70826C5.95191 6.92208 6.14944 7.11961 6.14944 7.36326C6.14944 7.6069 5.95191 7.80443 5.70826 7.80443ZM7.23609 6.03972H4.18044C3.93679 6.03972 3.73926 5.84219 3.73926 5.59854C3.73926 5.3549 3.93679 5.15737 4.18044 5.15737H7.23609C7.47973 5.15737 7.67726 5.3549 7.67726 5.59854C7.67726 5.84219 7.47973 6.03972 7.23609 6.03972ZM12.4256 9.86326C12.4256 10.1069 12.2281 10.3044 11.9844 10.3044H8.73982C8.49618 10.3044 8.29865 10.1069 8.29865 9.86326V9.38611C8.29865 8.99429 8.40847 8.62764 8.59885 8.31529C9.03844 8.7897 9.66603 9.08735 10.3621 9.08735C11.0581 9.08735 11.6858 8.78967 12.1254 8.31529C12.3158 8.62764 12.4256 8.99429 12.4256 9.38611V9.86326H12.4256Z"/>
</svg>
