<svg width="44" height="44" viewBox="0 0 44 44" fill="none" xmlns="http://www.w3.org/2000/svg">
    <g opacity="0.7">
        <circle cx="22" cy="22" r="15.25" stroke="black" stroke-width="1.5" stroke-linecap="round"
                stroke-linejoin="round"/>
        <path d="M10.9876 11.4403C10.9876 11.4403 12.5775 12.5923 13.0555 14.0556C13.3927 15.0876 12.2719 16.1389 13.1805 17.2639C14.0892 18.3889 16.309 17.9743 17.1104 18.7132C17.9119 19.4521 18.8509 21.2152 19.3793 20.9199C19.9077 20.6246 19.9388 20.1118 19.9388 19.428C19.9388 18.7443 18.68 17.7652 18.9753 16.5997C19.2705 15.4342 20.0165 14.2065 21.0577 14.2065C22.0988 14.2065 22.75 15.5 23.6111 15.5C24.4722 15.5 23.886 13.5072 25.2224 11.8755C26.5589 10.2438 28.9521 8.86069 28.9521 8.86069"
              stroke="black" stroke-width="1.5" stroke-linecap="round" stroke-linejoin="round"/>
        <path d="M24.1016 36.9687C24.1016 36.9687 23.3672 34.1484 19.5253 29.4464C16.7603 26.6495 20.6475 25.9662 20.6475 23.3673C20.6475 20.9066 24.1733 23.084 25.908 22.3114C27.6348 21.5423 29.8263 21.8736 31.138 23.014C32.9344 24.5758 31.9132 27.918 31.138 29.2385C29.2188 33.2812 29.7266 35.0859 29.7266 35.0859"
              stroke="black" stroke-width="1.5" stroke-linecap="round" stroke-linejoin="round"/>
    </g>
</svg>
