<svg width="24" height="24" viewBox="0 0 24 24" fill="none" xmlns="http://www.w3.org/2000/svg">
<path d="M5.6016 16.3939C5.55538 16.2558 5.5178 16.1358 5.4842 16.0285C5.41257 15.7998 5.35903 15.6289 5.27848 15.4632C5.17512 15.2506 5.03375 15.0717 4.72442 14.8808C4.67642 14.8512 4.62617 14.821 4.57256 14.7888C4.49639 14.743 4.39156 14.6897 4.2659 14.6257L4.26583 14.6257C3.32914 14.149 1.23573 13.0838 1.23568 10.1788C1.23565 8.38994 1.80507 6.92242 2.78876 5.80531C3.76845 4.69274 5.13733 3.9518 6.70233 3.56891C8.23914 3.19291 9.49869 3.10841 10.4827 3.2045C11.4588 3.29982 12.194 3.57633 12.6471 3.9544C12.9601 4.21553 13.1196 4.52481 13.1253 4.85034C13.1298 5.10998 13.0355 5.3313 12.9259 5.49561C13.108 5.83288 13.0931 6.22561 13.0833 6.48148L13.083 6.4915L13.0805 6.55558L13.0805 6.55567C13.0751 6.69158 13.0708 6.80017 13.077 6.90035C13.084 7.01427 13.1031 7.06906 13.1182 7.09481C13.1835 7.20563 13.2353 7.28861 13.2843 7.36725C13.4089 7.56694 13.5161 7.73866 13.7828 8.26746C13.8264 8.2963 13.8813 8.33278 13.9377 8.37056C14.0007 8.41285 14.067 8.45774 14.1214 8.49567L14.1247 8.49797L14.1247 8.49798C14.1526 8.51739 14.1963 8.54783 14.2337 8.57782C14.6669 8.86122 14.8242 8.9748 14.9994 9.10138L14.9994 9.10139C15.0991 9.17344 15.2047 9.2497 15.3704 9.3639C15.5476 9.48611 15.6696 9.69381 15.671 9.92624C15.6725 10.1813 15.5301 10.4048 15.2968 10.5349C15.2109 10.5828 15.0112 10.6858 14.8211 10.7806L15.0118 11.1416C15.0984 11.3056 15.1061 11.5017 15.0272 11.6697C14.9434 11.848 14.762 11.9857 14.5294 11.9857C14.5312 11.9857 14.5304 11.9859 14.5266 11.9864C14.5153 11.988 14.4776 11.9933 14.4051 12.0103C14.3196 12.0304 14.2093 12.061 14.0815 12.1012C13.8261 12.1815 13.5153 12.2959 13.2163 12.4294C12.9139 12.5646 12.6412 12.7115 12.451 12.8532C12.4291 12.8695 12.4091 12.8851 12.3909 12.9001C12.8478 13.1494 13.2749 13.2284 13.628 13.2438C13.8476 13.2533 14.041 13.2383 14.2028 13.2215C14.2327 13.2184 14.2656 13.2148 14.2983 13.2111C14.345 13.206 14.3912 13.2009 14.427 13.1975C14.4845 13.1921 14.5746 13.1843 14.6584 13.1948C14.7782 13.2098 14.9701 13.2574 15.0926 13.4339C15.2228 13.6215 15.1841 13.8198 15.1511 13.9194C15.1168 14.0234 15.0592 14.1155 15.0148 14.1804C14.9755 14.2379 14.9318 14.2947 14.8941 14.3428C14.89 14.3535 14.8847 14.3684 14.8785 14.3877C14.8612 14.4416 14.8427 14.512 14.8281 14.5833C14.8195 14.6251 14.8132 14.6625 14.8092 14.6938C15.0047 14.9442 15.0796 15.2905 15.0675 15.5893C15.0528 15.9562 14.9012 16.3936 14.496 16.6422C14.2052 16.8205 13.9591 16.9084 13.6547 16.944C13.4399 16.9691 13.188 16.9678 12.8836 16.9661C12.8038 16.9657 12.7204 16.9652 12.6332 16.9652L12.6131 16.9652L12.6042 16.9643C12.6003 16.9645 12.5911 16.9648 12.5753 16.966C12.5454 16.9681 12.5049 16.9723 12.4561 16.9786C12.3587 16.9912 12.2399 17.0108 12.127 17.0347C12.0295 17.0554 11.9486 17.0768 11.8925 17.0959C11.8036 17.2068 11.7581 17.361 11.7589 17.5747C11.7598 17.7934 11.809 18.0355 11.8724 18.2823C11.9546 18.6024 11.8939 18.9242 11.6938 19.1678C11.4963 19.4082 11.1973 19.5312 10.8793 19.5312L5.6016 19.5312L5.6016 19.1234L5.6016 16.3939Z" fill="#EDB901"/>
<path d="M20.3883 6.71462C19.9453 6.42101 19.3272 6.5274 19.0078 6.9522C18.6884 7.37693 18.7886 7.95928 19.2317 8.25282C20.3022 8.96212 21.0081 10.0296 21.2192 11.2584C21.4304 12.4874 21.1207 13.7298 20.3473 14.7564C20.0276 15.1809 20.1273 15.7633 20.57 16.0572C20.7916 16.2043 21.057 16.2513 21.307 16.2083C21.5567 16.1654 21.791 16.0328 21.9507 15.8207C23.0337 14.3832 23.4673 12.6437 23.1717 10.923C22.8761 9.20258 21.8876 7.70798 20.3883 6.71462Z" fill="#EDB901"/>
<path d="M16.9165 11.3282C16.4736 11.0346 16.3735 10.4522 16.6931 10.0276C17.0126 9.60286 17.6308 9.49666 18.0736 9.7903C19.4004 10.6699 19.7011 12.4204 18.744 13.6924C18.5843 13.9047 18.3498 14.0375 18.1 14.0804C17.8503 14.1233 17.585 14.0764 17.3635 13.9296C16.9205 13.6359 16.8205 13.0535 17.14 12.6289C17.2945 12.4235 17.3565 12.1751 17.3143 11.9294C17.2721 11.6838 17.1308 11.4703 16.9165 11.3282Z" fill="#EDB901"/>
</svg>
