<svg width="16" height="16" viewBox="0 0 16 16" fill="white" xmlns="http://www.w3.org/2000/svg">
<path d="M3.65614 10.6857L3.65614 10.6857C3.60838 10.5332 3.57269 10.4193 3.51899 10.3088C3.45008 10.167 3.35583 10.0478 3.14961 9.92055C3.11761 9.9008 3.08411 9.88066 3.04837 9.85918C2.99758 9.82866 2.92768 9.79309 2.84389 9.75045C2.21943 9.43268 0.82382 8.7225 0.823787 6.78586C0.823766 5.59329 1.20338 4.61494 1.85917 3.8702C2.5123 3.12849 3.42489 2.63453 4.46822 2.37927C5.49276 2.1286 6.33246 2.07227 6.98847 2.13633C7.63918 2.19987 8.12931 2.38422 8.43142 2.63626C8.64009 2.81035 8.74638 3.01654 8.75017 3.23356C8.75321 3.40665 8.69035 3.55419 8.61728 3.66374C8.73869 3.88858 8.72873 4.1504 8.72223 4.32098L8.72198 4.32766L8.72031 4.37038L8.72031 4.37044C8.71673 4.46105 8.71387 4.53344 8.71798 4.60023C8.72267 4.67617 8.73539 4.7127 8.74549 4.72987C8.78899 4.80372 8.82349 4.85902 8.85618 4.91142L8.85623 4.91149C8.93928 5.04462 9.01071 5.1591 9.18851 5.51164C9.21758 5.53086 9.25421 5.55518 9.29177 5.58037C9.33382 5.60856 9.378 5.63849 9.41428 5.66378L9.41648 5.66531L9.41651 5.66533C9.43509 5.67828 9.4642 5.69856 9.48911 5.71854C9.77795 5.90748 9.88277 5.98319 9.99959 6.06758C10.0661 6.11561 10.1365 6.16646 10.2469 6.24259C10.3651 6.32407 10.4464 6.46253 10.4473 6.61749C10.4484 6.78751 10.3534 6.93655 10.1979 7.02327C10.1406 7.0552 10.0075 7.12385 9.88071 7.18706L10.0078 7.42771C10.0656 7.53703 10.0707 7.66782 10.0181 7.77981C9.96229 7.89868 9.84137 7.99049 9.68624 7.99049C9.68748 7.99049 9.68694 7.99057 9.6844 7.99092L9.68439 7.99092C9.67684 7.99199 9.65173 7.99552 9.60341 8.00687C9.54641 8.02025 9.47284 8.04063 9.38768 8.06743C9.21738 8.12102 9.0102 8.19725 8.8109 8.28628C8.60924 8.37636 8.42747 8.47433 8.30064 8.5688C8.28609 8.57964 8.27277 8.59006 8.26061 8.60004C8.56517 8.76628 8.84991 8.81896 9.08536 8.82919C9.23171 8.83555 9.36066 8.82556 9.46856 8.81434L9.53219 8.80743L9.53222 8.80742C9.56334 8.80398 9.59412 8.80057 9.61797 8.79832C9.65634 8.7947 9.71641 8.78953 9.77225 8.79651C9.85216 8.8065 9.98005 8.83826 10.0617 8.95591C10.1486 9.08099 10.1227 9.21319 10.1007 9.27961C10.0778 9.34893 10.0395 9.41035 10.0099 9.45359C9.98366 9.49193 9.95451 9.52981 9.92938 9.56188C9.92665 9.56897 9.92312 9.57891 9.91899 9.59178C9.90746 9.62774 9.89511 9.67467 9.88538 9.72217C9.87967 9.75005 9.8755 9.77502 9.87278 9.79589C10.0031 9.96283 10.0531 10.1937 10.045 10.3928C10.0352 10.6375 9.93415 10.929 9.664 11.0948C9.47016 11.2137 9.3061 11.2722 9.10315 11.296C8.95993 11.3127 8.79203 11.3118 8.58905 11.3107C8.53587 11.3104 8.48029 11.3101 8.42211 11.3101L8.40876 11.3101L8.40283 11.3096C8.40019 11.3096 8.39405 11.3099 8.38352 11.3106C8.36362 11.3121 8.33659 11.3149 8.30409 11.3191C8.23913 11.3275 8.15993 11.3405 8.08466 11.3565C8.01966 11.3703 7.96571 11.3846 7.92836 11.3972C7.86907 11.4712 7.83874 11.574 7.83928 11.7164C7.83984 11.8623 7.87269 12.0237 7.91495 12.1882C7.96975 12.4016 7.9293 12.6161 7.79585 12.7785C7.66417 12.9388 7.46486 13.0208 7.25284 13.0208L3.7344 13.0208L3.7344 12.7489L3.7344 10.9292C3.70359 10.8372 3.67854 10.7572 3.65614 10.6857Z"/>
<path d="M13.5922 4.47643C13.2968 4.28069 12.8847 4.35162 12.6718 4.63481C12.4589 4.91797 12.5257 5.3062 12.8211 5.50189C13.5347 5.97476 14.0053 6.68638 14.1461 7.50564C14.2869 8.32498 14.0804 9.15318 13.5648 9.83763C13.3517 10.1206 13.4182 10.5089 13.7133 10.7048C13.861 10.8029 14.038 10.8342 14.2046 10.8056C14.3711 10.777 14.5273 10.6885 14.6338 10.5472C15.3558 9.5888 15.6448 8.42917 15.4477 7.282C15.2507 6.13507 14.5917 5.13867 13.5922 4.47643Z"/>
<path d="M11.2777 7.55218C10.9823 7.35639 10.9156 6.96814 11.1287 6.68505C11.3417 6.40192 11.7538 6.33112 12.049 6.52688C12.9335 7.11327 13.134 8.28028 12.496 9.12827C12.3895 9.26983 12.2332 9.35834 12.0667 9.38695C11.9001 9.41556 11.7233 9.38429 11.5756 9.2864C11.2803 9.09061 11.2136 8.70236 11.4266 8.41927C11.5297 8.28234 11.5709 8.11672 11.5428 7.95297C11.5147 7.78921 11.4205 7.64687 11.2777 7.55218Z"/>
</svg>
