<svg width="24" height="24" viewBox="0 0 24 24" fill="none" xmlns="http://www.w3.org/2000/svg">
<path d="M19.2891 11.9348L16.0065 19.1061C15.401 20.3529 13.1614 21 11.7765 21H10.7482C8.10484 21 6.11658 18.8613 5.90255 16.2242C5.79694 14.9443 5.60438 13.1724 5.43752 11.9088L5.00981 8.67801C4.97882 8.44206 5.02092 8.20225 5.13046 7.99102C5.24 7.77978 5.4117 7.60728 5.62234 7.49681C6.32992 7.12551 7.16493 7.5736 7.31207 8.37328C7.63418 10.1347 7.50216 10.8343 7.72182 12.1779C7.35958 5.01289 7.32403 5.30142 7.4666 4.94773C7.51246 4.83115 7.57483 4.72176 7.65178 4.62292C8.40441 3.66085 9.92622 4.16496 9.98642 5.35883C10.0051 5.7326 10.0758 11.3388 10.1691 11.6872C10.1691 3.77394 10.1635 4.2622 10.1797 4.14031C10.2702 3.46217 10.8616 3.00173 11.4076 3.00173C11.5843 2.99261 11.7611 3.01956 11.9271 3.08093C12.0932 3.14229 12.245 3.2368 12.3734 3.35871C12.5019 3.48062 12.6042 3.62739 12.6741 3.79009C12.7441 3.9528 12.7803 4.12803 12.7805 4.30516L12.7044 11.7404C12.7991 8.42647 13.0107 4.93046 13.1107 4.65357C13.3166 4.05118 14.0119 3.65345 14.6871 3.84579C15.2151 3.97085 15.6594 4.50914 15.6414 5.14148L15.4038 12.4928L15.3918 14.3715C15.3918 14.889 15.0701 14.7823 15.338 14.3782C16.3324 11.8823 16.242 12.1004 16.2958 11.9989C16.8788 10.9069 18.0056 10.3844 18.4583 10.444C19.1575 10.4961 19.6239 11.2454 19.2891 11.9348Z" fill="#FFCF3D"/>
<path fill-rule="evenodd" clip-rule="evenodd" d="M13.7836 13.9669C13.8443 13.9789 13.9069 13.9913 13.9716 14.004C14.0956 14.0284 14.2159 13.9476 14.2403 13.8235C14.2647 13.6994 14.1839 13.5791 14.0599 13.5547C13.9965 13.5422 13.9349 13.53 13.8751 13.5182C12.8145 13.3083 12.2711 13.2008 10.9167 13.3188C9.55775 13.4372 8.91073 13.6787 7.72092 14.1227C7.65735 14.1464 7.59223 14.1707 7.52537 14.1956C7.40693 14.2397 7.34664 14.3716 7.39071 14.4901C7.43478 14.6086 7.56651 14.669 7.68496 14.6249C7.75036 14.6005 7.81397 14.5768 7.87597 14.5536C9.06213 14.111 9.6599 13.888 10.9564 13.775C12.2462 13.6627 12.7408 13.7605 13.7836 13.9669Z" fill="#FFBA28"/>
<path fill-rule="evenodd" clip-rule="evenodd" d="M14.6214 14.9156C14.5875 14.7938 14.4613 14.7226 14.3396 14.7565C13.2423 15.0625 12.628 15.3578 11.8917 16.0025C11.5088 16.3378 11.1574 16.8516 10.902 17.4016C10.6467 17.9515 10.4759 18.5619 10.4759 19.0987C10.4759 19.2252 10.5783 19.3277 10.7047 19.3277C10.8311 19.3277 10.9335 19.2252 10.9335 19.0987C10.9335 18.6492 11.0796 18.1059 11.317 17.5946C11.5545 17.0833 11.872 16.6283 12.1931 16.3472C12.8649 15.7589 13.4123 15.4905 14.4624 15.1977C14.5842 15.1637 14.6554 15.0374 14.6214 14.9156Z" fill="#FFBA28"/>
</svg>
