<svg width="24" height="24" viewBox="0 0 24 24" fill="#212121" xmlns="http://www.w3.org/2000/svg">
    <path fill-rule="evenodd" clip-rule="evenodd"
          d="M23.759 1.65081C24.1184 1.23148 24.0699 0.600184 23.6505 0.240762C23.2312 -0.118661 22.5999 -0.0700991 22.2405 0.349227L16.9433 6.52932L13.7069 3.29291C13.3163 2.90239 12.6832 2.90239 12.2926 3.29291C11.9021 3.68344 11.9021 4.3166 12.2926 4.70713L16.2926 8.70713C16.4896 8.90409 16.7598 9.00997 17.0381 8.99928C17.3165 8.98859 17.5777 8.8623 17.759 8.65081L23.759 1.65081ZM8.86923 3.44721C9.29558 3.23404 9.73826 3.06698 10.1902 2.94604C9.93702 3.6222 9.93627 4.37138 10.188 5.04796C10.0444 5.10378 9.90282 5.16649 9.76366 5.23607C8.06974 6.08303 6.99972 7.81434 6.99972 9.7082V13.3333C6.99972 13.9824 6.78919 14.614 6.39972 15.1333L4.99972 17H19.5855L17.8784 15.2929C17.3158 14.7303 16.9997 13.9672 16.9997 13.1716V11C17.038 11 17.0764 10.9993 17.1149 10.9978C17.8167 10.9708 18.4823 10.6989 18.9997 10.2361V13.1716C18.9997 13.4368 19.1051 13.6911 19.2926 13.8787L20.9997 15.5858C22.2597 16.8457 21.3673 19 19.5855 19H15.8737C15.4297 20.7252 13.8636 21.9999 11.9998 21.9999C10.1359 21.9999 8.56985 20.7252 8.12579 19H4.99973C3.35163 19 2.41087 17.1185 3.39972 15.8L4.79973 13.9333C4.92955 13.7602 4.99972 13.5497 4.99972 13.3333V9.7082C4.99972 7.0568 6.49774 4.63296 8.86923 3.44721ZM10.2673 19C10.6132 19.5978 11.2595 19.9999 11.9998 19.9999C12.74 19.9999 13.3863 19.5978 13.7322 19H10.2673Z"
          />
</svg>
