<svg width="24" height="24" viewBox="0 0 24 24" fill="#212121" xmlns="http://www.w3.org/2000/svg">
    <path fill-rule="evenodd" clip-rule="evenodd"
          d="M15.1302 3.44726C13.1595 2.46192 10.8399 2.46192 8.86923 3.44726C6.49774 4.63301 4.99972 7.05685 4.99972 9.70825V13.3334C4.99972 13.5498 4.92955 13.7603 4.79973 13.9334L3.39972 15.8C2.41087 17.1185 3.35163 19 4.99973 19H8.12579C8.56985 20.7253 10.1359 22 11.9998 22C13.8636 22 15.4297 20.7253 15.8737 19H19.5855C21.3673 19 22.2597 16.8458 20.9997 15.5858L19.2926 13.8787C19.1051 13.6912 18.9997 13.4368 18.9997 13.1716V9.70825C18.9997 7.05685 17.5017 4.63301 15.1302 3.44726ZM9.76366 5.23612C11.1713 4.5323 12.8282 4.5323 14.2358 5.23612C15.9297 6.08308 16.9997 7.81439 16.9997 9.70825V13.1716C16.9997 13.9673 17.3158 14.7303 17.8784 15.2929L19.5855 17H4.99972L6.39972 15.1334C6.78919 14.6141 6.99972 13.9825 6.99972 13.3334V9.70825C6.99972 7.81439 8.06974 6.08308 9.76366 5.23612ZM13.7322 19H10.2673C10.6132 19.5978 11.2595 20 11.9998 20C12.74 20 13.3863 19.5978 13.7322 19Z"
          />
</svg>
