<svg width="95" height="50" viewBox="0 0 95 50" fill="#4D7DD0" xmlns="http://www.w3.org/2000/svg">
<path d="M34.7942 38.5087C37.6067 38.8813 39.7827 41.2964 39.7827 44.2294C39.7827 47.4169 37.214 50 34.0493 50H27.4311C27.2566 50 27.0874 49.9877 26.9188 49.9755C26.8954 49.9738 26.8721 49.9721 26.8487 49.9705C26.4582 49.9886 26.0677 50 25.6727 50C11.9554 50 0.833984 38.8086 0.833984 25C0.833984 11.1937 11.9554 0 25.6727 0C26.0677 0 26.4582 0.0136313 26.8487 0.0318065C27.0406 0.0159032 27.2324 0 27.4311 0H34.7942C37.6067 0.368048 39.7827 2.78762 39.7827 5.72064C39.7827 8.90812 37.214 11.4913 34.0493 11.4913H26.1399C26.036 11.4913 25.9342 11.5 25.8304 11.5089L25.8239 11.5094C25.6163 11.4981 25.4041 11.4913 25.1896 11.4913C17.7768 11.4913 11.7681 17.5414 11.7681 25C11.7681 32.4609 17.7768 38.5087 25.1896 38.5087C25.4041 38.5087 25.6163 38.5042 25.8239 38.4951L25.8304 38.4955C25.9343 38.5022 26.036 38.5087 26.1399 38.5087H34.7942Z"/>
<path d="M60.8666 38.5087C58.0541 38.8813 55.8781 41.2964 55.8781 44.2294C55.8781 47.4169 58.4468 50 61.6115 50H68.2297C68.4042 50 68.5734 49.9877 68.742 49.9755C68.7654 49.9738 68.7887 49.9721 68.8121 49.9705C69.2026 49.9886 69.5931 50 69.9881 50C83.7054 50 94.8268 38.8086 94.8268 25C94.8268 11.1937 83.7054 0 69.9881 0C69.5931 0 69.2026 0.0136313 68.8121 0.0318065C68.6202 0.0159032 68.4284 0 68.2297 0H60.8666C58.0541 0.368048 55.8781 2.78762 55.8781 5.72064C55.8781 8.90812 58.4468 11.4913 61.6115 11.4913H69.5209C69.6248 11.4913 69.7266 11.5 69.8305 11.5089L69.8369 11.5094C70.0445 11.4981 70.2567 11.4913 70.4712 11.4913C77.8839 11.4913 83.8927 17.5414 83.8927 25C83.8927 32.4609 77.8839 38.5087 70.4712 38.5087C70.2567 38.5087 70.0445 38.5042 69.8369 38.4951L69.8304 38.4955C69.7266 38.5022 69.6248 38.5087 69.5209 38.5087H60.8666Z"/>
</svg>
