<svg width="60" height="77" viewBox="0 0 60 77" fill="none" xmlns="http://www.w3.org/2000/svg">
<path fill-rule="evenodd" clip-rule="evenodd" d="M39 38C45.6274 38 51 43.3726 51 50C51 56.6274 45.6274 62 39 62C32.3726 62 27 56.6274 27 50C27 43.3726 32.3726 38 39 38ZM55 50C55 41.1634 47.8366 34 39 34C30.1634 34 23 41.1634 23 50C23 53.6974 24.2542 57.1019 26.3603 59.8113L17.5858 68.5858C16.8047 69.3668 16.8047 70.6332 17.5858 71.4142C18.3668 72.1953 19.6332 72.1953 20.4142 71.4142L29.1887 62.6397C31.8981 64.7458 35.3026 66 39 66C47.8366 66 55 58.8366 55 50Z" fill="#3B598D"/>
<path fill-rule="evenodd" clip-rule="evenodd" d="M20.3435 15.7606C20.234 15.4321 19.7702 15.4294 19.6569 15.7566L18.9091 17.9155H16.795C16.4556 17.9155 16.3022 18.3401 16.5633 18.557L18.245 19.9541L17.7238 22.0357C17.6425 22.3603 18.0068 22.6124 18.2819 22.4219L19.9983 21.2336L21.7184 22.4221C21.9938 22.6124 22.3579 22.3598 22.2761 22.0352L21.7517 19.9541L23.4365 18.5572C23.6979 18.3405 23.5446 17.9155 23.205 17.9155H21.0618L20.3435 15.7606Z" fill="#FFBA28"/>
<path d="M19.0121 28.9658L19.0121 28.9658C20 26.1137 24.0419 26.1372 24.9965 29.0008L26.8391 34.5288H32.2561C35.2158 34.5288 36.5517 38.2328 34.2732 40.1219L33.0161 38.6058L34.2732 40.1219L29.853 43.7868L31.2229 49.2231L29.2932 49.7094L31.2229 49.2231C31.9358 52.0519 28.7621 54.2539 26.3618 52.5953C26.3618 52.5953 26.3618 52.5953 26.3618 52.5953L21.9957 49.5784L17.6406 52.5937L16.5021 50.9493L17.6406 52.5937C15.2428 54.2537 12.0676 52.057 12.7759 49.2278L14.1382 43.7869L9.7244 40.1199C7.44898 38.2295 8.78579 34.5288 11.7439 34.5288H17.0852L19.0121 28.9658Z" fill="#FFBA28" stroke="#F0F0F0" stroke-width="4"/>
<path fill-rule="evenodd" clip-rule="evenodd" d="M8.41213 25.1125C8.28071 24.7182 7.7242 24.715 7.58819 25.1076L6.69086 27.6983H4.15395C3.74666 27.6983 3.56261 28.2078 3.87589 28.4681L5.89389 30.1446L5.26849 32.6426C5.17096 33.0321 5.60813 33.3346 5.93826 33.106L7.99796 31.68L10.062 33.1062C10.3925 33.3346 10.8294 33.0314 10.7313 32.6419L10.102 30.1446L12.1237 28.4684C12.4374 28.2083 12.2535 27.6983 11.846 27.6983H9.27407L8.41213 25.1125Z" fill="#FFBA28"/>
<path fill-rule="evenodd" clip-rule="evenodd" d="M33.2748 24.4083C33.1872 24.1455 32.8162 24.1433 32.7255 24.4051L32.1273 26.1322H30.436C30.1645 26.1322 30.0418 26.4719 30.2507 26.6454L31.596 27.7631L31.1791 29.4284C31.1141 29.6881 31.4055 29.8897 31.6256 29.7373L32.9987 28.7867L34.3748 29.7375C34.5951 29.8897 34.8864 29.6876 34.8209 29.4279L34.4014 27.7631L35.7492 26.6456C35.9584 26.4722 35.8357 26.1322 35.5641 26.1322H33.8495L33.2748 24.4083Z" fill="#FFBA28"/>
<path fill-rule="evenodd" clip-rule="evenodd" d="M8.54942 2.81662C8.3742 2.29094 7.63219 2.28661 7.45083 2.8102L6.25439 6.26438H2.87185C2.3288 6.26438 2.0834 6.94375 2.50111 7.29078L5.19178 9.52618L4.35791 12.8568C4.22787 13.3761 4.81075 13.7794 5.25093 13.4747L7.9972 11.5733L10.7493 13.475C11.1899 13.7794 11.7725 13.3752 11.6416 12.8559L10.8026 9.52617L13.4982 7.29115C13.9165 6.94435 13.6713 6.26438 13.1279 6.26438H9.69868L8.54942 2.81662Z" fill="#FFBA28"/>
</svg>
