<svg width="64" height="64" viewBox="0 0 64 64" fill="#4D7DD0" xmlns="http://www.w3.org/2000/svg">
    <path fill-rule="evenodd" clip-rule="evenodd"
          d="M24.0007 10.6667C19.5824 10.6667 16.0007 14.2484 16.0007 18.6667H10.6673C7.7218 18.6667 5.33398 21.0545 5.33398 24V53.3334C5.33398 56.2789 7.7218 58.6667 10.6673 58.6667H53.334C56.2795 58.6667 58.6673 56.2789 58.6673 53.3334V24C58.6673 21.0545 56.2795 18.6667 53.334 18.6667H48.0007C48.0007 14.2484 44.4189 10.6667 40.0007 10.6667H24.0007ZM21.334 18.6667C21.334 17.1939 22.5279 16 24.0007 16H40.0007C41.4734 16 42.6673 17.1939 42.6673 18.6667V24H53.334V53.3334H10.6673V24H21.334V18.6667Z"
          />
    <path fill-rule="evenodd" clip-rule="evenodd"
          d="M31.9993 29.3333C27.5811 29.3333 23.9993 32.9151 23.9993 37.3333C23.9993 41.7516 27.5811 45.3333 31.9993 45.3333C36.4176 45.3333 39.9993 41.7516 39.9993 37.3333C39.9993 32.9151 36.4176 29.3333 31.9993 29.3333ZM18.666 37.3333C18.666 29.9695 24.6356 24 31.9993 24C39.3631 24 45.3327 29.9695 45.3327 37.3333C45.3327 44.6971 39.3631 50.6667 31.9993 50.6667C24.6356 50.6667 18.666 44.6971 18.666 37.3333Z"
          />
</svg>
