<svg width="16" height="16" viewBox="0 0 16 16" fill="black" xmlns="http://www.w3.org/2000/svg">
    <path d="M6.56812 12.8767C7.94604 12.8767 9.23267 12.4285 10.2786 11.6814L14.2131 15.616C14.3958 15.7986 14.6365 15.8899 14.8855 15.8899C15.425 15.8899 15.8152 15.4749 15.8152 14.9436C15.8152 14.6946 15.7322 14.4622 15.5496 14.2795L11.6399 10.3616C12.4617 9.28247 12.9514 7.94604 12.9514 6.49341C12.9514 2.98218 10.0793 0.110107 6.56812 0.110107C3.04858 0.110107 0.184814 2.98218 0.184814 6.49341C0.184814 10.0046 3.04858 12.8767 6.56812 12.8767ZM6.56812 11.4988C3.82056 11.4988 1.56274 9.23267 1.56274 6.49341C1.56274 3.75415 3.82056 1.48804 6.56812 1.48804C9.30737 1.48804 11.5735 3.75415 11.5735 6.49341C11.5735 9.23267 9.30737 11.4988 6.56812 11.4988Z"/>
</svg>