<svg width="24" height="24" viewBox="0 0 24 24" fill="none" xmlns="http://www.w3.org/2000/svg">
<path fill-rule="evenodd" clip-rule="evenodd" d="M9 3.5C7.34315 3.5 6 4.84315 6 6.5H4C2.89543 6.5 2 7.39543 2 8.5V19.5C2 20.6046 2.89543 21.5 4 21.5H20C21.1046 21.5 22 20.6046 22 19.5V8.5C22 7.39543 21.1046 6.5 20 6.5H18C18 4.84315 16.6569 3.5 15 3.5H9ZM8 6.5C8 5.94772 8.44772 5.5 9 5.5H15C15.5523 5.5 16 5.94772 16 6.5V8.5H20V19.5H4V8.5H8V6.5Z" fill="black" fill-opacity="0.87"/>
<path fill-rule="evenodd" clip-rule="evenodd" d="M12 10.5C10.3431 10.5 9 11.8431 9 13.5C9 15.1569 10.3431 16.5 12 16.5C13.6569 16.5 15 15.1569 15 13.5C15 11.8431 13.6569 10.5 12 10.5ZM7 13.5C7 10.7386 9.23858 8.5 12 8.5C14.7614 8.5 17 10.7386 17 13.5C17 16.2614 14.7614 18.5 12 18.5C9.23858 18.5 7 16.2614 7 13.5Z" fill="black" fill-opacity="0.87"/>
</svg>
