<svg width="24" height="24" viewBox="0 0 24 24" fill="#3B598D" xmlns="http://www.w3.org/2000/svg">
    <path fill-rule="evenodd" clip-rule="evenodd"
          d="M5.90737 6.30567C5.87601 6.36071 5.84444 6.41611 5.8126 6.47183L3.56531 10.4046C3.21903 11.0106 2.9804 11.8158 3.00389 12.408C3.0089 12.5342 3.03 12.6105 3.06307 12.6899C3.10478 12.79 3.16021 12.8869 3.27247 13.083C3.28558 13.1059 3.29947 13.1302 3.31419 13.156L5.8126 17.5282C5.84444 17.5839 5.87601 17.6393 5.90737 17.6943C6.26411 18.3204 6.59339 18.8982 6.98187 19.3485C7.39382 19.826 7.73751 20 8.07333 20H16.0733C16.4187 20 16.7621 19.8243 17.1705 19.3484C17.55 18.9063 17.8705 18.3428 18.2224 17.7242C18.262 17.6545 18.3021 17.5842 18.3426 17.5132L20.8325 13.156C20.8472 13.1302 20.8611 13.1059 20.8742 13.083C20.9864 12.8869 21.0419 12.79 21.0836 12.6899C21.1167 12.6105 21.1378 12.5342 21.1428 12.408C21.1663 11.8158 20.9276 11.0106 20.5813 10.4046L18.3426 6.48681C18.3021 6.41584 18.262 6.34548 18.2224 6.2758C17.8705 5.65724 17.55 5.0937 17.1705 4.65157C16.7621 4.17566 16.4187 4 16.0733 4H8.07333C7.73751 4 7.39382 4.17399 6.98187 4.65147C6.59339 5.10176 6.26411 5.67962 5.90737 6.30567ZM5.46756 3.34501C6.05764 2.66105 6.90539 2 8.07333 2H16.0733C17.2483 2 18.0966 2.65964 18.6882 3.34905C19.2029 3.94872 19.6234 4.69092 19.9591 5.28338C20.0004 5.35621 20.0404 5.42678 20.0791 5.49454L22.3178 9.41232C22.7945 10.2464 23.1834 11.4222 23.1412 12.4873C23.1126 13.2079 22.8446 13.6712 22.6223 14.0556C22.6042 14.087 22.5863 14.1178 22.5689 14.1482L20.0791 18.5055C20.0404 18.5732 20.0004 18.6438 19.9591 18.7166C19.6234 19.3091 19.2029 20.0513 18.6882 20.6509C18.0966 21.3404 17.2483 22 16.0733 22H8.07333C6.90539 22 6.05764 21.339 5.46756 20.655C4.94348 20.0475 4.51706 19.2966 4.17992 18.7029C4.14433 18.6402 4.10973 18.5793 4.07612 18.5204L1.57771 14.1482C1.56034 14.1178 1.5425 14.087 1.52437 14.0556C1.30202 13.6712 1.03406 13.2079 1.00547 12.4873C0.963207 11.4222 1.35219 10.2464 1.82882 9.41231L4.07612 5.47955C4.10973 5.42073 4.14433 5.3598 4.17992 5.29712C4.51706 4.70341 4.94348 3.95245 5.46756 3.34501ZM7.07333 12C7.07333 9.23858 9.3119 7 12.0733 7C14.8348 7 17.0733 9.23858 17.0733 12C17.0733 14.7614 14.8348 17 12.0733 17C9.3119 17 7.07333 14.7614 7.07333 12ZM12.0733 9C10.4165 9 9.07333 10.3431 9.07333 12C9.07333 13.6569 10.4165 15 12.0733 15C13.7302 15 15.0733 13.6569 15.0733 12C15.0733 10.3431 13.7302 9 12.0733 9Z"
          />
</svg>
