<svg width="24" height="24" viewBox="0 0 24 24" fill="white" xmlns="http://www.w3.org/2000/svg">
    <path fill-rule="evenodd" clip-rule="evenodd"
          d="M11.2929 2.29289C11.6834 1.90237 12.3166 1.90237 12.7071 2.29289L15.7071 5.29289C16.0976 5.68342 16.0976 6.31658 15.7071 6.70711C15.3166 7.09763 14.6834 7.09763 14.2929 6.70711L13 5.41421V15C13 15.5523 12.5523 16 12 16C11.4477 16 11 15.5523 11 15V5.41421L9.70711 6.70711C9.31658 7.09763 8.68342 7.09763 8.29289 6.70711C7.90237 6.31658 7.90237 5.68342 8.29289 5.29289L11.2929 2.29289ZM4 11.8C4 10.2536 5.2536 9 6.8 9H7C7.55228 9 8 9.44772 8 10C8 10.5523 7.55228 11 7 11H6.8C6.35817 11 6 11.3582 6 11.8V19C6 19.5523 6.44772 20 7 20H17C17.5523 20 18 19.5523 18 19V11.8C18 11.3582 17.6418 11 17.2 11H17C16.4477 11 16 10.5523 16 10C16 9.44772 16.4477 9 17 9H17.2C18.7464 9 20 10.2536 20 11.8V19C20 20.6569 18.6569 22 17 22H7C5.34315 22 4 20.6569 4 19V11.8Z"
          />
</svg>
