<svg width="16" height="16" viewBox="0 0 16 16" fill="none" xmlns="http://www.w3.org/2000/svg">
<path fill-rule="evenodd" clip-rule="evenodd" d="M8 2C6.89543 2 6 2.89543 6 4V7C6 8.10457 6.89543 9 8 9C9.10457 9 10 8.10457 10 7V4C10 2.89543 9.10457 2 8 2ZM4 6.25C4.41421 6.25 4.75 6.58579 4.75 7C4.75 8.79493 6.20507 10.25 8 10.25C9.79493 10.25 11.25 8.79493 11.25 7C11.25 6.58579 11.5858 6.25 12 6.25C12.4142 6.25 12.75 6.58579 12.75 7C12.75 9.36815 11.017 11.3315 8.75 11.6911V13.25C8.75 13.6642 8.41421 14 8 14C7.58579 14 7.25 13.6642 7.25 13.25V11.6911C4.98301 11.3315 3.25 9.36815 3.25 7C3.25 6.58579 3.58579 6.25 4 6.25Z" fill="#4D7DD0"/>
</svg>
