<svg width="16" height="16" viewBox="0 0 16 16" fill="black" xmlns="http://www.w3.org/2000/svg">
<path fill-rule="evenodd" clip-rule="evenodd" d="M4.66667 6.64282C3.74619 6.64282 3 7.38901 3 8.30949C3 9.22996 3.74619 9.97616 4.66667 9.97616H6C6.55229 9.97616 7 10.4239 7 10.9762C7 11.5284 6.55229 11.9762 6 11.9762H4.66667C2.64162 11.9762 1 10.3345 1 8.30949C1 6.28444 2.64162 4.64282 4.66667 4.64282H6C6.55229 4.64282 7 5.09054 7 5.64282C7 6.19511 6.55229 6.64282 6 6.64282H4.66667ZM11.3333 6.64282C12.2538 6.64282 13 7.38901 13 8.30949C13 9.22996 12.2538 9.97616 11.3333 9.97616H10C9.44772 9.97616 9 10.4239 9 10.9762C9 11.5284 9.44772 11.9762 10 11.9762H11.3333C13.3584 11.9762 15 10.3345 15 8.30949C15 6.28444 13.3584 4.64282 11.3333 4.64282H10C9.44772 4.64282 9 5.09054 9 5.64282C9 6.19511 9.44772 6.64282 10 6.64282H11.3333Z" />
</svg>
