<svg width="24" height="24" viewBox="0 0 24 24" fill="black" xmlns="http://www.w3.org/2000/svg">
<path fill-rule="evenodd" clip-rule="evenodd" d="M20.2037 7.93363C20.7484 7.84241 21.116 7.3269 21.0248 6.7822L21.008 6.6818C20.6944 4.8092 19.2256 3.34273 17.3525 3.03204C17.2239 3.01072 17.0938 3 16.9635 3H7.34619C6.18487 3 5.07014 3.45908 4.2475 4.27779C3.4247 5.09665 2.96158 6.20829 2.96158 7.36842L2.96158 10.2536L1.64901 9.13392C1.22883 8.77549 0.597651 8.82555 0.239223 9.24572C-0.119205 9.6659 -0.0691479 10.2971 0.351028 10.6555L3.30844 13.1783C3.34971 13.2139 3.39392 13.2462 3.44066 13.2748C3.56765 13.3525 3.71332 13.4026 3.86935 13.4169C3.89923 13.4196 3.9292 13.421 3.95915 13.421L3.96158 13.4211C4.11985 13.4211 4.26953 13.3843 4.40254 13.3188C4.7337 13.1559 4.96158 12.8151 4.96158 12.4211L4.96158 7.36842C4.96158 6.74183 5.21165 6.13993 5.65832 5.69539C6.10516 5.25069 6.71221 5 7.34619 5L16.9635 5C16.9842 5 17.0048 5.0017 17.0253 5.00509C18.0553 5.17594 18.863 5.98236 19.0354 7.01213L19.0522 7.11253C19.1435 7.65723 19.659 8.02485 20.2037 7.93363ZM21.0385 16.6315V13.7463L22.351 14.866C22.7712 15.2244 23.4024 15.1743 23.7608 14.7542C24.1193 14.334 24.0692 13.7028 23.649 13.3444L20.6875 10.8181C20.3877 10.5623 19.9805 10.5145 19.6416 10.6607C19.5101 10.7174 19.3889 10.8034 19.2883 10.9177L19.2777 10.9299C19.1956 11.0261 19.135 11.1334 19.0953 11.2459C19.07 11.3176 19.0532 11.3915 19.0448 11.4661C19.0406 11.5036 19.0385 11.5412 19.0385 11.5789L19.0385 11.5789V16.6315C19.0385 17.2581 18.7884 17.86 18.3417 18.3046C17.8949 18.7493 17.2878 18.9999 16.6539 18.9999L7.03656 18.9999C7.01587 18.9999 6.99521 18.9982 6.9748 18.9949C5.94477 18.824 5.13708 18.0176 4.96463 16.9878L4.94782 16.8874C4.8566 16.3427 4.34108 15.9751 3.79638 16.0663C3.25168 16.1575 2.88407 16.673 2.97529 17.2177L2.9921 17.3181C3.3057 19.1907 4.77445 20.6572 6.64754 20.9679C6.77611 20.9892 6.90623 20.9999 7.03656 20.9999L16.6539 20.9999C17.8152 20.9999 18.9299 20.5409 19.7526 19.7222C20.5754 18.9033 21.0385 17.7916 21.0385 16.6315ZM11.0949 10.2723C11.4615 10.083 11.8792 10.0134 12.2884 10.0738C12.7058 10.1353 13.0915 10.3288 13.3887 10.6246C13.6859 10.9204 13.879 11.3028 13.9404 11.715C14.0007 12.1191 13.9314 12.532 13.742 12.8951C13.5527 13.2583 13.2526 13.5537 12.8836 13.7385C12.5146 13.9234 12.0961 13.9879 11.6877 13.9225C11.2793 13.8571 10.9027 13.6653 10.6113 13.3753C10.32 13.0853 10.1285 12.7119 10.0633 12.3086C9.99806 11.9053 10.0622 11.4916 10.247 11.1262C10.4319 10.7607 10.7283 10.4616 11.0949 10.2723ZM12.5804 8.09518C11.7573 7.9737 10.9164 8.11357 10.1772 8.49528C9.43795 8.87703 8.83759 9.48151 8.46231 10.2235C8.087 10.9656 7.95621 11.807 8.08892 12.6278C8.22163 13.4486 8.6109 14.2061 9.20049 14.7929C9.79001 15.3796 10.5498 15.7657 11.3714 15.8973C12.193 16.0289 13.0355 15.8993 13.7794 15.5267C14.5233 15.1541 15.131 14.5571 15.5155 13.8197C15.8999 13.0823 16.0411 12.2426 15.9186 11.4202C15.7936 10.5814 15.401 9.80557 14.7996 9.20705C14.1982 8.60859 13.4201 8.2191 12.5804 8.09518Z"/>
</svg>
