<svg width="16" height="16" viewBox="0 0 16 16" fill="white" xmlns="http://www.w3.org/2000/svg">
<path fill-rule="evenodd" clip-rule="evenodd" d="M15.9992 2.6581C15.4095 2.9383 14.7767 3.12853 14.113 3.21337C14.7911 2.77635 15.3116 2.08226 15.5551 1.25707C14.92 1.66324 14.2181 1.9563 13.4707 2.11568C12.8714 1.42931 12.0191 1 11.0736 1C9.26139 1 7.79063 2.58355 7.79063 4.5347C7.79063 4.81234 7.81928 5.08226 7.87659 5.33933C5.14756 5.1928 2.72892 3.78406 1.11013 1.64524C0.82839 2.1671 0.666033 2.77378 0.666033 3.42159C0.666033 4.64781 1.24622 5.73008 2.12724 6.36247C1.59003 6.34447 1.08386 6.18509 0.639769 5.92031C0.639769 5.93573 0.639769 5.94859 0.639769 5.96401C0.639769 7.67609 1.77149 9.1054 3.27329 9.42931C2.99872 9.509 2.70743 9.5527 2.40898 9.5527C2.19648 9.5527 1.99115 9.52956 1.79059 9.48843C2.20842 10.892 3.42132 11.9152 4.85627 11.9434C3.73171 12.892 2.31825 13.4576 0.77825 13.4576C0.513226 13.4576 0.252978 13.4396 -0.00488281 13.4087C1.44678 14.4113 3.17301 14.9974 5.02818 14.9974C11.0664 14.9974 14.3685 9.61182 14.3685 4.94087C14.3685 4.78663 14.3661 4.63496 14.3589 4.48329C15.0012 3.98458 15.5575 3.36247 15.9968 2.65296L15.9992 2.6581Z"/>
</svg>
